<?xml version="1.0" encoding="utf-8"?>
<svg viewBox="0 0 512 512.017" xmlns="http://www.w3.org/2000/svg">
  <path d="M 255.999 256.008 M 0.008 256.008 C 0.008 452.783 213.334 575.768 383.995 477.38 C 463.199 431.718 511.991 347.331 511.991 256.008 C 511.991 59.233 298.665 -63.752 128.004 34.636 C 48.8 80.297 0.008 164.685 0.008 256.008 Z M 255.999 256.008 M 64.003 256.008 C 64.003 108.428 224 16.191 351.997 89.981 C 411.401 124.227 447.995 187.516 447.995 256.008 C 447.995 403.587 287.999 495.825 160.001 422.035 C 100.598 387.789 64.003 324.5 64.003 256.008 Z" style="fill: rgb(45, 57, 88);" transform="matrix(1, -0.000034, 0.000034, 1, -0.008704, 0.008704)"/>
  <path d="M 383.996 256.019 C 383.996 238.411 369.445 224.187 352.159 224.187 L 287.847 224.187 L 287.847 159.844 C 287.847 142.579 273.608 128.008 256.005 128.008 C 238.403 128.008 224.174 142.579 224.174 159.844 L 224.174 224.187 L 159.841 224.187 C 142.561 224.187 128.005 238.411 128.005 256.019 C 128.005 273.616 142.556 287.834 159.841 287.834 L 224.174 287.834 L 224.174 352.183 C 224.174 369.443 238.397 384.009 256.005 384.009 C 273.608 384.009 287.847 369.443 287.847 352.183 L 287.847 287.834 L 352.165 287.834 C 369.445 287.834 383.996 273.621 383.996 256.019 Z" style="fill: rgb(107, 208, 157);"/>
</svg>