<?xml version="1.0" encoding="utf-8"?>
<svg viewBox="0 0 100 125" xmlns="http://www.w3.org/2000/svg">
  <path d="M 1012.938 324.928 m -49.998 0 a 49.998 49.966 0 1 0 99.996 0 a 49.998 49.966 0 1 0 -99.996 0 Z M 1012.938 324.928 m -37.499 0 a 37.499 37.474 0 0 1 74.998 0 a 37.499 37.474 0 0 1 -74.998 0 Z" style="fill: rgb(45, 57, 88);" transform="matrix(1, -0.000034, 0.000034, 1, -962.949036, -274.894012)"/>
  <path d="M 74.999 50.002 C 74.999 46.563 72.157 43.785 68.781 43.785 L 56.22 43.785 L 56.22 31.218 C 56.22 27.846 53.439 25 50.001 25 C 46.563 25 43.784 27.846 43.784 31.218 L 43.784 43.785 L 31.219 43.785 C 27.844 43.785 25.001 46.563 25.001 50.002 C 25.001 53.439 27.843 56.216 31.219 56.216 L 43.784 56.216 L 43.784 68.784 C 43.784 72.155 46.562 75 50.001 75 C 53.439 75 56.22 72.155 56.22 68.784 L 56.22 56.216 L 68.782 56.216 C 72.157 56.216 74.999 53.44 74.999 50.002 Z" style="fill: rgb(107, 208, 157);"/>
  <path style="stroke-width: 12.5px; stroke-linecap: round; stroke-linejoin: round; fill: none; stroke: rgb(107, 208, 157);" d="M 6.251 111 C 34.169 121.318 63.301 121.318 93.7 111"/>
</svg>