<?xml version="1.0" encoding="UTF-8" standalone="no"?>
<!DOCTYPE svg PUBLIC "-//W3C//DTD SVG 1.1//EN" "http://www.w3.org/Graphics/SVG/1.1/DTD/svg11.dtd">
<svg width="100%" height="100%" viewBox="0 0 11750 9851" version="1.1" xmlns="http://www.w3.org/2000/svg" xmlns:xlink="http://www.w3.org/1999/xlink" xml:space="preserve" xmlns:serif="http://www.serif.com/" style="fill-rule:evenodd;clip-rule:evenodd;stroke-linejoin:round;stroke-miterlimit:1.41421;">
    <g transform="matrix(16.6667,0,0,16.6667,0,0)">
        <g id="surface1">
            <path d="M352.574,68.781C349.676,68.781 346.781,68.852 343.887,68.992C340.992,69.137 338.102,69.348 335.219,69.633C332.336,69.918 329.461,70.27 326.594,70.695C323.727,71.121 320.871,71.617 318.027,72.184C315.188,72.746 312.359,73.383 309.551,74.086C306.738,74.789 303.945,75.563 301.172,76.402C298.398,77.246 295.648,78.152 292.918,79.129C290.191,80.105 287.488,81.148 284.813,82.258C282.133,83.367 279.484,84.543 276.867,85.781C274.246,87.02 271.656,88.32 269.102,89.688C266.547,91.055 264.027,92.48 261.539,93.973C259.055,95.461 256.605,97.012 254.195,98.621C251.789,100.23 249.418,101.898 247.09,103.625C244.762,105.352 242.48,107.137 240.238,108.973C238,110.813 235.805,112.703 233.66,114.652C231.512,116.598 229.414,118.594 227.363,120.645C225.313,122.691 223.316,124.789 221.371,126.938C219.426,129.086 217.531,131.277 215.695,133.52C213.855,135.758 212.074,138.043 210.348,140.371C208.621,142.699 206.953,145.066 205.344,147.477C203.73,149.887 202.184,152.336 200.691,154.82C199.203,157.305 197.773,159.828 196.41,162.383C195.043,164.938 193.738,167.527 192.5,170.145C191.262,172.766 190.086,175.414 188.977,178.09C187.871,180.77 186.828,183.473 185.852,186.199C184.875,188.93 183.965,191.68 183.125,194.453C182.281,197.227 181.512,200.02 180.805,202.828C180.102,205.641 179.469,208.469 178.902,211.309C178.336,214.152 177.84,217.004 177.414,219.871C176.992,222.738 176.637,225.613 176.352,228.5C176.066,231.383 175.855,234.273 175.711,237.168C175.57,240.063 175.5,242.957 175.5,245.855C175.5,248.754 175.57,251.648 175.711,254.543C175.855,257.438 176.066,260.328 176.352,263.211C176.637,266.094 176.992,268.969 177.414,271.836C177.84,274.703 178.336,277.559 178.902,280.402C179.469,283.242 180.102,286.07 180.805,288.879C181.512,291.691 182.281,294.484 183.125,297.258C183.965,300.031 184.875,302.781 185.852,305.508C186.828,308.238 187.871,310.941 188.977,313.617C190.086,316.297 191.262,318.945 192.5,321.563C193.738,324.184 195.043,326.773 196.41,329.328C197.773,331.883 199.203,334.402 200.691,336.891C202.184,339.375 203.73,341.824 205.344,344.234C206.953,346.641 208.621,349.012 210.348,351.34C212.074,353.668 213.855,355.949 215.695,358.191C217.531,360.43 219.426,362.625 221.371,364.77C223.316,366.918 225.313,369.016 227.363,371.066C229.414,373.113 231.512,375.113 233.66,377.059C235.805,379.004 238,380.898 240.238,382.734C242.48,384.574 244.762,386.355 247.09,388.082C249.418,389.809 251.789,391.477 254.195,393.086C256.605,394.699 259.055,396.246 261.539,397.738C264.027,399.227 266.547,400.656 269.102,402.02C271.656,403.387 274.246,404.691 276.867,405.93C279.484,407.168 282.133,408.344 284.813,409.449C287.488,410.559 290.191,411.602 292.918,412.578C295.648,413.555 298.398,414.465 301.172,415.305C303.945,416.148 306.738,416.918 309.551,417.625C312.359,418.328 315.188,418.961 318.027,419.527C320.871,420.094 323.727,420.59 326.594,421.012C329.461,421.438 332.336,421.793 335.219,422.078C338.102,422.363 340.992,422.574 343.887,422.719C346.781,422.859 349.676,422.93 352.574,422.93C355.473,422.93 358.367,422.859 361.262,422.719C364.156,422.574 367.047,422.363 369.93,422.078C372.816,421.793 375.691,421.438 378.559,421.012C381.422,420.59 384.277,420.094 387.121,419.527C389.961,418.961 392.789,418.328 395.602,417.625C398.41,416.918 401.203,416.148 403.977,415.305C406.75,414.465 409.5,413.555 412.23,412.578C414.957,411.602 417.66,410.559 420.34,409.449C423.016,408.344 425.664,407.168 428.285,405.93C430.902,404.691 433.492,403.387 436.047,402.02C438.602,400.656 441.125,399.227 443.609,397.738C446.094,396.246 448.543,394.699 450.953,393.086C453.363,391.477 455.73,389.809 458.059,388.082C460.387,386.355 462.672,384.574 464.91,382.734C467.152,380.898 469.344,379.004 471.492,377.059C473.637,375.113 475.738,373.113 477.785,371.066C479.836,369.016 481.832,366.918 483.777,364.77C485.727,362.625 487.617,360.43 489.457,358.191C491.293,355.949 493.078,353.668 494.805,351.34C496.531,349.012 498.199,346.641 499.809,344.234C501.418,341.824 502.969,339.375 504.457,336.891C505.949,334.402 507.375,331.883 508.742,329.328C510.109,326.773 511.41,324.184 512.648,321.563C513.887,318.945 515.063,316.297 516.172,313.617C517.281,310.941 518.324,308.238 519.301,305.508C520.273,302.781 521.184,300.031 522.023,297.258C522.867,294.484 523.641,291.691 524.344,288.879C525.047,286.07 525.684,283.242 526.246,280.402C526.813,277.559 527.309,274.703 527.734,271.836C528.16,268.969 528.512,266.094 528.797,263.211C529.082,260.328 529.293,257.438 529.438,254.543C529.578,251.648 529.648,248.754 529.648,245.855C529.648,242.957 529.578,240.063 529.438,237.168C529.293,234.273 529.082,231.383 528.797,228.5C528.512,225.613 528.16,222.738 527.734,219.871C527.309,217.004 526.813,214.152 526.246,211.309C525.684,208.469 525.047,205.641 524.344,202.828C523.641,200.02 522.867,197.227 522.023,194.453C521.184,191.68 520.273,188.93 519.301,186.199C518.324,183.473 517.281,180.77 516.172,178.09C515.063,175.414 513.887,172.766 512.648,170.145C511.41,167.527 510.105,164.938 508.742,162.383C507.375,159.828 505.945,157.305 504.457,154.82C502.969,152.336 501.418,149.887 499.809,147.477C498.199,145.066 496.531,142.699 494.805,140.371C493.078,138.043 491.293,135.758 489.457,133.52C487.617,131.277 485.727,129.086 483.777,126.938C481.832,124.789 479.836,122.691 477.785,120.645C475.738,118.594 473.637,116.598 471.492,114.652C469.344,112.703 467.152,110.813 464.91,108.973C462.672,107.137 460.387,105.352 458.059,103.625C455.73,101.898 453.363,100.23 450.953,98.621C448.543,97.012 446.094,95.461 443.609,93.973C441.125,92.48 438.602,91.055 436.047,89.688C433.492,88.32 430.902,87.02 428.285,85.781C425.664,84.543 423.016,83.367 420.34,82.258C417.66,81.148 414.957,80.105 412.23,79.129C409.5,78.152 406.75,77.246 403.977,76.402C401.203,75.563 398.41,74.789 395.602,74.086C392.789,73.383 389.961,72.746 387.121,72.184C384.277,71.617 381.422,71.121 378.559,70.695C375.691,70.27 372.816,69.918 369.93,69.633C367.047,69.348 364.156,69.137 361.262,68.992C358.367,68.852 355.473,68.781 352.574,68.781ZM352.574,372.336C350.504,372.336 348.438,372.285 346.367,372.184C344.301,372.082 342.238,371.93 340.176,371.727C338.117,371.523 336.063,371.273 334.016,370.969C331.969,370.664 329.93,370.313 327.898,369.906C325.867,369.504 323.852,369.051 321.844,368.547C319.836,368.043 317.84,367.492 315.859,366.891C313.879,366.289 311.914,365.641 309.965,364.945C308.016,364.246 306.086,363.5 304.172,362.711C302.258,361.918 300.367,361.078 298.496,360.195C296.625,359.309 294.777,358.379 292.953,357.402C291.125,356.426 289.324,355.406 287.551,354.344C285.773,353.277 284.027,352.172 282.305,351.02C280.582,349.871 278.891,348.68 277.23,347.445C275.566,346.215 273.934,344.941 272.336,343.629C270.734,342.313 269.168,340.961 267.633,339.57C266.102,338.184 264.602,336.754 263.137,335.293C261.676,333.828 260.246,332.328 258.859,330.797C257.469,329.262 256.117,327.695 254.801,326.094C253.488,324.496 252.215,322.863 250.984,321.199C249.75,319.539 248.559,317.848 247.41,316.125C246.258,314.402 245.152,312.656 244.086,310.879C243.023,309.105 242.004,307.305 241.027,305.477C240.051,303.652 239.121,301.805 238.234,299.934C237.352,298.063 236.512,296.172 235.719,294.258C234.93,292.344 234.184,290.414 233.484,288.465C232.789,286.516 232.141,284.551 231.539,282.57C230.938,280.59 230.387,278.594 229.883,276.586C229.379,274.578 228.926,272.559 228.523,270.531C228.117,268.5 227.766,266.461 227.461,264.414C227.156,262.367 226.906,260.313 226.703,258.254C226.5,256.191 226.348,254.129 226.246,252.063C226.145,249.992 226.094,247.926 226.094,245.855C226.094,243.785 226.145,241.715 226.246,239.648C226.348,237.582 226.5,235.516 226.703,233.457C226.906,231.398 227.156,229.344 227.461,227.297C227.766,225.25 228.117,223.211 228.523,221.18C228.926,219.148 229.379,217.129 229.883,215.121C230.387,213.113 230.938,211.121 231.539,209.141C232.141,207.156 232.789,205.191 233.484,203.246C234.184,201.297 234.93,199.363 235.719,197.453C236.512,195.539 237.352,193.648 238.234,191.777C239.121,189.906 240.051,188.059 241.027,186.23C242.004,184.406 243.023,182.605 244.086,180.828C245.152,179.055 246.258,177.305 247.41,175.586C248.559,173.863 249.75,172.172 250.984,170.508C252.215,168.848 253.488,167.215 254.801,165.617C256.117,164.016 257.469,162.449 258.859,160.914C260.246,159.379 261.676,157.883 263.137,156.418C264.602,154.953 266.102,153.527 267.633,152.137C269.168,150.746 270.734,149.395 272.336,148.082C273.934,146.77 275.566,145.496 277.23,144.262C278.891,143.031 280.582,141.84 282.305,140.688C284.027,139.539 285.773,138.43 287.551,137.367C289.324,136.305 291.125,135.281 292.953,134.309C294.777,133.332 296.625,132.402 298.496,131.516C300.367,130.633 302.258,129.793 304.172,129C306.086,128.207 308.016,127.465 309.965,126.766C311.914,126.07 313.879,125.418 315.859,124.82C317.84,124.219 319.836,123.664 321.844,123.164C323.852,122.66 325.867,122.207 327.898,121.805C329.93,121.398 331.969,121.047 334.016,120.742C336.063,120.438 338.117,120.184 340.176,119.98C342.238,119.777 344.301,119.625 346.367,119.523C348.438,119.422 350.504,119.371 352.574,119.371C354.645,119.371 356.715,119.422 358.781,119.523C360.848,119.625 362.914,119.777 364.973,119.98C367.031,120.184 369.086,120.438 371.133,120.742C373.18,121.047 375.219,121.398 377.25,121.805C379.281,122.207 381.301,122.66 383.309,123.164C385.316,123.664 387.309,124.219 389.289,124.82C391.273,125.418 393.238,126.07 395.184,126.766C397.133,127.465 399.066,128.207 400.977,129C402.891,129.793 404.781,130.633 406.652,131.516C408.523,132.402 410.371,133.332 412.199,134.309C414.023,135.281 415.824,136.305 417.602,137.367C419.375,138.43 421.125,139.539 422.844,140.688C424.566,141.84 426.258,143.031 427.922,144.262C429.582,145.496 431.215,146.77 432.816,148.082C434.414,149.395 435.98,150.746 437.516,152.137C439.051,153.527 440.547,154.953 442.012,156.418C443.477,157.883 444.902,159.379 446.293,160.914C447.684,162.449 449.035,164.016 450.348,165.617C451.66,167.215 452.934,168.848 454.168,170.508C455.398,172.172 456.59,173.863 457.742,175.586C458.891,177.305 460,179.055 461.063,180.828C462.125,182.605 463.148,184.406 464.121,186.23C465.098,188.059 466.027,189.906 466.914,191.777C467.797,193.648 468.637,195.539 469.43,197.453C470.223,199.363 470.965,201.297 471.664,203.246C472.359,205.191 473.012,207.156 473.609,209.141C474.211,211.121 474.762,213.113 475.266,215.121C475.77,217.129 476.223,219.148 476.625,221.18C477.031,223.211 477.383,225.25 477.688,227.297C477.992,229.344 478.246,231.398 478.449,233.457C478.652,235.516 478.805,237.582 478.906,239.648C479.008,241.715 479.059,243.785 479.059,245.855C479.059,247.926 479.008,249.992 478.906,252.063C478.805,254.129 478.652,256.191 478.449,258.254C478.246,260.313 477.992,262.367 477.688,264.414C477.383,266.461 477.031,268.5 476.625,270.531C476.223,272.559 475.77,274.578 475.266,276.586C474.766,278.594 474.211,280.59 473.609,282.57C473.012,284.551 472.359,286.516 471.664,288.465C470.965,290.414 470.223,292.344 469.43,294.258C468.637,296.172 467.797,298.063 466.914,299.934C466.027,301.805 465.098,303.652 464.121,305.477C463.148,307.305 462.125,309.105 461.063,310.879C460,312.656 458.891,314.402 457.742,316.125C456.59,317.848 455.398,319.539 454.168,321.199C452.934,322.863 451.66,324.496 450.348,326.094C449.035,327.695 447.684,329.262 446.293,330.797C444.902,332.328 443.477,333.828 442.012,335.293C440.547,336.754 439.051,338.184 437.516,339.57C435.98,340.961 434.414,342.313 432.816,343.629C431.215,344.941 429.582,346.215 427.922,347.445C426.258,348.68 424.566,349.871 422.844,351.02C421.125,352.172 419.375,353.277 417.602,354.344C415.824,355.406 414.023,356.426 412.199,357.402C410.371,358.379 408.523,359.309 406.652,360.195C404.781,361.078 402.891,361.918 400.977,362.711C399.066,363.5 397.133,364.246 395.184,364.945C393.238,365.641 391.273,366.289 389.289,366.891C387.309,367.492 385.316,368.043 383.309,368.547C381.301,369.051 379.281,369.504 377.25,369.906C375.219,370.313 373.18,370.664 371.133,370.969C369.086,371.273 367.031,371.523 364.973,371.727C362.914,371.93 360.848,372.082 358.781,372.184C356.715,372.285 354.645,372.336 352.574,372.336Z" style="fill:rgb(45,56,87);fill-rule:nonzero;"/>
            <clipPath id="_clip1">
                <rect x="263.305" y="157.586" width="178.199" height="176.703"/>
            </clipPath>
            <g clip-path="url(#_clip1)">
                <path d="M441.465,245.949C441.465,258.105 431.34,267.914 419.32,267.914L374.57,267.914L374.57,312.336C374.57,324.25 364.664,334.305 352.418,334.305C340.164,334.305 330.27,324.25 330.27,312.336L330.27,267.914L285.508,267.914C273.484,267.914 263.359,258.102 263.359,245.949C263.359,233.797 273.488,223.98 285.508,223.98L330.27,223.98L330.27,179.563C330.27,167.645 340.168,157.586 352.418,157.586C364.664,157.586 374.57,167.645 374.57,179.563L374.57,223.98L419.316,223.98C431.34,223.98 441.465,233.797 441.465,245.949" style="fill:rgb(106,208,157);"/>
            </g>
            <path d="M212.062,437.953L216.706,439.519L217.095,439.694L217.465,439.86L217.835,440.026L218.205,440.19L218.576,440.354L218.947,440.518L219.318,440.68L219.689,440.842L220.062,441.004L220.433,441.165L220.805,441.325L221.178,441.484L221.55,441.643L221.914,441.798L222.67,442.116L223.417,442.428L224.165,442.738L224.915,443.045L225.666,443.35L226.417,443.652L227.169,443.951L227.922,444.248L228.676,444.543L229.431,444.835L230.188,445.125L230.945,445.412L231.703,445.696L232.462,445.979L233.222,446.258L233.982,446.536L234.744,446.811L235.507,447.083L236.27,447.353L237.035,447.621L237.8,447.886L238.567,448.149L239.334,448.409L240.102,448.667L240.871,448.923L241.641,449.176L242.412,449.427L243.184,449.676L243.956,449.922L244.73,450.166L245.504,450.407L246.28,450.646L247.056,450.883L247.833,451.117L248.611,451.349L249.389,451.579L250.169,451.806L250.95,452.032L251.731,452.254L252.513,452.475L253.297,452.693L254.08,452.909L254.865,453.123L255.651,453.334L256.437,453.543L257.224,453.75L258.013,453.955L258.801,454.157L259.591,454.357L260.382,454.555L261.173,454.751L261.965,454.944L262.758,455.135L263.552,455.324L264.346,455.511L265.142,455.695L265.938,455.878L266.735,456.058L267.532,456.236L268.331,456.412L269.13,456.585L269.93,456.756L270.73,456.926L271.532,457.093L272.334,457.258L273.137,457.42L273.941,457.581L274.745,457.74L275.551,457.896L276.356,458.05L277.163,458.202L277.97,458.352L278.779,458.5L279.587,458.646L280.396,458.789L281.206,458.931L282.017,459.07L282.829,459.208L283.641,459.343L284.454,459.476L285.268,459.608L286.082,459.737L286.896,459.864L287.712,459.989L288.528,460.112L289.345,460.233L290.162,460.351L290.981,460.468L291.799,460.583L292.618,460.696L293.438,460.807L294.259,460.916L295.08,461.023L295.902,461.127L296.724,461.23L297.547,461.331L298.371,461.43L299.195,461.527L300.02,461.622L300.845,461.715L301.671,461.806L302.497,461.895L303.324,461.982L304.152,462.067L304.98,462.151L305.809,462.232L306.638,462.312L307.467,462.389L308.297,462.465L309.128,462.538L309.96,462.61L310.791,462.68L311.623,462.748L312.456,462.815L313.29,462.879L314.123,462.941L314.957,463.002L315.792,463.061L316.627,463.118L317.463,463.173L318.299,463.226L319.135,463.278L319.972,463.327L320.809,463.375L321.647,463.421L322.486,463.465L323.324,463.507L324.163,463.548L325.003,463.587L325.843,463.624L326.683,463.659L327.524,463.693L328.365,463.724L329.206,463.754L330.048,463.782L330.89,463.809L331.733,463.834L332.576,463.857L333.419,463.878L334.263,463.897L335.106,463.915L335.951,463.931L336.796,463.946L337.64,463.959L338.486,463.97L339.331,463.979L340.177,463.987L341.023,463.993L341.87,463.997L342.717,464L343.564,464.001L344.411,464L345.258,463.998L346.106,463.994L346.954,463.989L347.803,463.982L348.651,463.973L349.5,463.963L350.349,463.951L351.198,463.937L352.048,463.922L352.898,463.905L353.748,463.887L354.598,463.867L355.448,463.846L356.299,463.823L357.149,463.799L358,463.773L358.851,463.745L359.703,463.716L360.554,463.685L361.405,463.653L362.257,463.619L363.109,463.584L363.961,463.548L364.813,463.51L365.665,463.47L366.517,463.429L367.37,463.386L368.223,463.342L369.075,463.297L369.928,463.25L370.781,463.201L371.634,463.152L372.486,463.1L373.34,463.048L374.193,462.994L375.046,462.938L375.899,462.881L376.752,462.823L377.606,462.763L378.459,462.702L379.312,462.64L380.166,462.576L381.019,462.51L381.873,462.444L382.726,462.376L383.579,462.307L384.433,462.236L385.286,462.164L386.139,462.091L386.993,462.016L387.846,461.94L388.699,461.863L389.553,461.785L390.406,461.705L391.259,461.624L392.112,461.541L392.965,461.458L393.818,461.373L394.67,461.287L395.523,461.199L396.376,461.111L397.228,461.021L398.08,460.93L398.933,460.837L399.785,460.744L400.637,460.649L401.488,460.553L402.341,460.456L403.192,460.358L404.043,460.258L404.895,460.157L405.746,460.055L406.596,459.952L407.448,459.848L408.298,459.743L409.149,459.636L409.999,459.529L410.849,459.42L411.699,459.31L412.548,459.199L413.397,459.087L414.246,458.974L415.096,458.859L415.944,458.744L416.792,458.628L417.641,458.51L418.489,458.391L419.336,458.272L420.184,458.151L421.031,458.029L421.878,457.907L422.724,457.783L423.571,457.658L424.416,457.532L425.262,457.405L426.108,457.277L426.956,457.148L428.194,456.958L429.419,456.769L430.625,456.581L431.813,456.395L432.983,456.211L434.137,456.027L435.273,455.844L436.394,455.662L437.499,455.481L438.588,455.3L439.662,455.119L440.721,454.938L441.766,454.756L442.807,454.573L443.309,454.484L443.816,454.393L444.32,454.301L444.821,454.21L445.319,454.118L445.814,454.026L446.306,453.934L446.795,453.841L447.281,453.749L447.764,453.655L448.245,453.562L448.723,453.468L449.198,453.374L449.67,453.279L450.141,453.184L450.609,453.088L451.074,452.992L451.538,452.896L451.999,452.799L452.458,452.701L452.915,452.603L453.37,452.504L453.823,452.404L454.274,452.304L454.723,452.203L455.171,452.102L455.617,452L456.062,451.897L456.505,451.793L456.947,451.688L457.387,451.583L457.827,451.477L458.265,451.369L458.702,451.261L459.138,451.153L459.573,451.043L460.008,450.932L460.441,450.82L460.874,450.707L461.307,450.593L461.739,450.478L462.17,450.361L462.601,450.244L463.032,450.125L463.463,450.005L463.894,449.884L464.325,449.762L464.756,449.638L465.187,449.513L465.618,449.387L466.05,449.259L466.482,449.13L466.915,448.999L467.348,448.867L467.782,448.733L468.217,448.597L468.651,448.461L469.088,448.322L469.526,448.182L469.964,448.04L470.405,447.896L470.845,447.751L471.288,447.603L471.731,447.454L472.177,447.303L472.624,447.15L473.072,446.995L473.522,446.838L473.974,446.679L474.428,446.518L474.884,446.355L475.341,446.19L475.801,446.023L476.264,445.853L476.728,445.681L477.195,445.507L477.664,445.331L478.135,445.152L478.61,444.971L479.086,444.788L479.565,444.602L480.048,444.413L480.533,444.222L481.02,444.029L481.511,443.833L482.006,443.634L482.503,443.433L483.002,443.229L483.506,443.022L484.013,442.812L484.522,442.6L485.035,442.385L485.552,442.167L486.073,441.947L486.597,441.723L487.124,441.496L487.655,441.267L488.191,441.034L488.729,440.798L489.297,440.549L493.955,439.025L498.82,438.439L503.707,438.813L508.426,440.134L512.798,442.35L516.652,445.376L519.843,449.097L522.246,453.368L523.77,458.026L524.356,462.891L523.982,467.778L522.661,472.497L520.445,476.869L517.419,480.723L513.698,483.914L509.427,486.317L508.813,486.588L508.176,486.866L507.542,487.142L506.911,487.414L506.282,487.685L505.656,487.952L505.031,488.217L504.41,488.479L503.789,488.739L503.172,488.996L502.557,489.25L501.943,489.502L501.332,489.752L500.722,489.999L500.116,490.243L499.51,490.485L498.906,490.724L498.304,490.961L497.705,491.195L497.106,491.428L496.509,491.657L495.914,491.884L495.32,492.11L494.728,492.332L494.138,492.552L493.549,492.77L492.962,492.986L492.375,493.199L491.79,493.41L491.206,493.619L490.624,493.826L490.043,494.03L489.463,494.232L488.883,494.432L488.306,494.63L487.729,494.826L487.153,495.019L486.579,495.211L486.004,495.4L485.432,495.587L484.86,495.772L484.289,495.955L483.719,496.136L483.149,496.316L482.58,496.493L482.012,496.668L481.445,496.841L480.879,497.012L480.313,497.182L479.747,497.349L479.182,497.515L478.618,497.678L478.055,497.84L477.491,498L476.928,498.158L476.366,498.315L475.804,498.469L475.243,498.622L474.681,498.773L474.121,498.923L473.56,499.071L473,499.217L472.44,499.362L471.879,499.505L471.32,499.646L470.76,499.786L470.2,499.924L469.641,500.061L469.081,500.196L468.522,500.33L467.962,500.463L467.403,500.593L466.843,500.723L466.283,500.852L465.723,500.978L465.163,501.104L464.601,501.229L464.041,501.352L463.48,501.474L462.918,501.595L462.356,501.714L461.793,501.833L461.23,501.95L460.666,502.066L460.102,502.182L459.538,502.296L458.972,502.409L458.405,502.522L457.838,502.633L457.27,502.743L456.702,502.853L456.131,502.962L455.561,503.07L454.989,503.177L454.417,503.283L453.842,503.389L453.267,503.494L452.691,503.599L452.112,503.703L451.525,503.807L450.372,504.01L449.203,504.213L448.028,504.414L446.845,504.613L445.655,504.811L444.458,505.008L443.251,505.204L442.035,505.399L440.81,505.594L439.575,505.789L438.328,505.984L437.071,506.18L435.802,506.376L434.518,506.573L433.616,506.71L432.711,506.847L431.805,506.983L430.898,507.118L429.991,507.252L429.083,507.385L428.175,507.516L427.266,507.647L426.357,507.777L425.446,507.905L424.535,508.032L423.624,508.159L422.712,508.284L421.799,508.408L420.886,508.531L419.972,508.653L419.058,508.774L418.143,508.893L417.227,509.011L416.311,509.129L415.395,509.245L414.478,509.36L413.56,509.473L412.642,509.586L411.723,509.697L410.803,509.807L409.884,509.916L408.963,510.023L408.042,510.13L407.121,510.235L406.199,510.339L405.277,510.441L404.354,510.543L403.431,510.643L402.507,510.741L401.582,510.839L400.658,510.935L399.732,511.03L398.806,511.123L397.88,511.216L396.954,511.306L396.027,511.396L395.099,511.484L394.171,511.571L393.243,511.656L392.314,511.74L391.385,511.823L390.455,511.904L389.525,511.984L388.594,512.063L387.664,512.14L386.732,512.215L385.8,512.289L384.868,512.362L383.936,512.433L383.003,512.503L382.07,512.571L381.136,512.638L380.202,512.704L379.268,512.768L378.333,512.83L377.398,512.891L376.463,512.95L375.528,513.008L374.591,513.064L373.655,513.119L372.718,513.172L371.781,513.223L370.844,513.274L369.906,513.322L368.969,513.369L368.03,513.414L367.092,513.458L366.153,513.5L365.214,513.54L364.274,513.579L363.335,513.616L362.395,513.651L361.455,513.685L360.515,513.717L359.574,513.748L358.633,513.777L357.692,513.804L356.751,513.829L355.809,513.853L354.867,513.875L353.925,513.895L352.983,513.913L352.04,513.93L351.098,513.945L350.155,513.958L349.212,513.97L348.269,513.98L347.325,513.987L346.381,513.993L345.438,513.998L344.494,514L343.549,514.001L342.605,514L341.661,513.997L340.716,513.992L339.772,513.985L338.827,513.977L337.882,513.966L336.937,513.954L335.991,513.939L335.046,513.923L334.101,513.905L333.155,513.885L332.209,513.863L331.263,513.839L330.317,513.814L329.371,513.786L328.426,513.756L327.48,513.724L326.533,513.691L325.587,513.655L324.641,513.617L323.694,513.578L322.748,513.536L321.802,513.492L320.855,513.446L319.908,513.399L318.962,513.349L318.015,513.297L317.069,513.243L316.122,513.187L315.176,513.128L314.229,513.068L313.282,513.006L312.336,512.941L311.389,512.875L310.443,512.806L309.496,512.735L308.55,512.662L307.604,512.587L306.657,512.509L305.71,512.429L304.764,512.348L303.818,512.264L302.872,512.177L301.926,512.089L300.98,511.998L300.034,511.905L299.088,511.81L298.142,511.713L297.197,511.613L296.252,511.511L295.306,511.407L294.36,511.301L293.415,511.192L292.47,511.081L291.525,510.967L290.581,510.851L289.636,510.733L288.691,510.613L287.747,510.49L286.803,510.365L285.859,510.237L284.915,510.107L283.971,509.975L283.029,509.84L282.085,509.703L281.142,509.563L280.2,509.421L279.257,509.277L278.314,509.13L277.372,508.98L276.43,508.828L275.488,508.674L274.547,508.517L273.606,508.358L272.665,508.196L271.725,508.032L270.784,507.865L269.844,507.695L268.904,507.523L267.965,507.349L267.025,507.172L266.086,506.992L265.148,506.81L264.21,506.625L263.272,506.438L262.334,506.247L261.397,506.055L260.46,505.859L259.523,505.661L258.587,505.461L257.65,505.258L256.715,505.052L255.78,504.843L254.845,504.632L253.911,504.418L252.977,504.201L252.043,503.982L251.11,503.759L250.177,503.535L249.245,503.307L248.313,503.077L247.381,502.843L246.45,502.608L245.519,502.369L244.589,502.127L243.659,501.883L242.73,501.636L241.802,501.386L240.873,501.133L239.945,500.878L239.018,500.619L238.091,500.358L237.165,500.094L236.239,499.827L235.314,499.557L234.39,499.284L233.465,499.008L232.542,498.73L231.619,498.448L230.697,498.164L229.774,497.876L228.854,497.586L227.933,497.293L227.013,496.997L226.093,496.697L225.174,496.395L224.256,496.09L223.338,495.782L222.421,495.47L221.505,495.156L220.59,494.839L219.674,494.519L218.76,494.195L217.846,493.869L216.933,493.539L216.021,493.207L215.11,492.871L214.199,492.532L213.288,492.19L212.379,491.845L211.471,491.498L210.562,491.146L209.655,490.792L208.749,490.435L207.843,490.074L206.938,489.71L206.034,489.343L205.131,488.973L204.228,488.6L203.326,488.223L202.435,487.847L201.975,487.652L201.526,487.46L201.076,487.268L200.626,487.074L200.176,486.88L199.728,486.685L199.279,486.489L198.83,486.292L198.382,486.095L197.934,485.896L197.486,485.697L197.038,485.497L196.59,485.296L196.162,485.103L191.913,482.661L188.222,479.437L185.23,475.555L183.054,471.164L181.776,466.433L181.446,461.543L182.076,456.683L183.642,452.039L186.084,447.79L189.308,444.099L193.19,441.107L197.581,438.931L202.313,437.653L207.202,437.323L212.062,437.953Z" style="fill:rgb(107,208,157);"/>
        </g>
    </g>
</svg>
