<?xml version="1.0" encoding="utf-8"?>
<svg id="_x31__x2C_5" height="512" viewBox="0 0 24 24" width="512" xmlns="http://www.w3.org/2000/svg">
  <path d="m12 20c-1.654 0-3-1.427-3-3.181 0-1.364 2.028-13.779 2.26-15.19.059-.363.373-.629.74-.629s.681.266.74.629c.232 1.411 2.26 13.827 2.26 15.19 0 1.754-1.346 3.181-3 3.181zm0-13.543c-.753 4.737-1.5 9.661-1.5 10.363 0 .927.673 1.681 1.5 1.681s1.5-.754 1.5-1.681c0-.702-.747-5.627-1.5-10.363z" style="fill: rgb(107, 208, 157);"/>
  <path d="m12.02 23.004c-1.266 0-2.53-.399-3.583-1.195-2.27-1.715-2.975-4.741-1.712-7.221l.367-.724c.056-.109.019-.199-.009-.244-.027-.045-.092-.12-.214-.12h-6.119c-.414 0-.75-.336-.75-.75s.336-.75.75-.75h6.119c.614 0 1.172.313 1.493.836.32.523.345 1.161.066 1.708l-.367.724c-.933 1.832-.409 4.068 1.244 5.318 1.604 1.211 3.798 1.219 5.37.042 1.664-1.243 2.199-3.48 1.273-5.318l-.389-.773c-.275-.546-.248-1.184.073-1.705.322-.521.88-.832 1.491-.832h6.127c.414 0 .75.336.75.75s-.336.75-.75.75h-6.127c-.121 0-.185.074-.212.119s-.065.135-.011.244l.389.773c1.254 2.489.532 5.515-1.715 7.194-1.048.782-2.302 1.173-3.554 1.174z" style="fill: rgb(45, 57, 88);"/>
</svg>