<?xml version="1.0" encoding="utf-8"?>
<svg version="1.1" id="Capa_1" x="0px" y="0px" viewBox="0 0 427.1 427.1" style="enable-background:new 0 0 427.1 427.1;" xmlns="http://www.w3.org/2000/svg">
  <g style="" transform="matrix(1.092847, 0, 0, 1.092847, -1.266137, 77.908195)">
    <g>
      <path d="M93.55,156.5c-31.5,0-57,25.5-57,57s25.5,57,57,57s57-25.5,57-57C150.45,182.1,124.95,156.6,93.55,156.5z M93.55,250.5 c-20.4,0-37-16.5-37-37c0-20.4,16.5-37,37-37c20.4,0,37,16.5,37,37C130.45,233.9,113.95,250.4,93.55,250.5z" style="fill: rgb(107, 208, 157);"/>
    </g>
  </g>
  <g style="" transform="matrix(1.092847, 0, 0, 1.092847, -1.266137, 77.908195)">
    <g>
      <path d="M380.55,172.5h-203.5c-5.5,0-10,4.5-10,10s4.5,10,10,10h203.5c5.5,0,10-4.5,10-10S386.05,172.5,380.55,172.5z" style="fill: rgb(45, 57, 88);"/>
    </g>
  </g>
  <g style="" transform="matrix(1.092847, 0, 0, 1.092847, -1.266137, 77.908195)">
    <g>
      <path d="M286.65,234.5h-109.6c-5.5,0-10,4.5-10,10s4.4,10,10,10h109.6c5.5,0,10-4.5,10-10S292.15,234.5,286.65,234.5z" style="fill: rgb(45, 57, 88);"/>
    </g>
  </g>
  <g style="" transform="matrix(1.092847, 0, 0, 1.092847, -1.266137, 77.908195)">
    <g>
      <path d="M93.55,0c-31.5,0-57,25.5-57,57s25.5,57,57,57s57-25.5,57-57C150.45,25.5,124.95,0,93.55,0z M93.55,93.9 c-20.4,0-37-16.5-37-37s16.5-37,37-37c20.4,0,37,16.5,37,37C130.45,77.4,113.95,93.9,93.55,93.9z" style="fill: rgb(107, 208, 157);"/>
    </g>
  </g>
  <g style="" transform="matrix(1.092847, 0, 0, 1.092847, -1.266137, 77.908195)">
    <g>
      <path d="M380.55,15.5h-203.5c-5.5,0-10,4.5-10,10s4.5,10,10,10h203.5c5.5,0,10-4.5,10-10S386.05,15.5,380.55,15.5z" style="fill: rgb(45, 57, 88);"/>
    </g>
  </g>
  <g style="" transform="matrix(1.092847, 0, 0, 1.092847, -1.266137, 77.908195)">
    <g>
      <path d="M286.65,78.5h-109.6c-5.5,0-10,4.5-10,10s4.4,10,10,10h109.6c5.5,0,10-4.5,10-10S292.15,78.5,286.65,78.5z" style="fill: rgb(45, 57, 88);"/>
    </g>
  </g>
  <g style="" transform="matrix(1.092847, 0, 0, 1.092847, -1.266137, 77.908195)">
    <g/>
  </g>
  <g style="" transform="matrix(1.092847, 0, 0, 1.092847, -1.266137, 77.908195)"/>
  <g style="" transform="matrix(1.092847, 0, 0, 1.092847, -1.266137, 77.908195)"/>
  <g style="" transform="matrix(1.092847, 0, 0, 1.092847, -1.266137, 77.908195)"/>
  <g style="" transform="matrix(1.092847, 0, 0, 1.092847, -1.266137, 77.908195)"/>
  <g style="" transform="matrix(1.092847, 0, 0, 1.092847, -1.266137, 77.908195)"/>
  <g style="" transform="matrix(1.092847, 0, 0, 1.092847, -1.266137, 77.908195)"/>
  <g style="" transform="matrix(1.092847, 0, 0, 1.092847, -1.266137, 77.908195)"/>
  <g style="" transform="matrix(1.092847, 0, 0, 1.092847, -1.266137, 77.908195)"/>
  <g style="" transform="matrix(1.092847, 0, 0, 1.092847, -1.266137, 77.908195)"/>
  <g style="" transform="matrix(1.092847, 0, 0, 1.092847, -1.266137, 77.908195)"/>
  <g style="" transform="matrix(1.092847, 0, 0, 1.092847, -1.266137, 77.908195)"/>
  <g style="" transform="matrix(1.092847, 0, 0, 1.092847, -1.266137, 77.908195)"/>
  <g style="" transform="matrix(1.092847, 0, 0, 1.092847, -1.266137, 77.908195)"/>
  <g style="" transform="matrix(1.092847, 0, 0, 1.092847, -1.266137, 77.908195)"/>
  <g style="" transform="matrix(1.092847, 0, 0, 1.092847, -1.266137, 77.908195)"/>
</svg>