<?xml version="1.0" encoding="utf-8"?>
<svg id="_x31_" height="512" viewBox="0 0 24 24" width="512" xmlns="http://www.w3.org/2000/svg">
  <g>
    <path d="m13.5 5c-.276 0-.5-.224-.5-.5v-2c0-.827-.673-1.5-1.5-1.5h-6c-.827 0-1.5.673-1.5 1.5v2c0 .276-.224.5-.5.5s-.5-.224-.5-.5v-2c0-1.378 1.121-2.5 2.5-2.5h6c1.379 0 2.5 1.122 2.5 2.5v2c0 .276-.224.5-.5.5z" style="fill: rgb(45, 57, 88);"/>
  </g>
  <g>
    <path d="m8.5 22h-6c-1.379 0-2.5-1.122-2.5-2.5v-13c0-1.378 1.121-2.5 2.5-2.5h12c1.379 0 2.5 1.122 2.5 2.5v3c0 .276-.224.5-.5.5s-.5-.224-.5-.5v-3c0-.827-.673-1.5-1.5-1.5h-12c-.827 0-1.5.673-1.5 1.5v13c0 .827.673 1.5 1.5 1.5h6c.276 0 .5.224.5.5s-.224.5-.5.5z" style="fill: rgb(45, 57, 88);"/>
  </g>
  <g>
    <path d="m14.5 24c-1.93 0-3.5-1.57-3.5-3.5 0-.935.364-1.814 1.025-2.475l6-6c.662-.661 1.54-1.025 2.475-1.025 1.93 0 3.5 1.57 3.5 3.5 0 .935-.364 1.814-1.025 2.475l-6 6c-.662.661-1.54 1.025-2.475 1.025zm6-12c-.667 0-1.295.26-1.768.732l-6 6c-.472.473-.732 1.1-.732 1.768 0 1.378 1.121 2.5 2.5 2.5.667 0 1.295-.26 1.768-.732l6-6c.472-.473.732-1.1.732-1.768 0-1.378-1.121-2.5-2.5-2.5z" style="fill: rgb(107, 208, 157);"/>
  </g>
  <g>
    <path d="m17 14.5h1v5.999h-1z" transform="matrix(.707 -.707 .707 .707 -7.249 17.5)" style="fill: rgb(107, 208, 157);"/>
  </g>
  <g>
    <path d="m7.5 17h-7c-.276 0-.5-.224-.5-.5s.224-.5.5-.5h7c.827 0 1.5-.673 1.5-1.5v-3c0-.827-.673-1.5-1.5-1.5h-7c-.276 0-.5-.224-.5-.5s.224-.5.5-.5h7c1.379 0 2.5 1.122 2.5 2.5v3c0 1.378-1.121 2.5-2.5 2.5z" style="fill: rgb(45, 57, 88);"/>
  </g>
</svg>