<?xml version="1.0" encoding="utf-8"?>
<svg version="1.1" id="Layer_1" x="0px" y="0px" viewBox="0 0 512 512" style="enable-background:new 0 0 512 512;" xmlns="http://www.w3.org/2000/svg" xmlns:bx="https://boxy-svg.com">
  <g>
    <g>
      <g>
        <path d="M 337.333 251 C 332.729 247.333 326.031 248.083 322.333 252.667 L 290.892 291.969 L 242.272 223.903 C 262.665 216.404 277.333 196.962 277.333 174.001 C 277.333 144.595 253.406 120.668 224 120.668 L 181.333 120.668 C 175.437 120.668 170.666 125.439 170.666 131.335 L 170.666 280.668 C 170.666 286.564 175.437 291.335 181.333 291.335 C 187.229 291.335 192 286.564 192 280.668 L 192 227.335 L 218.514 227.335 L 277.045 309.278 L 237 359.333 C 233.323 363.937 234.073 370.646 238.667 374.333 C 240.636 375.906 242.99 376.666 245.323 376.666 C 248.458 376.666 251.552 375.291 253.667 372.666 L 289.939 327.326 L 321.99 372.197 C 324.073 375.114 327.344 376.666 330.678 376.666 C 332.824 376.666 334.991 376.02 336.866 374.676 C 341.658 371.259 342.772 364.593 339.345 359.801 L 303.786 310.018 L 339 266 C 342.677 261.396 341.927 254.688 337.333 251 Z M 192 206 L 192 142 L 224 142 C 241.646 142 256 156.354 256 174 C 256 191.646 241.646 206 224 206 L 192 206 Z" style="fill: rgb(107, 208, 157);"/>
      </g>
    </g>
  </g>
  <g/>
  <g/>
  <g/>
  <g/>
  <g/>
  <g/>
  <g/>
  <g/>
  <g/>
  <g/>
  <g/>
  <g/>
  <g/>
  <g/>
  <g/>
  <path d="M 430.898 177.856 m -230.009 0 a 230.009 230.009 0 1 0 460.018 0 a 230.009 230.009 0 1 0 -460.018 0 Z M 430.898 177.856 m -206.59 0 a 206.59 206.59 0 0 1 413.18 0 a 206.59 206.59 0 0 1 -413.18 0 Z" style="fill: rgb(45, 57, 88);" transform="matrix(-0.865897, 0.500223, -0.500223, -0.865897, 718.885142, 193.288857)" bx:shape="ring 430.898 177.856 206.59 206.59 230.009 230.009 1@cc17eb5f"/>
</svg>