<?xml version="1.0" encoding="utf-8"?>
<svg viewBox="0 0 511.999 511.999" style="enable-background:new 0 0 511.999 511.999;" xmlns="http://www.w3.org/2000/svg">
  <g>
    <g>
      <path d="M467,301.966c-12.444,0-24.447,5.224-32.932,14.332l-44.087,47.327c-5.698-18.319-22.812-31.659-42.981-31.659h-78.68 c-6.908,0-9.96-3.783-16.954-9.939c-39.625-34.87-100.04-34.93-139.732,0c-7.072,6.223-17.292,9.939-27.339,9.939H15 c-8.284,0-15,6.716-15,15v150c0,8.284,6.716,15,15,15h332c32.874,0,64.275-15.701,83.999-41.999l72.014-96.017 c5.879-7.837,8.986-17.168,8.986-26.983C512,322.153,491.813,301.966,467,301.966z M60,481.966H30v-120h30V481.966z M479.014,355.949L407,451.967c-14.088,18.785-36.518,29.999-59.999,29.999H90v-120.24c15.398-1.222,30.253-7.322,41.453-17.177 c28.531-25.108,71.563-25.107,100.094,0c7.527,6.624,17.626,17.418,36.773,17.418H347c8.271,0,15,6.729,15,15s-6.729,15-15,15 h-91.279c-14.396,0-28.027,6.964-36.463,18.629c-4.855,6.713-3.349,16.09,3.364,20.945c6.713,4.854,16.09,3.349,20.945-3.364 c2.812-3.888,7.356-6.209,12.155-6.209h101.333c12.443,0,24.445-5.222,32.927-14.327l66.038-70.892 c2.872-3.083,6.771-4.78,10.98-4.78c8.271,0,15,6.729,15,15C482,350.239,480.967,353.345,479.014,355.949z" style="fill: rgb(45, 57, 88);"/>
    </g>
  </g>
  <g>
    <g>
      <path d="M488.515,92.035c-3.158-49.12-41.262-90.754-90.007-91.973c-29.905-0.741-55.826,12.817-74.978,39.227 c-1.783,2.459-3.426,4.922-4.936,7.348c-1.51-2.426-3.152-4.889-4.936-7.348c-19.15-26.41-45.077-39.976-74.978-39.227 c-48.299,1.208-87.891,42.653-90.133,94.354c-3.23,74.471,67.913,123.88,160.224,203.885c2.819,2.444,6.321,3.665,9.824,3.665 c3.502,0,7.005-1.222,9.824-3.665C416.114,222.298,493.662,172.106,488.515,92.035z M318.602,267.158 c-86.934-74.752-142.48-116.186-140.083-171.442c1.562-36.005,28.318-64.848,60.914-65.663c19.606-0.49,36.255,8.321,49.46,26.19 c10.797,14.61,15.216,29.917,15.247,30.026c1.795,6.481,7.69,10.953,14.415,10.974c0.017,0,0.031,0,0.048,0 c6.705,0,12.605-4.475,14.437-10.929c0.044-0.153,4.463-15.46,15.26-30.07c13.205-17.869,29.864-26.677,49.46-26.19 c31.852,0.796,58.566,28.867,60.819,63.907C462.517,155.221,396.787,200.101,318.602,267.158z" style="fill: rgb(107, 208, 157);"/>
    </g>
  </g>
  <g/>
  <g/>
  <g/>
  <g/>
  <g/>
  <g/>
  <g/>
  <g/>
  <g/>
  <g/>
  <g/>
  <g/>
  <g/>
  <g/>
  <g/>
</svg>