<?xml version="1.0" encoding="utf-8"?>
<svg fill="none" height="512" viewBox="0 0 24 24" width="512" xmlns="http://www.w3.org/2000/svg">
  <g clip-rule="evenodd" fill="rgb(0,0,0)" fill-rule="evenodd">
    <path d="m6 1c-1.38071 0-2.5 1.11929-2.5 2.5v1.55001c-1.14112.23163-2 1.24051-2 2.44999v10c0 1.3807 1.11929 2.5 2.5 2.5h4c.27614 0 .5-.2239.5-.5s-.22386-.5-.5-.5h-4c-.82843 0-1.5-.6716-1.5-1.5v-1.5h4.5c1.38071 0 2.5-1.1193 2.5-2.5v-2c0-1.3807-1.11929-2.5-2.5-2.5h-4.5v-1.5c0-.82843.67157-1.5 1.5-1.5h10c.8284 0 1.5.67157 1.5 1.5v2c0 .27614.2239.5.5.5s.5-.22386.5-.5v-2c0-1.20948-.8589-2.21836-2-2.44999v-1.55001c0-1.38071-1.1193-2.5-2.5-2.5zm1 14h-4.5v-5h4.5c.82843 0 1.5.6716 1.5 1.5v2c0 .8284-.67157 1.5-1.5 1.5zm6.5-10v-1.5c0-.82843-.6716-1.5-1.5-1.5h-6c-.82843 0-1.5.67157-1.5 1.5v1.5z" style="fill: rgb(45, 57, 88);"/>
    <path d="m14.5 12c-.8284 0-1.5.6716-1.5 1.5v1h-1c-.8284 0-1.5.6716-1.5 1.5v3c0 .8284.6716 1.5 1.5 1.5h1v1c0 .8284.6716 1.5 1.5 1.5h3c.8284 0 1.5-.6716 1.5-1.5v-1h1c.8284 0 1.5-.6716 1.5-1.5v-3c0-.8284-.6716-1.5-1.5-1.5h-1v-1c0-.8284-.6716-1.5-1.5-1.5zm-.5 1.5c0-.2761.2239-.5.5-.5h3c.2761 0 .5.2239.5.5v2h2c.2761 0 .5.2239.5.5v3c0 .2761-.2239.5-.5.5h-2v2c0 .2761-.2239.5-.5.5h-3c-.2761 0-.5-.2239-.5-.5v-2h-2c-.2761 0-.5-.2239-.5-.5v-3c0-.2761.2239-.5.5-.5h2z" style="fill: rgb(107, 208, 157);"/>
  </g>
</svg>