<?xml version="1.0" encoding="utf-8"?>
<svg id="_x31_" height="512" viewBox="0 0 24 24" width="512" xmlns="http://www.w3.org/2000/svg">
  <path d="m13.5 5c-.276 0-.5-.224-.5-.5v-2c0-.827-.673-1.5-1.5-1.5h-6c-.827 0-1.5.673-1.5 1.5v2c0 .276-.224.5-.5.5s-.5-.224-.5-.5v-2c0-1.378 1.122-2.5 2.5-2.5h6c1.378 0 2.5 1.122 2.5 2.5v2c0 .276-.224.5-.5.5z" style="fill: rgb(45, 57, 88);"/>
  <path d="m8.5 22h-6c-1.378 0-2.5-1.122-2.5-2.5v-13c0-1.378 1.122-2.5 2.5-2.5h12c1.378 0 2.5 1.122 2.5 2.5v9c0 .276-.224.5-.5.5s-.5-.224-.5-.5v-9c0-.827-.673-1.5-1.5-1.5h-12c-.827 0-1.5.673-1.5 1.5v13c0 .827.673 1.5 1.5 1.5h6c.276 0 .5.224.5.5s-.224.5-.5.5z" style="fill: rgb(45, 57, 88);"/>
  <path d="M 7.5 17 L 1.193 17.023 C 0.917 17.023 1.029 16.786 1.029 16.51 C 1.029 16.234 0.906 15.992 1.182 15.992 L 7.5 16 C 8.327 16 9 15.327 9 14.5 L 9 11.5 C 9 10.673 8.327 10 7.5 10 L 1.234 10.011 C 0.958 10.011 1.008 9.774 1.008 9.498 C 1.008 9.222 0.948 9 1.224 9 L 7.5 9 C 8.878 9 10 10.122 10 11.5 L 10 14.5 C 10 15.878 8.878 17 7.5 17 Z" style="fill: rgb(107, 208, 157);"/>
  <path d="m20.5 24c-.276 0-.5-.224-.5-.5v-5c0-.276.224-.5.5-.5h1.5c1.103 0 2 .897 2 2s-.897 2-2 2h-1v1.5c0 .276-.224.5-.5.5zm.5-3h1c.551 0 1-.449 1-1s-.449-1-1-1h-1z" style="fill: rgb(107, 208, 157);"/>
  <path d="m23.5 24c-.128 0-.256-.049-.354-.146l-2-2c-.195-.195-.195-.512 0-.707s.512-.195.707 0l2 2c.195.195.195.512 0 .707-.097.097-.225.146-.353.146z" style="fill: rgb(107, 208, 157);"/>
  <path d="m12 24c-.221 0-.416-.145-.479-.356l-1.5-5c-.079-.264.071-.543.335-.623.264-.079.543.071.623.335l1.021 3.404 1.021-3.403c.08-.265.356-.415.623-.335.265.08.415.358.335.623l-1.5 5c-.063.21-.258.355-.479.355z" style="fill: rgb(107, 208, 157);"/>
  <path d="m18.5 24h-2c-.827 0-1.5-.673-1.5-1.5v-3c0-.827.673-1.5 1.5-1.5h2c.276 0 .5.224.5.5s-.224.5-.5.5h-2c-.276 0-.5.224-.5.5v3c0 .276.224.5.5.5h1.5v-1h-.5c-.276 0-.5-.224-.5-.5s.224-.5.5-.5h1c.276 0 .5.224.5.5v2c0 .276-.224.5-.5.5z" style="fill: rgb(107, 208, 157);"/>
</svg>