<?xml version="1.0" encoding="utf-8"?>
<svg id="_x31_" height="512" viewBox="0 0 24 24" width="512" xmlns="http://www.w3.org/2000/svg">
  <path d="M 13.548 5.763 C 13.301 5.763 13.1 5.562 13.1 5.314 L 13.1 3.523 C 13.1 2.781 12.497 2.178 11.757 2.178 L 6.379 2.178 C 5.638 2.178 5.034 2.781 5.034 3.523 L 5.034 5.314 C 5.034 5.562 4.834 5.763 4.587 5.763 C 4.34 5.763 4.139 5.562 4.139 5.314 L 4.139 3.523 C 4.139 2.287 5.144 1.282 6.379 1.282 L 11.757 1.282 C 12.991 1.282 13.996 2.287 13.996 3.523 L 13.996 5.314 C 13.996 5.562 13.796 5.763 13.548 5.763 Z" style="fill: rgb(45, 57, 88);"/>
  <path d="M 9.068 20.998 L 3.691 20.998 C 2.455 20.998 1.45 19.992 1.45 18.758 L 1.45 7.107 C 1.45 5.873 2.455 4.866 3.691 4.866 L 14.444 4.866 C 15.68 4.866 16.685 5.873 16.685 7.107 L 16.69 11.109 C 16.69 11.356 16.452 11.505 16.205 11.505 C 15.957 11.505 15.789 11.299 15.789 11.052 L 15.789 7.107 C 15.789 6.367 15.186 5.763 14.444 5.763 L 3.691 5.763 C 2.949 5.763 2.346 6.367 2.346 7.107 L 2.346 18.758 C 2.346 19.499 2.949 20.101 3.691 20.101 L 9.068 20.101 C 9.315 20.101 9.516 20.302 9.516 20.55 C 9.516 20.797 9.315 20.998 9.068 20.998 Z" style="fill: rgb(45, 57, 88);"/>
  <path d="M 8.171 16.517 L 2.519 16.538 C 2.272 16.538 2.372 16.326 2.372 16.078 C 2.372 15.831 2.262 15.614 2.509 15.614 L 8.171 15.621 C 8.913 15.621 9.516 15.018 9.516 14.276 L 9.516 11.589 C 9.516 10.847 8.913 10.244 8.171 10.244 L 2.556 10.253 C 2.309 10.253 2.353 10.041 2.353 9.794 C 2.353 9.546 2.299 9.348 2.547 9.348 L 8.171 9.348 C 9.407 9.348 10.412 10.353 10.412 11.589 L 10.412 14.276 C 10.412 15.512 9.407 16.517 8.171 16.517 Z" style="fill: rgb(107, 208, 157);"/>
  <path d="M 22.545 12.659 C 22.542 12.622 22.533 12.586 22.519 12.552 C 22.519 12.551 22.519 12.55 22.518 12.549 C 22.518 12.549 22.518 12.548 22.518 12.548 C 22.503 12.513 22.482 12.48 22.458 12.45 C 22.453 12.442 22.447 12.435 22.441 12.429 C 22.417 12.402 22.39 12.375 22.357 12.354 C 22.357 12.354 22.355 12.353 22.354 12.353 C 22.325 12.332 22.291 12.317 22.258 12.306 C 22.25 12.303 22.238 12.301 22.23 12.297 C 22.193 12.287 22.156 12.281 22.115 12.281 L 19.073 12.281 C 18.831 12.281 18.636 12.476 18.636 12.716 C 18.636 12.955 18.831 13.15 19.073 13.15 L 21.066 13.15 L 18.472 15.746 C 17.778 15.193 16.926 14.891 16.027 14.891 C 13.869 14.891 12.112 16.648 12.112 18.804 C 12.112 20.963 13.869 22.719 16.027 22.719 C 18.185 22.719 19.942 20.963 19.942 18.804 C 19.942 17.907 19.639 17.054 19.085 16.361 L 21.681 13.766 L 21.681 15.761 C 21.681 16 21.877 16.196 22.115 16.196 C 22.355 16.196 22.55 16 22.55 15.761 L 22.55 12.716 C 22.55 12.706 22.549 12.697 22.549 12.689 C 22.548 12.678 22.548 12.668 22.545 12.659 Z M 16.027 21.85 C 14.348 21.85 12.982 20.483 12.982 18.804 C 12.982 17.126 14.348 15.761 16.027 15.761 C 16.84 15.761 17.605 16.077 18.179 16.649 C 18.755 17.227 19.073 17.992 19.073 18.804 C 19.073 20.483 17.705 21.85 16.027 21.85 Z M 16.027 21.85" style="fill: rgb(107, 208, 157);"/>
</svg>