<?xml version="1.0" encoding="utf-8"?>
<svg viewBox="0 0 170 170" xmlns="http://www.w3.org/2000/svg">
  <path id="svg_21" d="M 168.962 163.954 L 146.674 141.666 L 148.75 141.666 C 156.564 141.666 162.916 135.31 162.916 127.5 L 162.916 49.584 C 162.916 41.774 156.564 35.416 148.75 35.416 L 131.9 35.416 C 130.036 35.416 128.208 34.662 126.892 33.342 L 111.866 18.316 C 109.232 15.68 105.578 14.166 101.85 14.166 L 68.15 14.166 C 64.42 14.166 60.768 15.682 58.132 18.316 L 43.108 33.342 C 42.262 34.19 41.18 34.698 40.038 35.028 L 6.046 1.038 C 4.662 -0.346 2.42 -0.346 1.038 1.038 C -0.346 2.42 -0.346 4.662 1.038 6.046 L 30.408 35.416 L 21.25 35.416 C 13.436 35.416 7.084 41.774 7.084 49.584 L 7.084 127.5 C 7.084 135.31 13.436 141.666 21.25 141.666 L 136.658 141.666 L 163.954 168.962 C 164.646 169.654 165.552 170 166.458 170 C 167.364 170 168.27 169.654 168.962 168.962 C 170.346 167.578 170.346 165.338 168.962 163.954 Z M 21.25 134.584 C 17.346 134.584 14.166 131.408 14.166 127.5 L 14.166 49.584 C 14.166 45.676 17.346 42.5 21.25 42.5 L 37.492 42.5 L 57.704 62.712 C 52.708 68.82 49.584 76.514 49.584 85 C 49.584 104.528 65.472 120.416 85 120.416 C 93.488 120.416 101.182 117.292 107.288 112.296 L 129.576 134.584 L 21.25 134.584 L 21.25 134.584 Z M 102.282 107.29 C 97.484 111.02 91.534 113.334 85 113.334 C 69.378 113.334 56.666 100.626 56.666 85 C 56.666 78.466 58.98 72.516 62.71 67.718 L 102.282 107.29 Z M 67.718 62.71 C 72.516 58.98 78.466 56.666 85 56.666 C 100.622 56.666 113.334 69.374 113.334 85 C 113.334 91.534 111.02 97.484 107.29 102.282 L 67.718 62.71 Z M 112.296 107.288 C 117.292 101.18 120.416 93.486 120.416 85 C 120.416 65.472 104.528 49.584 85 49.584 C 76.512 49.584 68.818 52.708 62.712 57.704 L 45.412 40.404 C 46.384 39.818 47.31 39.156 48.116 38.35 L 63.14 23.324 C 64.458 22.004 66.284 21.25 68.15 21.25 L 101.85 21.25 C 103.714 21.25 105.54 22.004 106.858 23.324 L 121.882 38.35 C 124.518 40.984 128.17 42.5 131.9 42.5 L 148.75 42.5 C 152.654 42.5 155.834 45.674 155.834 49.582 L 155.834 127.5 C 155.834 131.408 152.654 134.584 148.75 134.584 L 139.592 134.584 L 112.296 107.288 Z"/>
  <circle id="svg_22" r="7.084" cy="56.666" cx="141.666"/>
</svg>