<?xml version="1.0" encoding="utf-8"?>
<svg viewBox="0 0 170 170" xmlns="http://www.w3.org/2000/svg">
  <path id="svg_21" d="M 105.991 104.739 L 100.419 99.167 L 100.938 99.167 C 102.891 99.167 104.479 97.578 104.479 95.625 L 104.479 76.146 C 104.479 74.194 102.891 72.604 100.938 72.604 L 96.725 72.604 C 96.259 72.604 95.802 72.416 95.473 72.085 L 91.717 68.329 C 91.058 67.67 90.145 67.292 89.213 67.292 L 80.788 67.292 C 79.855 67.292 78.942 67.671 78.283 68.329 L 74.527 72.085 C 74.316 72.298 74.045 72.424 73.76 72.507 L 65.262 64.01 C 64.916 63.664 64.355 63.664 64.01 64.01 C 63.664 64.355 63.664 64.916 64.01 65.262 L 71.352 72.604 L 69.063 72.604 C 67.109 72.604 65.521 74.194 65.521 76.146 L 65.521 95.625 C 65.521 97.578 67.109 99.167 69.063 99.167 L 97.915 99.167 L 104.739 105.991 C 104.911 106.164 105.138 106.25 105.364 106.25 C 105.591 106.25 105.818 106.164 105.991 105.991 C 106.337 105.645 106.337 105.084 105.991 104.739 Z M 69.063 97.396 C 68.087 97.396 67.292 96.602 67.292 95.625 L 67.292 76.146 C 67.292 75.169 68.087 74.375 69.063 74.375 L 73.123 74.375 L 78.176 79.428 C 76.927 80.955 76.146 82.879 76.146 85 C 76.146 89.882 80.118 93.854 85 93.854 C 87.122 93.854 89.046 93.073 90.572 91.824 L 96.144 97.396 L 69.063 97.396 L 69.063 97.396 Z M 89.321 90.572 C 88.121 91.505 86.634 92.084 85 92.084 C 81.095 92.084 77.917 88.907 77.917 85 C 77.917 83.367 78.495 81.879 79.428 80.68 L 89.321 90.572 Z M 80.68 79.428 C 81.879 78.495 83.367 77.917 85 77.917 C 88.906 77.917 92.084 81.094 92.084 85 C 92.084 86.634 91.505 88.121 90.572 89.321 L 80.68 79.428 Z M 91.824 90.572 C 93.073 89.045 93.854 87.122 93.854 85 C 93.854 80.118 89.882 76.146 85 76.146 C 82.878 76.146 80.955 76.927 79.428 78.176 L 75.103 73.851 C 75.346 73.704 75.578 73.539 75.779 73.338 L 79.535 69.581 C 79.865 69.251 80.321 69.063 80.788 69.063 L 89.213 69.063 C 89.679 69.063 90.135 69.251 90.465 69.581 L 94.221 73.338 C 94.88 73.996 95.792 74.375 96.725 74.375 L 100.938 74.375 C 101.914 74.375 102.709 75.169 102.709 76.146 L 102.709 95.625 C 102.709 96.602 101.914 97.396 100.938 97.396 L 98.648 97.396 L 91.824 90.572 Z"/>
  <circle id="svg_22" r="1.771" cy="77.917" cx="99.167"/>
</svg>