<?xml version="1.0" encoding="utf-8"?>
<svg viewBox="0 0 255 170" xmlns="http://www.w3.org/2000/svg">
  <path id="svg_21" d="M 148.49 104.739 L 142.918 99.167 L 143.437 99.167 C 145.39 99.167 146.978 97.578 146.978 95.625 L 146.978 76.146 C 146.978 74.194 145.39 72.604 143.437 72.604 L 139.224 72.604 C 138.758 72.604 138.301 72.416 137.972 72.085 L 134.216 68.329 C 133.557 67.67 132.644 67.292 131.712 67.292 L 123.287 67.292 C 122.354 67.292 121.441 67.671 120.782 68.329 L 117.026 72.085 C 116.815 72.298 116.544 72.424 116.259 72.507 L 107.761 64.01 C 107.415 63.664 106.854 63.664 106.509 64.01 C 106.163 64.355 106.163 64.916 106.509 65.262 L 113.851 72.604 L 111.562 72.604 C 109.608 72.604 108.02 74.194 108.02 76.146 L 108.02 95.625 C 108.02 97.578 109.608 99.167 111.562 99.167 L 140.414 99.167 L 147.238 105.991 C 147.41 106.164 147.637 106.25 147.863 106.25 C 148.09 106.25 148.317 106.164 148.49 105.991 C 148.836 105.645 148.836 105.084 148.49 104.739 Z M 111.562 97.396 C 110.586 97.396 109.791 96.602 109.791 95.625 L 109.791 76.146 C 109.791 75.169 110.586 74.375 111.562 74.375 L 115.622 74.375 L 120.675 79.428 C 119.426 80.955 118.645 82.879 118.645 85 C 118.645 89.882 122.617 93.854 127.499 93.854 C 129.621 93.854 131.545 93.073 133.071 91.824 L 138.643 97.396 L 111.562 97.396 L 111.562 97.396 Z M 131.82 90.572 C 130.62 91.505 129.133 92.084 127.499 92.084 C 123.594 92.084 120.416 88.907 120.416 85 C 120.416 83.367 120.994 81.879 121.927 80.68 L 131.82 90.572 Z M 123.179 79.428 C 124.378 78.495 125.866 77.917 127.499 77.917 C 131.405 77.917 134.583 81.094 134.583 85 C 134.583 86.634 134.004 88.121 133.071 89.321 L 123.179 79.428 Z M 134.323 90.572 C 135.572 89.045 136.353 87.122 136.353 85 C 136.353 80.118 132.381 76.146 127.499 76.146 C 125.377 76.146 123.454 76.927 121.927 78.176 L 117.602 73.851 C 117.845 73.704 118.077 73.539 118.278 73.338 L 122.034 69.581 C 122.364 69.251 122.82 69.063 123.287 69.063 L 131.712 69.063 C 132.178 69.063 132.634 69.251 132.964 69.581 L 136.72 73.338 C 137.379 73.996 138.291 74.375 139.224 74.375 L 143.437 74.375 C 144.413 74.375 145.208 75.169 145.208 76.146 L 145.208 95.625 C 145.208 96.602 144.413 97.396 143.437 97.396 L 141.147 97.396 L 134.323 90.572 Z"/>
  <circle id="svg_22" r="1.771" cy="77.917" cx="141.665"/>
</svg>