<?xml version="1.0" encoding="utf-8"?>
<svg viewBox="0 0 170 170" xmlns="http://www.w3.org/2000/svg">
  <path id="svg_21" d="M 126.981 124.477 L 115.837 113.333 L 116.875 113.333 C 120.782 113.333 123.958 110.155 123.958 106.25 L 123.958 67.292 C 123.958 63.387 120.782 60.208 116.875 60.208 L 108.45 60.208 C 107.518 60.208 106.604 59.831 105.946 59.171 L 98.433 51.658 C 97.116 50.34 95.289 49.583 93.425 49.583 L 76.575 49.583 C 74.71 49.583 72.884 50.341 71.566 51.658 L 64.054 59.171 C 63.631 59.595 63.09 59.849 62.519 60.014 L 45.523 43.019 C 44.831 42.327 43.71 42.327 43.019 43.019 C 42.327 43.71 42.327 44.831 43.019 45.523 L 57.704 60.208 L 53.125 60.208 C 49.218 60.208 46.042 63.387 46.042 67.292 L 46.042 106.25 C 46.042 110.155 49.218 113.333 53.125 113.333 L 110.829 113.333 L 124.477 126.981 C 124.823 127.327 125.276 127.5 125.729 127.5 C 126.182 127.5 126.635 127.327 126.981 126.981 C 127.673 126.289 127.673 125.169 126.981 124.477 Z M 53.125 109.792 C 51.173 109.792 49.583 108.204 49.583 106.25 L 49.583 67.292 C 49.583 65.338 51.173 63.75 53.125 63.75 L 61.246 63.75 L 71.352 73.856 C 68.854 76.91 67.292 80.757 67.292 85 C 67.292 94.764 75.236 102.708 85 102.708 C 89.244 102.708 93.091 101.146 96.144 98.648 L 107.288 109.792 L 53.125 109.792 L 53.125 109.792 Z M 93.641 96.145 C 91.242 98.01 88.267 99.167 85 99.167 C 77.189 99.167 70.833 92.813 70.833 85 C 70.833 81.733 71.99 78.758 73.855 76.359 L 93.641 96.145 Z M 76.359 73.855 C 78.758 71.99 81.733 70.833 85 70.833 C 92.811 70.833 99.167 77.187 99.167 85 C 99.167 88.267 98.01 91.242 96.145 93.641 L 76.359 73.855 Z M 98.648 96.144 C 101.146 93.09 102.708 89.243 102.708 85 C 102.708 75.236 94.764 67.292 85 67.292 C 80.756 67.292 76.909 68.854 73.856 71.352 L 65.206 62.702 C 65.692 62.409 66.155 62.078 66.558 61.675 L 74.07 54.162 C 74.729 53.502 75.642 53.125 76.575 53.125 L 93.425 53.125 C 94.357 53.125 95.27 53.502 95.929 54.162 L 103.441 61.675 C 104.759 62.992 106.585 63.75 108.45 63.75 L 116.875 63.75 C 118.827 63.75 120.417 65.337 120.417 67.291 L 120.417 106.25 C 120.417 108.204 118.827 109.792 116.875 109.792 L 112.296 109.792 L 98.648 96.144 Z"/>
  <circle id="svg_22" r="3.542" cy="70.833" cx="113.333"/>
</svg>