<?xml version="1.0" encoding="utf-8"?>
<svg viewBox="0 0 255 170" xmlns="http://www.w3.org/2000/svg">
  <path id="svg_21" d="M 169.481 124.478 L 158.337 113.334 L 159.375 113.334 C 163.281 113.334 166.457 110.156 166.457 106.25 L 166.457 67.292 C 166.457 63.388 163.281 60.208 159.375 60.208 L 150.949 60.208 C 150.017 60.208 149.103 59.832 148.445 59.17 L 140.933 51.658 C 139.615 50.34 137.789 49.584 135.925 49.584 L 119.075 49.584 C 117.209 49.584 115.383 50.342 114.065 51.658 L 106.553 59.17 C 106.131 59.596 105.589 59.848 105.019 60.014 L 88.023 43.02 C 87.331 42.328 86.209 42.328 85.519 43.02 C 84.827 43.71 84.827 44.832 85.519 45.524 L 100.203 60.208 L 95.625 60.208 C 91.717 60.208 88.541 63.388 88.541 67.292 L 88.541 106.25 C 88.541 110.156 91.717 113.334 95.625 113.334 L 153.329 113.334 L 166.977 126.982 C 167.321 127.328 167.775 127.5 168.227 127.5 C 168.681 127.5 169.135 127.328 169.481 126.982 C 170.173 126.29 170.173 125.168 169.481 124.478 Z M 95.625 109.792 C 93.673 109.792 92.083 108.204 92.083 106.25 L 92.083 67.292 C 92.083 65.338 93.673 63.75 95.625 63.75 L 103.745 63.75 L 113.851 73.856 C 111.353 76.91 109.791 80.758 109.791 85 C 109.791 94.764 117.735 102.708 127.499 102.708 C 131.743 102.708 135.591 101.146 138.643 98.648 L 149.787 109.792 L 95.625 109.792 L 95.625 109.792 Z M 136.141 96.144 C 133.741 98.01 130.767 99.168 127.499 99.168 C 119.689 99.168 113.333 92.814 113.333 85 C 113.333 81.734 114.489 78.758 116.355 76.36 L 136.141 96.144 Z M 118.859 73.856 C 121.257 71.99 124.233 70.834 127.499 70.834 C 135.311 70.834 141.667 77.188 141.667 85 C 141.667 88.268 140.509 91.242 138.643 93.642 L 118.859 73.856 Z M 141.147 96.144 C 143.645 93.09 145.207 89.244 145.207 85 C 145.207 75.236 137.263 67.292 127.499 67.292 C 123.255 67.292 119.409 68.854 116.355 71.352 L 107.705 62.702 C 108.191 62.408 108.655 62.078 109.057 61.676 L 116.569 54.162 C 117.229 53.502 118.141 53.126 119.075 53.126 L 135.925 53.126 C 136.857 53.126 137.769 53.502 138.429 54.162 L 145.941 61.676 C 147.259 62.992 149.083 63.75 150.949 63.75 L 159.375 63.75 C 161.327 63.75 162.917 65.338 162.917 67.292 L 162.917 106.25 C 162.917 108.204 161.327 109.792 159.375 109.792 L 154.795 109.792 L 141.147 96.144 Z"/>
  <circle id="svg_22" r="3.542" cy="70.833" cx="155.831"/>
</svg>