<?xml version="1.0" encoding="utf-8"?>
<svg viewBox="0 0 255 170" xmlns="http://www.w3.org/2000/svg">
  <path id="svg_21" d="M 190.472 144.216 L 173.755 127.5 L 175.313 127.5 C 181.172 127.5 185.936 122.733 185.936 116.874 L 185.936 58.437 C 185.936 52.581 181.172 47.811 175.313 47.811 L 162.674 47.811 C 161.276 47.811 159.905 47.247 158.918 46.254 L 147.65 34.986 C 145.673 33.009 142.933 31.875 140.138 31.875 L 114.863 31.875 C 112.064 31.875 109.325 33.012 107.348 34.986 L 96.08 46.254 C 95.447 46.893 94.634 47.271 93.779 47.52 L 68.284 22.029 C 67.247 20.991 65.564 20.991 64.529 22.029 C 63.491 23.064 63.491 24.747 64.529 25.785 L 86.555 47.811 L 79.688 47.811 C 73.826 47.811 69.062 52.581 69.062 58.437 L 69.062 116.874 C 69.062 122.733 73.826 127.5 79.688 127.5 L 166.244 127.5 L 186.716 147.972 C 187.231 148.491 187.913 148.749 188.591 148.749 C 189.272 148.749 189.953 148.491 190.472 147.972 C 191.51 146.934 191.51 145.251 190.472 144.216 Z M 79.688 122.187 C 76.76 122.187 74.375 119.805 74.375 116.874 L 74.375 58.437 C 74.375 55.506 76.76 53.124 79.688 53.124 L 91.868 53.124 L 107.027 68.283 C 103.279 72.864 100.937 78.636 100.937 84.999 C 100.937 99.645 112.853 111.561 127.498 111.561 C 133.865 111.561 139.637 109.218 144.215 105.471 L 160.931 122.187 L 79.688 122.187 L 79.688 122.187 Z M 140.462 101.715 C 136.862 104.514 132.401 106.251 127.498 106.251 C 115.784 106.251 106.25 96.72 106.25 84.999 C 106.25 80.1 107.983 75.636 110.783 72.039 L 140.462 101.715 Z M 114.539 68.283 C 118.136 65.484 122.6 63.75 127.498 63.75 C 139.217 63.75 148.751 73.281 148.751 84.999 C 148.751 89.901 147.013 94.362 144.215 97.962 L 114.539 68.283 Z M 147.971 101.715 C 151.718 97.134 154.061 91.365 154.061 84.999 C 154.061 70.353 142.145 58.437 127.498 58.437 C 121.133 58.437 115.364 60.78 110.783 64.527 L 97.808 51.552 C 98.536 51.111 99.233 50.616 99.836 50.013 L 111.104 38.742 C 112.094 37.752 113.462 37.188 114.863 37.188 L 140.138 37.188 C 141.536 37.188 142.904 37.752 143.894 38.742 L 155.162 50.013 C 157.138 51.987 159.875 53.124 162.674 53.124 L 175.313 53.124 C 178.241 53.124 180.626 55.506 180.626 58.437 L 180.626 116.874 C 180.626 119.805 178.241 122.187 175.313 122.187 L 168.443 122.187 L 147.971 101.715 Z"/>
  <circle id="svg_22" r="5.313" cy="63.748" cx="169.996"/>
</svg>