<?xml version="1.0" encoding="utf-8"?>
<svg viewBox="0 0 100 100" xmlns="http://www.w3.org/2000/svg">
  <path id="svg_21" d="M 99.389 96.444 L 86.279 83.334 L 87.5 83.334 C 92.096 83.334 95.833 79.595 95.833 74.999 L 95.833 29.166 C 95.833 24.573 92.096 20.832 87.5 20.832 L 77.587 20.832 C 76.492 20.832 75.416 20.389 74.642 19.611 L 65.804 10.773 C 64.254 9.222 62.105 8.333 59.913 8.333 L 40.088 8.333 C 37.894 8.333 35.745 9.224 34.195 10.773 L 25.357 19.611 C 24.86 20.112 24.222 20.408 23.552 20.603 L 3.557 0.611 C 2.742 -0.203 1.422 -0.203 0.611 0.611 C -0.203 1.422 -0.203 2.742 0.611 3.557 L 17.886 20.832 L 12.5 20.832 C 7.902 20.832 4.166 24.573 4.166 29.166 L 4.166 74.999 C 4.166 79.595 7.902 83.334 12.5 83.334 L 80.387 83.334 L 96.444 99.389 C 96.848 99.797 97.383 99.999 97.915 99.999 C 98.448 99.999 98.983 99.797 99.389 99.389 C 100.204 98.576 100.204 97.256 99.389 96.444 Z M 12.5 79.166 C 10.203 79.166 8.333 77.298 8.333 74.999 L 8.333 29.166 C 8.333 26.867 10.203 24.999 12.5 24.999 L 22.053 24.999 L 33.942 36.888 C 31.003 40.481 29.166 45.008 29.166 49.999 C 29.166 61.486 38.512 70.833 49.999 70.833 C 54.993 70.833 59.519 68.995 63.109 66.056 L 76.22 79.166 L 12.5 79.166 L 12.5 79.166 Z M 60.166 63.109 C 57.343 65.305 53.844 66.667 49.999 66.667 C 40.811 66.667 33.333 59.193 33.333 49.999 C 33.333 46.157 34.694 42.656 36.888 39.835 L 60.166 63.109 Z M 39.835 36.888 C 42.656 34.694 46.157 33.333 49.999 33.333 C 59.189 33.333 66.667 40.808 66.667 49.999 C 66.667 53.844 65.305 57.343 63.109 60.166 L 39.835 36.888 Z M 66.056 63.109 C 68.995 59.517 70.833 54.993 70.833 49.999 C 70.833 38.512 61.486 29.166 49.999 29.166 C 45.006 29.166 40.481 31.003 36.888 33.942 L 26.712 23.766 C 27.283 23.42 27.829 23.032 28.302 22.559 L 37.14 13.719 C 37.917 12.942 38.989 12.5 40.088 12.5 L 59.913 12.5 C 61.008 12.5 62.081 12.942 62.858 13.719 L 71.696 22.559 C 73.246 24.107 75.393 24.999 77.587 24.999 L 87.5 24.999 C 89.797 24.999 91.667 26.867 91.667 29.166 L 91.667 74.999 C 91.667 77.298 89.797 79.166 87.5 79.166 L 82.113 79.166 L 66.056 63.109 Z"/>
  <circle id="svg_22" r="4.167" cy="33.332" cx="83.332"/>
</svg>