<?xml version="1.0" encoding="utf-8"?>
<svg id="Capa_1" enable-background="new 0 0 512 512" height="512" viewBox="0 0 512 512" width="512" xmlns="http://www.w3.org/2000/svg">
  <g>
    <path d="m488.789 479.399h-88.789l32-63.088 64-32.881v88.758c0 3.983-3.229 7.211-7.211 7.211z" style="fill: rgba(107, 208, 158, 0.5);"/>
    <path d="m496 117.091h-480v355.091c0 3.983 3.229 7.211 7.211 7.211h376.789l96-95.97z" style="fill: rgba(107, 208, 158, 0.48);"/>
    <path d="m36 472.182v-355.091h-20v355.091c0 3.983 3.229 7.211 7.211 7.211h20c-3.982.001-7.211-3.228-7.211-7.211z" style="fill: rgb(107, 208, 157);"/>
    <path d="m505 128.601h-498c-3.866 0-7-3.134-7-7v-50c0-3.866 3.134-7 7-7h498c3.866 0 7 3.134 7 7v50c0 3.866-3.134 7-7 7z" style="fill: rgb(45, 57, 88);"/>
    <path d="m20 121.601v-50c0-3.866 3.134-7 7-7h-20c-3.866 0-7 3.134-7 7v50c0 3.866 3.134 7 7 7h20c-3.866 0-7-3.134-7-7z" style="fill: rgb(45, 57, 88);"/>
    <g>
      <g fill="#938493">
        <path d="m64.469 96.601h-.938c-8.577 0-15.531-6.954-15.531-15.531v-32.938c0-8.578 6.954-15.531 15.531-15.531h.938c8.577 0 15.531 6.953 15.531 15.531v32.938c0 8.577-6.954 15.531-15.531 15.531z" style="fill: rgb(217, 217, 217);"/>
        <path d="m160.469 96.601h-.938c-8.578 0-15.531-6.954-15.531-15.531v-32.938c0-8.578 6.954-15.531 15.531-15.531h.938c8.578 0 15.531 6.954 15.531 15.531v32.938c0 8.577-6.954 15.531-15.531 15.531z" style="fill: rgb(217, 217, 217);"/>
        <path d="m256.469 96.601h-.938c-8.578 0-15.531-6.954-15.531-15.531v-32.938c0-8.578 6.954-15.531 15.531-15.531h.938c8.578 0 15.531 6.954 15.531 15.531v32.938c0 8.577-6.954 15.531-15.531 15.531z" style="fill: rgb(217, 217, 217);"/>
        <path d="m352.469 96.601h-.938c-8.578 0-15.531-6.954-15.531-15.531v-32.938c0-8.578 6.954-15.531 15.531-15.531h.938c8.578 0 15.531 6.954 15.531 15.531v32.938c0 8.577-6.954 15.531-15.531 15.531z" style="fill: rgb(217, 217, 217);"/>
        <path d="m448.469 96.601h-.938c-8.578 0-15.531-6.954-15.531-15.531v-32.938c0-8.578 6.954-15.531 15.531-15.531h.938c8.578 0 15.531 6.954 15.531 15.531v32.938c0 8.577-6.954 15.531-15.531 15.531z" style="fill: rgb(217, 217, 217);"/>
      </g>
    </g>
    <g fill="#7b6c79">
      <path d="m63 81.07v-32.938c0-6.044 3.477-11.277 8.517-13.843-2.113-1.076-4.515-1.688-7.048-1.688h-.938c-8.578 0-15.531 6.953-15.531 15.531v32.938c0 8.578 6.953 15.531 15.531 15.531h.938c2.534 0 4.935-.612 7.048-1.688-5.04-2.567-8.517-7.799-8.517-13.843z" style="fill: rgb(171, 171, 171);"/>
      <path d="m159 81.07v-32.938c0-6.044 3.483-11.273 8.523-13.84-2.113-1.076-4.521-1.691-7.054-1.691h-.938c-8.578 0-15.531 6.953-15.531 15.531v32.938c0 8.578 6.953 15.531 15.531 15.531h.938c2.534 0 4.932-.61 7.045-1.686-5.04-2.567-8.514-7.801-8.514-13.845z" style="fill: rgb(171, 171, 171);"/>
      <path d="m255 81.07v-32.938c0-6.044 3.473-11.279 8.513-13.845-2.113-1.076-4.511-1.686-7.044-1.686h-.938c-8.578 0-15.531 6.953-15.531 15.531v32.938c0 8.578 6.953 15.531 15.531 15.531h.938c2.534 0 4.931-.61 7.044-1.686-5.04-2.567-8.513-7.801-8.513-13.845z" style="fill: rgb(171, 171, 171);"/>
      <path d="m351 81.07v-32.938c0-6.044 3.474-11.278 8.515-13.845-2.113-1.076-4.512-1.686-7.046-1.686h-.938c-8.578 0-15.531 6.953-15.531 15.531v32.938c0 8.578 6.953 15.531 15.531 15.531h.938c2.534 0 4.933-.61 7.046-1.686-5.041-2.568-8.515-7.801-8.515-13.845z" style="fill: rgb(171, 171, 171);"/>
      <path d="m447 81.07v-32.938c0-6.044 3.479-11.275 8.519-13.842-2.113-1.076-4.517-1.689-7.051-1.689h-.938c-8.578 0-15.531 6.953-15.531 15.531v32.938c0 8.578 6.953 15.531 15.531 15.531h.938c2.534 0 4.938-.613 7.051-1.689-5.04-2.567-8.519-7.798-8.519-13.842z" style="fill: rgb(171, 171, 171);"/>
    </g>
    <path d="m496 383.43h-88.789c-3.983 0-7.211 3.229-7.211 7.211v88.758z" style="fill: rgb(107, 208, 157);"/>
    <path d="m256 195.376c-61.856 0-112 50.144-112 112s50.144 112 112 112 112-50.144 112-112-50.144-112-112-112zm79.755 112c0 16.214-4.876 31.305-13.22 43.908l-110.443-110.443c12.603-8.345 27.694-13.22 43.908-13.22 43.977 0 79.755 35.778 79.755 79.755zm-159.51 0c0-16.214 4.876-31.305 13.22-43.908l110.443 110.443c-12.603 8.345-27.694 13.22-43.908 13.22-43.977 0-79.755-35.778-79.755-79.755z" fill="#f45d5d"/>
    <path d="m361.664 215.695-12.326 22.627-126.243 126.244-54.776 44.474-17.983-17.983 44.475-54.776 126.243-126.243 22.627-12.325z" fill="#f2fbff"/>
    <path d="m170.336 391.057 34.475-44.776 136.243-136.243 9.68-5.273-7.053-7.052-22.627 12.325-126.243 126.243-44.475 54.776 17.983 17.983 11.038-8.962z" fill="#dff6fd"/>
    <path d="m367.016 220.645-17.678 17.678-28.284-28.284 17.678-17.678c2.734-2.734 7.166-2.734 9.899 0l18.385 18.385c2.733 2.733 2.733 7.165 0 9.899z" fill="#f45d5d"/>
    <path d="m353.681 197.411-5.05-5.05c-2.734-2.734-7.166-2.734-9.9 0l-17.678 17.678 10 10z" fill="#db4d4d"/>
    <path d="m223.095 364.566-49.826 49.826c-2.734 2.734-7.166 2.734-9.899 0l-18.385-18.385c-2.734-2.734-2.734-7.166 0-9.9l49.826-49.826z" fill="#f6a96c"/>
    <path d="m164.984 396.007c-2.734-2.734-2.734-7.166 0-9.899l39.826-39.826-10-10-49.826 49.826c-2.734 2.734-2.734 7.166 0 9.899l18.385 18.385c2.734 2.734 7.166 2.734 9.899 0l5.05-5.05z" fill="#ea9b58"/>
    <path d="m240 211.376h32v192h-32z" fill="#f45d5d" transform="matrix(.707 -.707 .707 .707 -142.367 271.048)"/>
  </g>
</svg>