<svg id="Capa_1" enable-background="new 0 0 512 512" height="512" viewBox="0 0 512 512" width="512" xmlns="http://www.w3.org/2000/svg"><g><path d="m338.574 174.623 149.942 86.569 15.723 15.101-21.974 45.697-26.156-4.668-138.325-79.862c-2.396-1.383-3.804-4.001-3.638-6.762l1.797-29.94c.068-1.132.398-2.232.965-3.214l11.69-20.247c2.016-3.494 6.483-4.691 9.976-2.674z" fill="#f2fbff"/><path d="m476.109 317.322-138.325-79.862c-2.396-1.383-3.804-4.001-3.638-6.762l1.797-29.94c.068-1.132.398-2.232.965-3.214l10.341-17.912-8.675-5.009c-3.493-2.017-7.959-.82-9.976 2.673l-11.69 20.247c-.567.982-.897 2.082-.965 3.214l-1.797 29.94c-.166 2.761 1.243 5.379 3.638 6.762l138.326 79.862 26.156 4.668 1.581-3.287z" fill="#dff6fd"/><path d="m456.109 317.322 32.407-56.13 19.831 11.45c3.493 2.017 4.69 6.483 2.673 9.976l-25.104 43.481c-2.017 3.493-6.483 4.69-9.976 2.673z" fill="#f45d5d"/><path d="m461.109 308.662-5 8.66 19.831 11.449c3.493 2.017 7.959.82 9.976-2.673l1.349-2.336z" fill="#db4d4d"/><path d="m229.989 221.943-103.781 59.917-96.473 45.266-21.974-45.697 86.041-55.699 93.657-54.073c3.493-2.017 7.959-.82 9.976 2.673l11.69 20.247c.567.982 1.355 1.818 2.301 2.443l18.936 12.503c4.53 2.992 4.329 9.705-.373 12.42z" fill="#f2fbff"/><path d="m230.362 209.524-6.299-4.159-97.854 56.496-96.474 45.266-14.64-30.445-7.334 4.748 21.974 45.697 96.474-45.266 103.781-59.918c4.701-2.715 4.902-9.428.372-12.419z" fill="#dff6fd"/><path d="m93.802 225.73 32.407 56.13-90.149 52.048c-3.493 2.017-7.959.82-9.976-2.673l-25.104-43.481c-2.017-3.493-.82-7.959 2.673-9.976z" fill="#f6a96c"/><path d="m36.059 313.908c-3.493 2.017-7.959.82-9.976-2.673l-20.095-34.806-2.336 1.349c-3.493 2.017-4.69 6.483-2.673 9.976l25.104 43.481c2.017 3.493 6.483 4.69 9.976 2.673l90.149-52.047-8.66-15z" fill="#ea9b58"/><g><g><g><path d="m254.479 158.794c-2.003 0-4.005-.764-5.533-2.292l-32.407-32.407c-3.056-3.055-3.056-8.01 0-11.066 3.055-3.055 8.01-3.055 11.066 0l32.407 32.407c3.056 3.055 3.056 8.01 0 11.066-1.528 1.528-3.531 2.292-5.533 2.292z" fill="#938493"/></g><g><path d="m286.885 142.59c-2.003 0-4.005-.764-5.533-2.292-3.056-3.055-3.056-8.01 0-11.066l32.407-32.407c3.055-3.055 8.01-3.055 11.066 0s3.056 8.01 0 11.066l-32.407 32.407c-1.528 1.528-3.53 2.292-5.533 2.292z" fill="#938493"/></g></g></g><g fill="#f6a96c"><path d="m254.478 288.421c-4.321 0-7.825-3.503-7.825-7.825 0-4.321 3.503-7.825 7.825-7.825 4.321 0 7.825 3.503 7.825 7.825 0 4.321-3.503 7.825-7.825 7.825z"/><path d="m286.885 336.74c-4.321 0-7.825-3.503-7.825-7.825 0-4.321 3.503-7.825 7.825-7.825 4.322 0 7.825 3.503 7.825 7.825 0 4.321-3.503 7.825-7.825 7.825z"/><path d="m286.885 417.465c-4.321 0-7.825-3.503-7.825-7.825 0-4.321 3.503-7.824 7.825-7.824 4.322 0 7.825 3.503 7.825 7.824 0 4.322-3.503 7.825-7.825 7.825z"/><path d="m222.072 320.827c-4.321 0-7.825-3.503-7.825-7.825 0-4.321 3.503-7.825 7.825-7.825 4.321 0 7.825 3.503 7.825 7.825-.001 4.322-3.504 7.825-7.825 7.825z"/><path d="m254.478 369.436c-4.321 0-7.825-3.503-7.825-7.825 0-4.321 3.503-7.825 7.825-7.825 4.321 0 7.825 3.503 7.825 7.825 0 4.322-3.503 7.825-7.825 7.825z"/><path d="m319.292 369.437c-4.321 0-7.825-3.503-7.825-7.825 0-4.321 3.503-7.824 7.825-7.824 4.321 0 7.825 3.503 7.825 7.824-.001 4.322-3.504 7.825-7.825 7.825z"/><path d="m319.292 304.624c-4.321 0-7.825-3.503-7.825-7.825 0-4.321 3.503-7.824 7.825-7.824 4.321 0 7.825 3.503 7.825 7.824-.001 4.322-3.504 7.825-7.825 7.825z"/><path d="m286.885 256.014c-4.321 0-7.825-3.503-7.825-7.825 0-4.321 3.503-7.825 7.825-7.825 4.322 0 7.825 3.503 7.825 7.825 0 4.321-3.503 7.825-7.825 7.825z"/></g></g></svg>
