<?xml version="1.0" encoding="utf-8"?>
<svg id="Layer_1" enable-background="new 0 0 480 480" height="512" viewBox="0 0 480 480" width="512" xmlns="http://www.w3.org/2000/svg">
  <g>
    <path d="m213.129 56h126.871c4.418 0 8-3.582 8-8s-3.582-8-8-8h-21v-8c0-8.822 7.178-16 16-16h10c8.822 0 16 7.178 16 16v42c0 6.017-3.342 11.263-8.263 13.995-.891-3.446-4.012-5.995-7.737-5.995-4.418 0-8 3.582-8 8v16c0 4.418 3.582 8 8 8s8-3.582 8-8v-1.013c13.786-3.561 24-16.104 24-30.987v-42c0-17.645-14.355-32-32-32h-10c-17.645 0-32 14.355-32 32v8h-89.871c-4.418 0-8 3.582-8 8s3.581 8 8 8z" style="fill: rgb(45, 57, 88);"/>
    <path d="m418 40h-12.5c-4.418 0-8 3.582-8 8s3.582 8 8 8h12.5c8.822 0 16 7.178 16 16v63h-338.484c-4.418 0-8 3.582-8 8s3.582 8 8 8h346.484c4.418 0 8-3.582 8-8v-71c0-17.645-14.355-32-32-32z" style="fill: rgb(45, 57, 88);"/>
    <path d="m442 187.839c-4.418 0-8 3.582-8 8v252.161c0 8.822-7.178 16-16 16h-356c-8.822 0-16-7.178-16-16v-376c0-8.822 7.178-16 16-16h76c4.418 0 8-3.582 8-8s-3.582-8-8-8h-19v-8c0-8.822 7.178-16 16-16h10c8.822 0 16 7.178 16 16v42c0 6.017-3.342 11.263-8.263 13.995-.891-3.446-4.012-5.995-7.737-5.995-4.418 0-8 3.582-8 8v16c0 4.418 3.582 8 8 8s8-3.582 8-8v-1.013c13.786-3.561 24-16.104 24-30.987v-42c0-17.645-14.355-32-32-32h-10c-17.645 0-32 14.355-32 32v8h-41c-17.645 0-32 14.355-32 32v376c0 17.645 14.355 32 32 32h356c17.645 0 32-14.355 32-32v-252.161c0-4.419-3.582-8-8-8z" style="fill: rgb(45, 57, 88);"/>
    <path d="m188.604 272.062c-.772-.091 4.509-.062-85.604-.062-4.418 0-8 3.582-8 8v50c0 4.418 3.582 8 8 8h51.032c4.418 0 8-3.582 8-8s-3.582-8-8-8h-43.032v-34h65.226c-11.182 41.977 20.638 83 63.774 83 24.375 0 45.691-13.293 57.121-33h79.879c4.418 0 8-3.582 8-8v-50c0-4.418-3.582-8-8-8h-53.419c-4.418 0-8 3.582-8 8s3.582 8 8 8h45.419v34h-65.231c11.199-41.968-20.633-83-63.769-83-10.48 0-20.504 2.387-29.794 7.094-3.941 1.997-5.518 6.811-3.521 10.752s6.812 5.519 10.752 3.521c33.017-16.729 72.563 7.328 72.563 44.633 0 27.57-22.43 50-50 50-36.825 0-60.895-38.607-45.134-71.547 2.318-4.842-.744-10.726-6.262-11.391z" style="fill: rgb(107, 208, 157);"/>
    <path d="m217.343 327.657c3.125 3.125 8.189 3.124 11.313 0l11.344-11.344 11.343 11.343c3.125 3.125 8.189 3.124 11.313 0 3.125-3.124 3.125-8.189 0-11.313l-11.343-11.343 11.343-11.343c3.125-3.124 3.125-8.189 0-11.313-3.124-3.124-8.189-3.124-11.313 0l-11.343 11.343-11.343-11.343c-3.124-3.124-8.189-3.124-11.313 0-3.125 3.124-3.125 8.189 0 11.313l11.343 11.343-11.343 11.343c-3.125 3.124-3.125 8.19-.001 11.314z" style="fill: rgb(107, 208, 157);"/>
  </g>
</svg>
