<?xml version="1.0" encoding="utf-8"?>
<svg id="Capa_1" enable-background="new 0 0 512 512" height="512" viewBox="0 0 512 512" width="512" xmlns="http://www.w3.org/2000/svg">
  <g transform="matrix(1, 0, 0, 1, 0.168734, -33.327969)">
    <path d="m256 451c63.411 0 115-51.589 115-115s-51.589-115-115-115-115 51.589-115 115 51.589 115 115 115zm0-200c46.869 0 85 38.131 85 85 0 18.028-5.658 34.75-15.268 48.52l-45.303-45.303 26.372-15.226c7.174-4.142 9.632-13.316 5.49-20.49-4.142-7.174-13.316-9.632-20.49-5.49l-33.334 19.245-50.987-50.987c13.77-9.611 30.493-15.269 48.52-15.269zm-69.732 36.48 45.303 45.303-26.372 15.226c-7.174 4.142-9.632 13.316-5.49 20.49 4.142 7.174 13.316 9.632 20.49 5.49l33.333-19.245 50.987 50.987c-13.769 9.611-30.492 15.269-48.519 15.269-46.869 0-85-38.131-85-85 0-18.028 5.658-34.75 15.268-48.52z" style="fill: rgb(107, 208, 157);"/>
    <path d="M 446 60 L 421 60 L 331 60 L 301 60 L 211 60 L 181 60 L 91 60 L 66 60 C 46.701 60 31 75.701 31 95 L 31 477 C 31 496.299 46.701 512 66 512 L 446 512 C 465.299 512 481 496.299 481 477 L 481 95 C 481 75.701 465.299 60 446 60 Z M 361 60 L 391 60 L 361 60 Z M 241 60 L 271 60 L 241 60 Z M 121 60 L 151 60 L 121 60 Z M 451 477 C 451 479.757 448.757 482 446 482 L 66 482 C 63.243 482 61 479.757 61 477 L 61 190 L 451 190 L 451 477 Z M 451 160 L 61 160 L 61 95 C 61 92.243 63.243 90 66 90 L 151 90 L 151 115 C 151 123.284 157.716 130 166 130 C 174.284 130 181 123.284 181 115 L 181 90 L 271 90 L 271 115 C 271 123.284 277.716 130 286 130 C 294.284 130 301 123.284 301 115 L 301 90 L 391 90 L 391 115 C 391 123.284 397.716 130 406 130 C 414.284 130 421 123.284 421 115 L 421 90 L 446 90 C 448.757 90 451 92.243 451 95 L 451 160 Z" style="fill: rgb(45, 57, 88);"/>
  </g>
</svg>