<?xml version="1.0" encoding="utf-8"?>
<svg id="Capa_1" enable-background="new 0 0 512 512" height="512" viewBox="0 0 512 512" width="512" xmlns="http://www.w3.org/2000/svg">
  <path d="M 125.784 459.043 L 173.981 494.778 C 180.59 499.679 189.999 498.357 194.964 491.662 L 373.64 250.675 C 378.569 244.025 377.179 234.625 370.524 229.692 C 353.484 217.058 337.804 219.385 326.355 221.086 C 316.063 222.614 311.232 223.076 304.459 218.055 C 297.804 213.121 288.41 214.517 283.476 221.171 L 122.668 438.06 C 117.734 444.715 119.129 454.109 125.784 459.043 Z M 299.91 249.377 C 311.714 253.59 322.373 252.007 330.762 250.761 C 333.021 250.426 335.017 250.141 336.828 249.955 L 233.402 389.45 L 209.303 371.582 Z M 191.436 395.681 L 215.535 413.549 L 179.8 461.746 L 155.701 443.878 Z" style="fill: rgb(107, 208, 157);" transform="matrix(0.593815, 0.804601, -0.804601, 0.593815, 387.568194, -54.893715)"/>
  <g>
    <path d="m316 256.004h60c8.271 0 15 6.729 15 15 0 8.284 6.716 15 15 15s15-6.716 15-15c0-24.813-20.187-45-45-45h-60c-8.271 0-15-6.727-15-15 0-8.284-6.716-14.998-15-14.998s-15 6.718-15 15.002c0 24.811 20.187 44.996 45 44.996z" style="fill: rgb(107, 208, 157);"/>
    <path d="M 497 46.004 L 406 46.004 L 406 31.004 C 406 22.72 399.284 16.004 391 16.004 C 382.716 16.004 376 22.72 376 31.004 L 376 46.004 L 316 46.004 L 316 31.004 C 316 22.72 309.284 16.004 301 16.004 C 292.716 16.004 286 22.72 286 31.004 L 286 46.004 L 226 46.004 L 226 31.004 C 226 22.72 219.284 16.004 211 16.004 C 202.716 16.004 196 22.72 196 31.004 L 196 46.004 L 136 46.004 L 136 31.004 C 136 22.72 129.284 16.004 121 16.004 C 112.716 16.004 106 22.72 106 31.004 L 106 46.004 L 15 46.004 C 6.716 46.004 0 52.72 0 61.004 L 0 481.004 C 0 489.288 6.716 495.994 15 495.994 L 496.946 495.994 C 496.959 495.994 496.973 495.995 496.986 495.995 C 505.019 495.995 511.983 489.497 511.998 481.042 C 511.998 481.029 512 481.016 512 481.003 C 512 469.32 512 72.056 512 61.003 C 512 52.72 505.284 46.004 497 46.004 Z M 30 466.004 L 30 179.453 L 185.63 286.005 L 317.084 376.005 L 448.539 466.005 L 30 466.005 L 30 466.004 Z M 273.266 346.004 L 229.448 316.004 L 273.266 346.004 Z M 282.552 316.004 L 326.37 346.004 L 282.552 316.004 Z M 482 452.556 L 370.188 376.004 L 238.734 286.004 L 63.461 166.004 L 482 166.004 L 482 452.556 Z M 482 136.004 L 30 136.004 L 30 76.004 L 106 76.004 L 106 91.004 C 106 99.288 112.716 106.004 121 106.004 C 129.284 106.004 136 99.288 136 91.004 L 136 76.004 L 196 76.004 L 196 91.004 C 196 99.288 202.716 106.004 211 106.004 C 219.284 106.004 226 99.288 226 91.004 L 226 76.004 L 286 76.004 L 286 91.004 C 286 99.288 292.716 106.004 301 106.004 C 309.284 106.004 316 99.288 316 91.004 L 316 76.004 L 376 76.004 L 376 91.004 C 376 99.288 382.716 106.004 391 106.004 C 399.284 106.004 406 99.288 406 91.004 L 406 76.004 L 482 76.004 L 482 136.004 Z" style="fill: rgb(45, 57, 88);"/>
  </g>
</svg>
