<?xml version="1.0" encoding="utf-8"?>
<svg version="1.1" id="Capa_1" x="0px" y="0px" viewBox="0 0 511.999 511.999" style="enable-background:new 0 0 511.999 511.999;" xmlns="http://www.w3.org/2000/svg">
  <g>
    <g>
      <path d="M267.803,273.235c-0.064-2.841-1.726-5.402-4.293-6.618l-16.306-7.714l-0.447-20.709 c-0.052-2.411-1.259-4.649-3.245-6.016c-1.986-1.366-4.508-1.695-6.778-0.884L10.292,312.272 c-8.056,2.881-12.266,11.779-9.385,19.835l16.196,45.288c1.396,3.902,4.227,7.028,7.974,8.801 c2.107,0.997,4.362,1.499,6.626,1.499c1.761,0,3.528-0.304,5.235-0.914l226.441-80.978c3.04-1.087,5.043-3.997,4.973-7.225 L267.803,273.235z M31.885,372.657c-0.05,0.018-0.202,0.072-0.394-0.02c-0.193-0.091-0.248-0.243-0.266-0.293l-16.196-45.288 c-0.096-0.268,0.044-0.564,0.312-0.66l113.707-40.663l16.543,46.26L31.885,372.657z M205.003,310.747l-8.272-23.13 c-1.395-3.901-5.688-5.931-9.587-4.537c-3.9,1.395-5.932,5.688-4.537,9.587l8.272,23.13l-31.164,11.145l-16.543-46.26 l88.812-31.76l0.323,14.939c0.061,2.841,1.722,5.403,4.291,6.618l16.307,7.714l0.333,15.304L205.003,310.747z" style="fill: rgb(45, 57, 88);"/>
    </g>
  </g>
  <g>
    <g>
      <path d="M494.498,342.48l-193.703-51.39c-3.123-0.83-6.42,0.434-8.192,3.131L278.69,315.4c-0.393,0.598-0.702,1.261-0.91,1.945 c-0.606,1.993-0.356,4.148,0.69,5.95l9.058,15.596l-11.37,17.314c-1.323,2.015-1.597,4.543-0.736,6.795 c0.861,2.251,2.752,3.952,5.082,4.57l193.703,51.391c2.015,0.535,4.037,0.79,6.03,0.79c10.411,0,19.958-6.973,22.75-17.5 l8.223-30.993C514.536,358.718,507.04,345.807,494.498,342.48z M447.559,396.375l-153.151-40.633l8.203-12.491 c1.559-2.374,1.643-5.426,0.216-7.883l-9.059-15.599l8.405-12.795l157.985,41.914L447.559,396.375z M496.711,367.413 l-8.223,30.993c-1.206,4.547-5.889,7.265-10.435,6.059l-15.995-4.244l12.599-47.487l15.995,4.244 C495.199,358.185,497.917,362.866,496.711,367.413z" style="fill: rgb(45, 57, 88);"/>
    </g>
  </g>
  <g>
    <g>
      <path d="M492.32,270.725c-6.332-23.291-22.738-54.991-64.935-73.745c-21.692-9.641-35.29-22.359-40.415-37.802 c-6.812-20.523,3.707-39.634,3.808-39.813c2.047-3.601,0.787-8.18-2.814-10.227c-3.601-2.047-8.18-0.787-10.227,2.814 c-0.571,1.005-13.893,24.931-5.052,51.803c6.476,19.686,22.83,35.476,48.608,46.932c29.362,13.05,48.338,34.389,56.401,63.424 c6.127,22.066,3.391,40.61,3.363,40.794c-0.636,4.085,2.155,7.917,6.241,8.562c0.396,0.063,0.79,0.093,1.179,0.093 c3.626,0,6.816-2.637,7.399-6.332C496.012,316.364,499.135,295.794,492.32,270.725z" style="fill: rgb(107, 208, 157);"/>
    </g>
  </g>
  <g>
    <g>
      <path d="M500.739,215.439c-12.574-17.253-28.973-31.409-48.741-42.074c-3.644-1.966-8.195-0.606-10.162,3.04 s-0.605,8.194,3.04,10.161c17.78,9.593,32.497,22.279,43.741,37.708c1.468,2.015,3.751,3.083,6.067,3.083 c1.532,0,3.078-0.468,4.411-1.439C502.442,223.479,503.178,218.787,500.739,215.439z" style="fill: rgb(107, 208, 157);"/>
    </g>
  </g>
  <g>
    <g>
      <path d="M424.227,158.037c-3.479-2.945-5.753-5.895-6.758-8.768c-1.368-3.909-5.644-5.967-9.557-4.602 c-3.91,1.368-5.97,5.647-4.602,9.557c1.9,5.431,5.677,10.566,11.225,15.262c1.409,1.193,3.13,1.775,4.842,1.775 c2.129,0,4.245-0.902,5.729-2.654C427.782,165.446,427.389,160.714,424.227,158.037z" style="fill: rgb(107, 208, 157);"/>
    </g>
  </g>
  <g>
    <g>
      <path d="M360.14,93.238c-3.595-2.056-8.177-0.81-10.234,2.786c-0.709,1.239-2.583,4.682-4.673,9.877 c-1.545,3.843,0.317,8.211,4.16,9.757c0.917,0.369,1.864,0.543,2.796,0.543c2.971,0,5.784-1.778,6.961-4.704 c1.791-4.453,3.343-7.269,3.776-8.025C364.983,99.877,363.736,95.295,360.14,93.238z" style="fill: rgb(107, 208, 157);"/>
    </g>
  </g>
  <g>
    <g>
      <path d="M434.085,237.983c-5.795-4.525-12.43-8.462-19.722-11.703c-30.401-13.511-49.886-32.781-57.915-57.275 c-3.021-9.217-4.275-18.938-3.727-28.89c0.228-4.136-2.941-7.673-7.077-7.901c-4.12-0.236-7.673,2.94-7.901,7.077 c-0.65,11.821,0.847,23.39,4.451,34.386c9.405,28.696,31.636,51.006,66.076,66.311c6.173,2.744,11.752,6.047,16.583,9.818 c1.371,1.071,2.997,1.589,4.61,1.589c2.23,0,4.438-0.991,5.917-2.885C437.929,245.245,437.349,240.532,434.085,237.983z" style="fill: rgb(107, 208, 157);"/>
    </g>
  </g>
  <g/>
  <g/>
  <g/>
  <g/>
  <g/>
  <g/>
  <g/>
  <g/>
  <g/>
  <g/>
  <g/>
  <g/>
  <g/>
  <g/>
  <g/>
</svg>