<?xml version="1.0" encoding="utf-8"?>
<svg viewBox="0 0 590 370" xmlns="http://www.w3.org/2000/svg">
  <g transform="matrix(0.778953, 0, 0, 0.785977, 62.208176, 36.492245)" style="">
    <path style="stroke: none; fill-rule: nonzero; fill-opacity: 1; fill: rgb(107, 208, 157);" d="M 351.676 152.188 C 351.418 151.93 351.137 151.7 350.836 151.496 C 350.715 151.418 350.586 151.36 350.457 151.289 C 350.274 151.192 350.094 151.078 349.899 150.992 C 349.727 150.926 349.551 150.887 349.371 150.832 C 349.207 150.782 349.051 150.719 348.883 150.688 C 348.535 150.617 348.172 150.578 347.821 150.578 C 347.461 150.578 347.102 150.617 346.75 150.688 C 346.594 150.719 346.45 150.774 346.297 150.821 C 346.106 150.875 345.914 150.918 345.731 150.996 C 345.547 151.071 345.387 151.176 345.215 151.27 C 345.075 151.344 344.93 151.407 344.793 151.496 C 344.489 151.696 344.211 151.93 343.957 152.188 L 328.215 167.969 C 326.086 170.102 326.086 173.559 328.215 175.688 C 329.278 176.754 330.672 177.289 332.067 177.289 C 333.457 177.289 334.852 176.754 335.914 175.688 L 342.368 169.219 L 342.368 195.539 C 342.368 198.555 344.805 201 347.813 201 C 350.821 201 353.258 198.555 353.258 195.539 L 353.258 169.215 L 359.707 175.684 C 360.774 176.75 362.168 177.285 363.559 177.285 C 364.95 177.285 366.34 176.75 367.407 175.684 C 369.535 173.551 369.535 170.098 367.407 167.969 Z M 351.676 152.188"/>
    <path style="stroke: none; fill-rule: nonzero; fill-opacity: 1; fill: rgb(45, 57, 88);" d="M 379.91 143.039 C 371.336 134.446 359.941 129.715 347.816 129.715 L 347.809 129.715 C 322.785 129.715 302.43 150.129 302.43 175.219 C 302.43 200.309 322.785 220.723 347.812 220.723 C 372.844 220.723 393.203 200.301 393.203 175.211 C 393.203 163.059 388.484 151.633 379.91 143.039 Z M 347.812 209.801 C 328.793 209.801 313.32 194.285 313.32 175.215 C 313.32 156.149 328.793 140.633 347.82 140.633 L 347.824 140.633 C 357.031 140.633 365.695 144.227 372.211 150.762 C 378.727 157.293 382.312 165.977 382.312 175.211 C 382.312 194.285 366.836 209.801 347.812 209.801 Z M 347.812 209.801"/>
    <path style="stroke: none; fill-rule: nonzero; fill-opacity: 1; fill: rgb(107, 208, 157);" d="M 292.738 187.434 L 245.418 187.434 C 230.352 187.434 218.098 175.145 218.098 160.043 C 218.098 150.34 223.078 141.563 231.43 136.547 C 233.152 135.516 234.168 133.621 234.078 131.614 L 234.039 131.024 C 234.031 130.887 234.016 130.746 234.016 130.606 C 234.016 115.707 246.102 103.59 260.961 103.59 C 262.602 103.59 264.309 103.758 266.031 104.09 C 268.664 104.586 271.258 103.11 272.172 100.59 C 277.246 86.598 290.633 77.199 305.488 77.199 C 324.543 77.199 340.098 92.149 340.887 111.227 C 341.004 114.02 343.203 116.27 345.988 116.45 C 355.109 117.032 363.562 121.067 369.781 127.825 C 371.82 130.039 375.262 130.18 377.473 128.133 C 379.68 126.094 379.82 122.637 377.785 120.422 C 370.727 112.754 361.469 107.766 351.344 106.09 C 348.129 83.418 328.82 66.278 305.488 66.278 C 287.555 66.278 271.254 76.758 263.641 92.77 C 262.738 92.703 261.848 92.668 260.961 92.668 C 240.652 92.668 224.031 108.789 223.16 128.938 C 213.113 136.129 207.203 147.535 207.203 160.039 C 207.203 181.16 224.348 198.348 245.418 198.348 L 292.738 198.348 C 295.746 198.348 298.184 195.907 298.184 192.887 C 298.184 189.875 295.746 187.434 292.738 187.434 Z M 292.738 187.434"/>
  </g>
  <path d="M 222.773 251.367 L 219.445 251.367 L 219.445 249.456 C 217.738 251.056 215.775 251.856 213.556 251.856 C 211.362 251.856 209.609 251.253 208.296 250.043 C 206.981 248.84 206.323 247.113 206.323 244.868 C 206.323 242.623 207.067 240.916 208.557 239.75 C 210.046 238.586 211.888 238.005 214.081 238.005 C 216.085 238.005 217.872 238.451 219.445 239.345 L 219.445 237.88 C 219.445 236.149 219.059 234.937 218.29 234.246 C 217.515 233.555 216.397 233.209 214.935 233.209 C 212.849 233.209 210.832 233.9 208.886 235.282 L 207.869 232.32 C 210.087 230.858 212.591 230.127 215.384 230.127 C 220.31 230.127 222.773 232.618 222.773 237.599 L 222.773 251.367 Z M 214.081 248.726 C 216.111 248.726 217.899 247.819 219.445 246.004 L 219.445 242.433 C 217.957 241.511 216.331 241.051 214.57 241.051 C 213.134 241.051 211.956 241.376 211.036 242.026 C 210.115 242.675 209.655 243.623 209.655 244.868 C 209.655 246.03 210.041 246.965 210.812 247.67 C 211.585 248.375 212.676 248.726 214.081 248.726 Z M 236.257 251.856 C 233.634 251.856 231.549 250.882 230.005 248.93 C 228.459 246.98 227.687 244.325 227.687 240.968 C 227.687 237.584 228.466 234.93 230.025 233.006 C 231.58 231.087 233.657 230.127 236.257 230.127 C 238.288 230.127 240.034 230.777 241.496 232.075 L 241.496 223.707 L 245.032 222.04 L 245.032 251.367 L 241.496 251.367 L 241.496 249.742 C 240.143 251.153 238.395 251.856 236.257 251.856 Z M 236.747 248.566 C 238.806 248.566 240.388 247.633 241.496 245.764 L 241.496 236.016 C 240.388 234.256 238.806 233.376 236.747 233.376 C 234.987 233.376 233.634 234.034 232.686 235.344 C 231.737 236.657 231.264 238.532 231.264 240.968 C 231.264 243.162 231.759 244.977 232.747 246.41 C 233.733 247.847 235.068 248.566 236.747 248.566 Z M 259.084 251.856 C 256.459 251.856 254.375 250.882 252.83 248.93 C 251.285 246.98 250.514 244.325 250.514 240.968 C 250.514 237.584 251.291 234.93 252.851 233.006 C 254.406 231.087 256.482 230.127 259.084 230.127 C 261.115 230.127 262.86 230.777 264.322 232.075 L 264.322 223.707 L 267.857 222.04 L 267.857 251.367 L 264.322 251.367 L 264.322 249.742 C 262.968 251.153 261.222 251.856 259.084 251.856 Z M 259.574 248.566 C 261.632 248.566 263.214 247.633 264.322 245.764 L 264.322 236.016 C 263.214 234.256 261.632 233.376 259.574 233.376 C 257.813 233.376 256.459 234.034 255.512 235.344 C 254.564 236.657 254.089 238.532 254.089 240.968 C 254.089 243.162 254.586 244.977 255.574 246.41 C 256.56 247.847 257.894 248.566 259.574 248.566 Z M 292.959 251.856 C 290.794 251.856 289.019 251.045 287.637 249.419 L 287.637 257.907 L 284.103 259.574 L 284.103 230.61 L 287.637 230.61 L 287.637 232.361 C 289.126 230.871 290.901 230.127 292.959 230.127 C 295.583 230.127 297.667 231.102 299.211 233.048 C 300.758 235 301.531 237.639 301.531 240.968 C 301.531 244.353 300.743 247.013 299.171 248.952 C 297.603 250.887 295.531 251.856 292.959 251.856 Z M 292.511 248.566 C 294.244 248.566 295.577 247.909 296.51 246.597 C 297.443 245.28 297.911 243.405 297.911 240.968 C 297.911 238.665 297.433 236.824 296.473 235.444 C 295.512 234.065 294.192 233.376 292.511 233.376 C 290.318 233.376 288.693 234.309 287.637 236.178 L 287.637 245.764 C 289.071 247.633 290.696 248.566 292.511 248.566 Z M 310.545 251.367 L 307.008 251.367 L 307.008 223.665 L 310.545 222.04 L 310.545 232.767 C 311.819 231.008 313.605 230.127 315.908 230.127 C 318.344 230.127 320.192 230.866 321.449 232.34 C 322.708 233.817 323.339 236.178 323.339 239.427 L 323.339 251.367 L 319.803 251.367 L 319.803 238.818 C 319.803 236.95 319.404 235.576 318.604 234.694 C 317.807 233.817 316.717 233.376 315.335 233.376 C 312.142 233.376 310.545 235.162 310.545 238.734 L 310.545 251.367 Z M 344.539 248.952 C 342.886 250.887 340.653 251.856 337.835 251.856 C 335.021 251.856 332.788 250.895 331.136 248.971 C 329.483 247.05 328.657 244.394 328.657 241.01 C 328.657 237.627 329.483 234.964 331.136 233.027 C 332.788 231.094 335.021 230.127 337.835 230.127 C 340.653 230.127 342.886 231.087 344.539 233.006 C 346.189 234.93 347.017 237.584 347.017 240.968 C 347.017 244.353 346.189 247.013 344.539 248.952 Z M 333.719 246.556 C 334.704 247.895 336.075 248.566 337.835 248.566 C 339.597 248.566 340.971 247.895 341.962 246.556 C 342.95 245.216 343.445 243.353 343.445 240.968 C 343.445 238.615 342.95 236.761 341.962 235.408 C 340.971 234.053 339.597 233.376 337.835 233.376 C 336.075 233.376 334.704 234.047 333.719 235.387 C 332.729 236.726 332.235 238.601 332.235 241.01 C 332.235 243.368 332.729 245.216 333.719 246.556 Z M 358.146 251.856 C 355.221 251.856 353.758 250.203 353.758 246.899 L 353.758 233.699 L 350.389 233.699 L 350.389 230.61 L 353.758 230.61 L 353.758 223.748 L 357.293 222.04 L 357.293 230.61 L 362.412 230.61 L 362.412 233.699 L 357.293 233.699 L 357.293 245.723 C 357.293 246.643 357.442 247.345 357.741 247.831 C 358.038 248.321 358.608 248.566 359.443 248.566 C 360.367 248.566 361.396 248.2 362.531 247.467 L 362.126 250.918 C 360.934 251.544 359.608 251.856 358.146 251.856 Z M 381.986 248.952 C 380.334 250.887 378.1 251.856 375.284 251.856 C 372.468 251.856 370.235 250.895 368.583 248.971 C 366.931 247.05 366.105 244.394 366.105 241.01 C 366.105 237.627 366.931 234.964 368.583 233.027 C 370.235 231.094 372.468 230.127 375.284 230.127 C 378.1 230.127 380.334 231.087 381.986 233.006 C 383.638 234.93 384.465 237.584 384.465 240.968 C 384.465 244.353 383.638 247.013 381.986 248.952 Z M 371.164 246.556 C 372.152 247.895 373.525 248.566 375.284 248.566 C 377.044 248.566 378.419 247.895 379.408 246.556 C 380.398 245.216 380.892 243.353 380.892 240.968 C 380.892 238.615 380.398 236.761 379.408 235.408 C 378.419 234.053 377.044 233.376 375.284 233.376 C 373.525 233.376 372.152 234.047 371.164 235.387 C 370.176 236.726 369.681 238.601 369.681 241.01 C 369.681 243.368 370.176 245.216 371.164 246.556 Z" style="white-space: pre; fill: rgb(45, 57, 88);"/>
</svg>