<?xml version="1.0" encoding="utf-8"?>
<svg viewBox="0 0 590 370" xmlns="http://www.w3.org/2000/svg">
  <g transform="matrix(0.994624, 0, 0, 1.003593, -3.589117, -9.016098)">
    <path style="stroke: none; fill-rule: nonzero; fill-opacity: 1; fill: rgb(107, 208, 157);" d="M 351.676 152.188 C 351.418 151.93 351.137 151.7 350.836 151.496 C 350.715 151.418 350.586 151.36 350.457 151.289 C 350.274 151.192 350.094 151.078 349.899 150.992 C 349.727 150.926 349.551 150.887 349.371 150.832 C 349.207 150.782 349.051 150.719 348.883 150.688 C 348.535 150.617 348.172 150.578 347.821 150.578 C 347.461 150.578 347.102 150.617 346.75 150.688 C 346.594 150.719 346.45 150.774 346.297 150.821 C 346.106 150.875 345.914 150.918 345.731 150.996 C 345.547 151.071 345.387 151.176 345.215 151.27 C 345.075 151.344 344.93 151.407 344.793 151.496 C 344.489 151.696 344.211 151.93 343.957 152.188 L 328.215 167.969 C 326.086 170.102 326.086 173.559 328.215 175.688 C 329.278 176.754 330.672 177.289 332.067 177.289 C 333.457 177.289 334.852 176.754 335.914 175.688 L 342.368 169.219 L 342.368 195.539 C 342.368 198.555 344.805 201 347.813 201 C 350.821 201 353.258 198.555 353.258 195.539 L 353.258 169.215 L 359.707 175.684 C 360.774 176.75 362.168 177.285 363.559 177.285 C 364.95 177.285 366.34 176.75 367.407 175.684 C 369.535 173.551 369.535 170.098 367.407 167.969 Z M 351.676 152.188"/>
    <path style="stroke: none; fill-rule: nonzero; fill-opacity: 1; fill: rgb(45, 57, 88);" d="M 379.91 143.039 C 371.336 134.446 359.941 129.715 347.816 129.715 L 347.809 129.715 C 322.785 129.715 302.43 150.129 302.43 175.219 C 302.43 200.309 322.785 220.723 347.812 220.723 C 372.844 220.723 393.203 200.301 393.203 175.211 C 393.203 163.059 388.484 151.633 379.91 143.039 Z M 347.812 209.801 C 328.793 209.801 313.32 194.285 313.32 175.215 C 313.32 156.149 328.793 140.633 347.82 140.633 L 347.824 140.633 C 357.031 140.633 365.695 144.227 372.211 150.762 C 378.727 157.293 382.312 165.977 382.312 175.211 C 382.312 194.285 366.836 209.801 347.812 209.801 Z M 347.812 209.801"/>
    <path style="stroke: none; fill-rule: nonzero; fill-opacity: 1; fill: rgb(107, 208, 157);" d="M 292.738 187.434 L 245.418 187.434 C 230.352 187.434 218.098 175.145 218.098 160.043 C 218.098 150.34 223.078 141.563 231.43 136.547 C 233.152 135.516 234.168 133.621 234.078 131.614 L 234.039 131.024 C 234.031 130.887 234.016 130.746 234.016 130.606 C 234.016 115.707 246.102 103.59 260.961 103.59 C 262.602 103.59 264.309 103.758 266.031 104.09 C 268.664 104.586 271.258 103.11 272.172 100.59 C 277.246 86.598 290.633 77.199 305.488 77.199 C 324.543 77.199 340.098 92.149 340.887 111.227 C 341.004 114.02 343.203 116.27 345.988 116.45 C 355.109 117.032 363.562 121.067 369.781 127.825 C 371.82 130.039 375.262 130.18 377.473 128.133 C 379.68 126.094 379.82 122.637 377.785 120.422 C 370.727 112.754 361.469 107.766 351.344 106.09 C 348.129 83.418 328.82 66.278 305.488 66.278 C 287.555 66.278 271.254 76.758 263.641 92.77 C 262.738 92.703 261.848 92.668 260.961 92.668 C 240.652 92.668 224.031 108.789 223.16 128.938 C 213.113 136.129 207.203 147.535 207.203 160.039 C 207.203 181.16 224.348 198.348 245.418 198.348 L 292.738 198.348 C 295.746 198.348 298.184 195.907 298.184 192.887 C 298.184 189.875 295.746 187.434 292.738 187.434 Z M 292.738 187.434"/>
  </g>
  <path d="M 155.535 312.186 L 149.145 312.186 L 149.145 308.516 C 145.865 311.589 142.095 313.126 137.835 313.126 C 133.622 313.126 130.255 311.966 127.735 309.646 C 125.208 307.333 123.945 304.019 123.945 299.706 C 123.945 295.393 125.375 292.116 128.235 289.876 C 131.095 287.643 134.632 286.526 138.845 286.526 C 142.692 286.526 146.125 287.383 149.145 289.096 L 149.145 286.286 C 149.145 282.959 148.405 280.633 146.925 279.306 C 145.438 277.979 143.292 277.316 140.485 277.316 C 136.478 277.316 132.605 278.643 128.865 281.296 L 126.915 275.606 C 131.175 272.799 135.985 271.396 141.345 271.396 C 150.805 271.396 155.535 276.179 155.535 285.746 L 155.535 312.186 Z M 138.845 307.116 C 142.745 307.116 146.178 305.373 149.145 301.886 L 149.145 295.026 C 146.285 293.259 143.165 292.376 139.785 292.376 C 137.025 292.376 134.762 292.999 132.995 294.246 C 131.228 295.493 130.345 297.313 130.345 299.706 C 130.345 301.939 131.085 303.733 132.565 305.086 C 134.052 306.439 136.145 307.116 138.845 307.116 ZM 181.433 313.126 C 176.393 313.126 172.39 311.253 169.423 307.506 C 166.456 303.759 164.973 298.663 164.973 292.216 C 164.973 285.716 166.47 280.619 169.463 276.926 C 172.45 273.239 176.44 271.396 181.433 271.396 C 185.333 271.396 188.686 272.643 191.493 275.136 L 191.493 259.066 L 198.283 255.866 L 198.283 312.186 L 191.493 312.186 L 191.493 309.066 C 188.893 311.773 185.54 313.126 181.433 313.126 Z M 182.373 306.806 C 186.326 306.806 189.366 305.013 191.493 301.426 L 191.493 282.706 C 189.366 279.326 186.326 277.636 182.373 277.636 C 178.993 277.636 176.393 278.896 174.573 281.416 C 172.753 283.936 171.843 287.536 171.843 292.216 C 171.843 296.429 172.793 299.913 174.693 302.666 C 176.586 305.426 179.146 306.806 182.373 306.806 ZM 225.269 313.126 C 220.229 313.126 216.226 311.253 213.259 307.506 C 210.292 303.759 208.809 298.663 208.809 292.216 C 208.809 285.716 210.306 280.619 213.299 276.926 C 216.286 273.239 220.276 271.396 225.269 271.396 C 229.169 271.396 232.522 272.643 235.329 275.136 L 235.329 259.066 L 242.119 255.866 L 242.119 312.186 L 235.329 312.186 L 235.329 309.066 C 232.729 311.773 229.376 313.126 225.269 313.126 Z M 226.209 306.806 C 230.162 306.806 233.202 305.013 235.329 301.426 L 235.329 282.706 C 233.202 279.326 230.162 277.636 226.209 277.636 C 222.829 277.636 220.229 278.896 218.409 281.416 C 216.589 283.936 215.679 287.536 215.679 292.216 C 215.679 296.429 216.629 299.913 218.529 302.666 C 220.422 305.426 222.982 306.806 226.209 306.806 ZM 290.325 313.126 C 286.165 313.126 282.758 311.566 280.105 308.446 L 280.105 324.746 L 273.315 327.946 L 273.315 272.326 L 280.105 272.326 L 280.105 275.686 C 282.965 272.826 286.372 271.396 290.325 271.396 C 295.365 271.396 299.368 273.266 302.335 277.006 C 305.302 280.753 306.785 285.823 306.785 292.216 C 306.785 298.716 305.275 303.826 302.255 307.546 C 299.242 311.266 295.265 313.126 290.325 313.126 Z M 289.465 306.806 C 292.792 306.806 295.352 305.546 297.145 303.026 C 298.938 300.499 299.835 296.896 299.835 292.216 C 299.835 287.796 298.915 284.259 297.075 281.606 C 295.228 278.959 292.692 277.636 289.465 277.636 C 285.252 277.636 282.132 279.429 280.105 283.016 L 280.105 301.426 C 282.858 305.013 285.978 306.806 289.465 306.806 ZM 324.097 312.186 L 317.307 312.186 L 317.307 258.986 L 324.097 255.866 L 324.097 276.466 C 326.544 273.086 329.977 271.396 334.397 271.396 C 339.077 271.396 342.624 272.813 345.037 275.646 C 347.457 278.479 348.667 283.016 348.667 289.256 L 348.667 312.186 L 341.877 312.186 L 341.877 288.086 C 341.877 284.499 341.11 281.859 339.577 280.166 C 338.044 278.479 335.95 277.636 333.297 277.636 C 327.164 277.636 324.097 281.066 324.097 287.926 L 324.097 312.186 ZM 389.381 307.546 C 386.208 311.266 381.918 313.126 376.511 313.126 C 371.104 313.126 366.814 311.279 363.641 307.586 C 360.468 303.893 358.881 298.796 358.881 292.296 C 358.881 285.796 360.468 280.686 363.641 276.966 C 366.814 273.253 371.104 271.396 376.511 271.396 C 381.918 271.396 386.208 273.239 389.381 276.926 C 392.554 280.619 394.141 285.716 394.141 292.216 C 394.141 298.716 392.554 303.826 389.381 307.546 Z M 368.601 302.946 C 370.494 305.519 373.131 306.806 376.511 306.806 C 379.891 306.806 382.531 305.519 384.431 302.946 C 386.331 300.373 387.281 296.796 387.281 292.216 C 387.281 287.696 386.331 284.136 384.431 281.536 C 382.531 278.936 379.891 277.636 376.511 277.636 C 373.131 277.636 370.494 278.923 368.601 281.496 C 366.701 284.069 365.751 287.669 365.751 292.296 C 365.751 296.823 366.701 300.373 368.601 302.946 ZM 415.515 313.126 C 409.895 313.126 407.085 309.953 407.085 303.606 L 407.085 278.256 L 400.615 278.256 L 400.615 272.326 L 407.085 272.326 L 407.085 259.146 L 413.875 255.866 L 413.875 272.326 L 423.705 272.326 L 423.705 278.256 L 413.875 278.256 L 413.875 301.346 C 413.875 303.113 414.162 304.463 414.735 305.396 C 415.308 306.336 416.398 306.806 418.005 306.806 C 419.778 306.806 421.755 306.103 423.935 304.696 L 423.155 311.326 C 420.868 312.526 418.322 313.126 415.515 313.126 ZM 461.297 307.546 C 458.124 311.266 453.834 313.126 448.427 313.126 C 443.02 313.126 438.73 311.279 435.557 307.586 C 432.384 303.893 430.797 298.796 430.797 292.296 C 430.797 285.796 432.384 280.686 435.557 276.966 C 438.73 273.253 443.02 271.396 448.427 271.396 C 453.834 271.396 458.124 273.239 461.297 276.926 C 464.47 280.619 466.057 285.716 466.057 292.216 C 466.057 298.716 464.47 303.826 461.297 307.546 Z M 440.517 302.946 C 442.41 305.519 445.047 306.806 448.427 306.806 C 451.807 306.806 454.447 305.519 456.347 302.946 C 458.247 300.373 459.197 296.796 459.197 292.216 C 459.197 287.696 458.247 284.136 456.347 281.536 C 454.447 278.936 451.807 277.636 448.427 277.636 C 445.047 277.636 442.41 278.923 440.517 281.496 C 438.617 284.069 437.667 287.669 437.667 292.296 C 437.667 296.823 438.617 300.373 440.517 302.946 Z" style="white-space: pre; fill: rgb(45, 57, 88);"/>
</svg>
