<?xml version="1.0" encoding="utf-8"?>
<svg viewBox="175.444 57.5 244.799 221.431" xmlns="http://www.w3.org/2000/svg">
  <g transform="matrix(0.994624, 0, 0, 1.003593, -3.589117, -9.016098)">
    <path style="stroke: none; fill-rule: nonzero; fill-opacity: 1; fill: rgb(107, 208, 157);" d="M 351.676 152.188 C 351.418 151.93 351.137 151.7 350.836 151.496 C 350.715 151.418 350.586 151.36 350.457 151.289 C 350.274 151.192 350.094 151.078 349.899 150.992 C 349.727 150.926 349.551 150.887 349.371 150.832 C 349.207 150.782 349.051 150.719 348.883 150.688 C 348.535 150.617 348.172 150.578 347.821 150.578 C 347.461 150.578 347.102 150.617 346.75 150.688 C 346.594 150.719 346.45 150.774 346.297 150.821 C 346.106 150.875 345.914 150.918 345.731 150.996 C 345.547 151.071 345.387 151.176 345.215 151.27 C 345.075 151.344 344.93 151.407 344.793 151.496 C 344.489 151.696 344.211 151.93 343.957 152.188 L 328.215 167.969 C 326.086 170.102 326.086 173.559 328.215 175.688 C 329.278 176.754 330.672 177.289 332.067 177.289 C 333.457 177.289 334.852 176.754 335.914 175.688 L 342.368 169.219 L 342.368 195.539 C 342.368 198.555 344.805 201 347.813 201 C 350.821 201 353.258 198.555 353.258 195.539 L 353.258 169.215 L 359.707 175.684 C 360.774 176.75 362.168 177.285 363.559 177.285 C 364.95 177.285 366.34 176.75 367.407 175.684 C 369.535 173.551 369.535 170.098 367.407 167.969 Z M 351.676 152.188"/>
    <path style="stroke: none; fill-rule: nonzero; fill-opacity: 1; fill: rgb(45, 57, 88);" d="M 379.91 143.039 C 371.336 134.446 359.941 129.715 347.816 129.715 L 347.809 129.715 C 322.785 129.715 302.43 150.129 302.43 175.219 C 302.43 200.309 322.785 220.723 347.812 220.723 C 372.844 220.723 393.203 200.301 393.203 175.211 C 393.203 163.059 388.484 151.633 379.91 143.039 Z M 347.812 209.801 C 328.793 209.801 313.32 194.285 313.32 175.215 C 313.32 156.149 328.793 140.633 347.82 140.633 L 347.824 140.633 C 357.031 140.633 365.695 144.227 372.211 150.762 C 378.727 157.293 382.312 165.977 382.312 175.211 C 382.312 194.285 366.836 209.801 347.812 209.801 Z M 347.812 209.801"/>
    <path style="stroke: none; fill-rule: nonzero; fill-opacity: 1; fill: rgb(107, 208, 157);" d="M 292.738 187.434 L 245.418 187.434 C 230.352 187.434 218.098 175.145 218.098 160.043 C 218.098 150.34 223.078 141.563 231.43 136.547 C 233.152 135.516 234.168 133.621 234.078 131.614 L 234.039 131.024 C 234.031 130.887 234.016 130.746 234.016 130.606 C 234.016 115.707 246.102 103.59 260.961 103.59 C 262.602 103.59 264.309 103.758 266.031 104.09 C 268.664 104.586 271.258 103.11 272.172 100.59 C 277.246 86.598 290.633 77.199 305.488 77.199 C 324.543 77.199 340.098 92.149 340.887 111.227 C 341.004 114.02 343.203 116.27 345.988 116.45 C 355.109 117.032 363.562 121.067 369.781 127.825 C 371.82 130.039 375.262 130.18 377.473 128.133 C 379.68 126.094 379.82 122.637 377.785 120.422 C 370.727 112.754 361.469 107.766 351.344 106.09 C 348.129 83.418 328.82 66.278 305.488 66.278 C 287.555 66.278 271.254 76.758 263.641 92.77 C 262.738 92.703 261.848 92.668 260.961 92.668 C 240.652 92.668 224.031 108.789 223.16 128.938 C 213.113 136.129 207.203 147.535 207.203 160.039 C 207.203 181.16 224.348 198.348 245.418 198.348 L 292.738 198.348 C 295.746 198.348 298.184 195.907 298.184 192.887 C 298.184 189.875 295.746 187.434 292.738 187.434 Z M 292.738 187.434"/>
  </g>
  <path d="M 198.048 267.654 L 193.476 267.654 L 193.476 265.028 C 191.129 267.226 188.432 268.326 185.383 268.326 C 182.369 268.326 179.959 267.497 178.156 265.836 C 176.348 264.181 175.444 261.81 175.444 258.723 C 175.444 255.638 176.467 253.293 178.514 251.69 C 180.56 250.091 183.091 249.293 186.106 249.293 C 188.859 249.293 191.315 249.906 193.476 251.132 L 193.476 249.121 C 193.476 246.741 192.946 245.076 191.887 244.127 C 190.824 243.177 189.288 242.702 187.279 242.702 C 184.412 242.702 181.641 243.652 178.965 245.55 L 177.569 241.48 C 180.617 239.471 184.059 238.466 187.895 238.466 C 194.664 238.466 198.048 241.889 198.048 248.735 L 198.048 267.654 Z M 186.106 264.026 C 188.896 264.026 191.353 262.779 193.476 260.284 L 193.476 255.375 C 191.43 254.11 189.197 253.478 186.778 253.478 C 184.803 253.478 183.185 253.924 181.92 254.817 C 180.656 255.709 180.023 257.011 180.023 258.723 C 180.023 260.321 180.553 261.606 181.612 262.574 C 182.676 263.542 184.174 264.026 186.106 264.026 Z M 216.579 268.326 C 212.974 268.326 210.11 266.987 207.986 264.305 C 205.863 261.624 204.802 257.977 204.802 253.365 C 204.802 248.713 205.872 245.066 208.014 242.423 C 210.153 239.785 213.007 238.466 216.579 238.466 C 219.37 238.466 221.769 239.359 223.778 241.142 L 223.778 229.644 L 228.637 227.354 L 228.637 267.654 L 223.778 267.654 L 223.778 265.422 C 221.918 267.359 219.518 268.326 216.579 268.326 Z M 217.253 263.804 C 220.081 263.804 222.256 262.522 223.778 259.954 L 223.778 246.559 C 222.256 244.141 220.081 242.932 217.253 242.932 C 214.834 242.932 212.974 243.834 211.671 245.636 C 210.368 247.44 209.718 250.015 209.718 253.365 C 209.718 256.379 210.397 258.872 211.757 260.842 C 213.111 262.817 214.944 263.804 217.253 263.804 Z M 247.947 268.326 C 244.34 268.326 241.476 266.987 239.353 264.305 C 237.229 261.624 236.169 257.977 236.169 253.365 C 236.169 248.713 237.24 245.066 239.382 242.423 C 241.518 239.785 244.374 238.466 247.947 238.466 C 250.738 238.466 253.137 239.359 255.145 241.142 L 255.145 229.644 L 260.003 227.354 L 260.003 267.654 L 255.145 267.654 L 255.145 265.422 C 253.285 267.359 250.886 268.326 247.947 268.326 Z M 248.62 263.804 C 251.448 263.804 253.623 262.522 255.145 259.954 L 255.145 246.559 C 253.623 244.141 251.448 242.932 248.62 242.932 C 246.201 242.932 244.34 243.834 243.038 245.636 C 241.736 247.44 241.084 250.015 241.084 253.365 C 241.084 256.379 241.765 258.872 243.124 260.842 C 244.478 262.817 246.31 263.804 248.62 263.804 Z M 294.498 268.326 C 291.522 268.326 289.083 267.211 287.185 264.978 L 287.185 276.642 L 282.327 278.931 L 282.327 239.131 L 287.185 239.131 L 287.185 241.537 C 289.231 239.489 291.67 238.466 294.498 238.466 C 298.104 238.466 300.968 239.805 303.091 242.481 C 305.215 245.163 306.276 248.789 306.276 253.365 C 306.276 258.015 305.195 261.672 303.034 264.334 C 300.879 266.995 298.033 268.326 294.498 268.326 Z M 293.882 263.804 C 296.263 263.804 298.095 262.903 299.378 261.099 C 300.661 259.291 301.303 256.712 301.303 253.365 C 301.303 250.201 300.645 247.67 299.328 245.772 C 298.006 243.878 296.192 242.932 293.882 242.932 C 290.868 242.932 288.635 244.215 287.185 246.781 L 287.185 259.954 C 289.155 262.522 291.388 263.804 293.882 263.804 Z M 318.663 267.654 L 313.805 267.654 L 313.805 229.587 L 318.663 227.354 L 318.663 242.094 C 320.415 239.676 322.871 238.466 326.034 238.466 C 329.382 238.466 331.921 239.481 333.648 241.508 C 335.379 243.536 336.245 246.781 336.245 251.247 L 336.245 267.654 L 331.386 267.654 L 331.386 250.41 C 331.386 247.842 330.837 245.954 329.74 244.742 C 328.643 243.536 327.145 242.932 325.247 242.932 C 320.858 242.932 318.663 245.386 318.663 250.295 L 318.663 267.654 Z M 365.377 264.334 C 363.107 266.995 360.038 268.326 356.168 268.326 C 352.299 268.326 349.23 267.005 346.96 264.362 C 344.689 261.72 343.553 258.073 343.553 253.422 C 343.553 248.771 344.689 245.114 346.96 242.452 C 349.23 239.796 352.299 238.466 356.168 238.466 C 360.038 238.466 363.107 239.785 365.377 242.423 C 367.647 245.066 368.784 248.713 368.784 253.365 C 368.784 258.015 367.647 261.672 365.377 264.334 Z M 350.509 261.042 C 351.863 262.883 353.749 263.804 356.168 263.804 C 358.587 263.804 360.476 262.883 361.836 261.042 C 363.195 259.201 363.875 256.642 363.875 253.365 C 363.875 250.131 363.195 247.583 361.836 245.722 C 360.476 243.862 358.587 242.932 356.168 242.932 C 353.749 242.932 351.863 243.853 350.509 245.694 C 349.149 247.535 348.469 250.111 348.469 253.422 C 348.469 256.661 349.149 259.201 350.509 261.042 Z M 384.077 268.326 C 380.056 268.326 378.046 266.056 378.046 261.515 L 378.046 243.375 L 373.416 243.375 L 373.416 239.131 L 378.046 239.131 L 378.046 229.7 L 382.905 227.354 L 382.905 239.131 L 389.939 239.131 L 389.939 243.375 L 382.905 243.375 L 382.905 259.898 C 382.905 261.163 383.11 262.128 383.52 262.795 C 383.929 263.468 384.711 263.804 385.86 263.804 C 387.129 263.804 388.543 263.302 390.103 262.295 L 389.545 267.038 C 387.908 267.897 386.086 268.326 384.077 268.326 Z M 416.838 264.334 C 414.567 266.995 411.497 268.326 407.629 268.326 C 403.759 268.326 400.69 267.005 398.419 264.362 C 396.149 261.72 395.014 258.073 395.014 253.422 C 395.014 248.771 396.149 245.114 398.419 242.452 C 400.69 239.796 403.759 238.466 407.629 238.466 C 411.497 238.466 414.567 239.785 416.838 242.423 C 419.108 245.066 420.243 248.713 420.243 253.365 C 420.243 258.015 419.108 261.672 416.838 264.334 Z M 401.968 261.042 C 403.323 262.883 405.21 263.804 407.629 263.804 C 410.047 263.804 411.936 262.883 413.295 261.042 C 414.655 259.201 415.334 256.642 415.334 253.365 C 415.334 250.131 414.655 247.583 413.295 245.722 C 411.936 243.862 410.047 242.932 407.629 242.932 C 405.21 242.932 403.323 243.853 401.968 245.694 C 400.608 247.535 399.928 250.111 399.928 253.422 C 399.928 256.661 400.608 259.201 401.968 261.042 Z" style="white-space: pre; fill: rgb(45, 57, 88);"/>
</svg>