<?xml version="1.0" encoding="utf-8"?>
<svg viewBox="0 0 590 370" xmlns="http://www.w3.org/2000/svg">
  <g transform="matrix(0.994624, 0, 0, 1.003593, -3.589117, -9.016098)">
    <path style="stroke: none; fill-rule: nonzero; fill-opacity: 1; fill: rgb(107, 208, 157);" d="M 351.676 152.188 C 351.418 151.93 351.137 151.7 350.836 151.496 C 350.715 151.418 350.586 151.36 350.457 151.289 C 350.274 151.192 350.094 151.078 349.899 150.992 C 349.727 150.926 349.551 150.887 349.371 150.832 C 349.207 150.782 349.051 150.719 348.883 150.688 C 348.535 150.617 348.172 150.578 347.821 150.578 C 347.461 150.578 347.102 150.617 346.75 150.688 C 346.594 150.719 346.45 150.774 346.297 150.821 C 346.106 150.875 345.914 150.918 345.731 150.996 C 345.547 151.071 345.387 151.176 345.215 151.27 C 345.075 151.344 344.93 151.407 344.793 151.496 C 344.489 151.696 344.211 151.93 343.957 152.188 L 328.215 167.969 C 326.086 170.102 326.086 173.559 328.215 175.688 C 329.278 176.754 330.672 177.289 332.067 177.289 C 333.457 177.289 334.852 176.754 335.914 175.688 L 342.368 169.219 L 342.368 195.539 C 342.368 198.555 344.805 201 347.813 201 C 350.821 201 353.258 198.555 353.258 195.539 L 353.258 169.215 L 359.707 175.684 C 360.774 176.75 362.168 177.285 363.559 177.285 C 364.95 177.285 366.34 176.75 367.407 175.684 C 369.535 173.551 369.535 170.098 367.407 167.969 Z M 351.676 152.188"/>
    <path style="stroke: none; fill-rule: nonzero; fill-opacity: 1; fill: rgb(45, 57, 88);" d="M 379.91 143.039 C 371.336 134.446 359.941 129.715 347.816 129.715 L 347.809 129.715 C 322.785 129.715 302.43 150.129 302.43 175.219 C 302.43 200.309 322.785 220.723 347.812 220.723 C 372.844 220.723 393.203 200.301 393.203 175.211 C 393.203 163.059 388.484 151.633 379.91 143.039 Z M 347.812 209.801 C 328.793 209.801 313.32 194.285 313.32 175.215 C 313.32 156.149 328.793 140.633 347.82 140.633 L 347.824 140.633 C 357.031 140.633 365.695 144.227 372.211 150.762 C 378.727 157.293 382.312 165.977 382.312 175.211 C 382.312 194.285 366.836 209.801 347.812 209.801 Z M 347.812 209.801"/>
    <path style="stroke: none; fill-rule: nonzero; fill-opacity: 1; fill: rgb(107, 208, 157);" d="M 292.738 187.434 L 245.418 187.434 C 230.352 187.434 218.098 175.145 218.098 160.043 C 218.098 150.34 223.078 141.563 231.43 136.547 C 233.152 135.516 234.168 133.621 234.078 131.614 L 234.039 131.024 C 234.031 130.887 234.016 130.746 234.016 130.606 C 234.016 115.707 246.102 103.59 260.961 103.59 C 262.602 103.59 264.309 103.758 266.031 104.09 C 268.664 104.586 271.258 103.11 272.172 100.59 C 277.246 86.598 290.633 77.199 305.488 77.199 C 324.543 77.199 340.098 92.149 340.887 111.227 C 341.004 114.02 343.203 116.27 345.988 116.45 C 355.109 117.032 363.562 121.067 369.781 127.825 C 371.82 130.039 375.262 130.18 377.473 128.133 C 379.68 126.094 379.82 122.637 377.785 120.422 C 370.727 112.754 361.469 107.766 351.344 106.09 C 348.129 83.418 328.82 66.278 305.488 66.278 C 287.555 66.278 271.254 76.758 263.641 92.77 C 262.738 92.703 261.848 92.668 260.961 92.668 C 240.652 92.668 224.031 108.789 223.16 128.938 C 213.113 136.129 207.203 147.535 207.203 160.039 C 207.203 181.16 224.348 198.348 245.418 198.348 L 292.738 198.348 C 295.746 198.348 298.184 195.907 298.184 192.887 C 298.184 189.875 295.746 187.434 292.738 187.434 Z M 292.738 187.434"/>
  </g>
  <path d="M 120.285 312.186 L 113.895 312.186 L 113.895 308.516 C 110.615 311.589 106.845 313.126 102.585 313.126 C 98.372 313.126 95.005 311.966 92.485 309.646 C 89.958 307.333 88.695 304.019 88.695 299.706 C 88.695 295.393 90.125 292.116 92.985 289.876 C 95.845 287.643 99.382 286.526 103.595 286.526 C 107.442 286.526 110.875 287.383 113.895 289.096 L 113.895 286.286 C 113.895 282.959 113.155 280.633 111.675 279.306 C 110.188 277.979 108.042 277.316 105.235 277.316 C 101.228 277.316 97.355 278.643 93.615 281.296 L 91.665 275.606 C 95.925 272.799 100.735 271.396 106.095 271.396 C 115.555 271.396 120.285 276.179 120.285 285.746 L 120.285 312.186 Z M 103.595 307.116 C 107.495 307.116 110.928 305.373 113.895 301.886 L 113.895 295.026 C 111.035 293.259 107.915 292.376 104.535 292.376 C 101.775 292.376 99.512 292.999 97.745 294.246 C 95.978 295.493 95.095 297.313 95.095 299.706 C 95.095 301.939 95.835 303.733 97.315 305.086 C 98.802 306.439 100.895 307.116 103.595 307.116 ZM 146.183 313.126 C 141.143 313.126 137.14 311.253 134.173 307.506 C 131.206 303.759 129.723 298.663 129.723 292.216 C 129.723 285.716 131.22 280.619 134.213 276.926 C 137.2 273.239 141.19 271.396 146.183 271.396 C 150.083 271.396 153.436 272.643 156.243 275.136 L 156.243 259.066 L 163.033 255.866 L 163.033 312.186 L 156.243 312.186 L 156.243 309.066 C 153.643 311.773 150.29 313.126 146.183 313.126 Z M 147.123 306.806 C 151.076 306.806 154.116 305.013 156.243 301.426 L 156.243 282.706 C 154.116 279.326 151.076 277.636 147.123 277.636 C 143.743 277.636 141.143 278.896 139.323 281.416 C 137.503 283.936 136.593 287.536 136.593 292.216 C 136.593 296.429 137.543 299.913 139.443 302.666 C 141.336 305.426 143.896 306.806 147.123 306.806 ZM 190.019 313.126 C 184.979 313.126 180.976 311.253 178.009 307.506 C 175.042 303.759 173.559 298.663 173.559 292.216 C 173.559 285.716 175.056 280.619 178.049 276.926 C 181.036 273.239 185.026 271.396 190.019 271.396 C 193.919 271.396 197.272 272.643 200.079 275.136 L 200.079 259.066 L 206.869 255.866 L 206.869 312.186 L 200.079 312.186 L 200.079 309.066 C 197.479 311.773 194.126 313.126 190.019 313.126 Z M 190.959 306.806 C 194.912 306.806 197.952 305.013 200.079 301.426 L 200.079 282.706 C 197.952 279.326 194.912 277.636 190.959 277.636 C 187.579 277.636 184.979 278.896 183.159 281.416 C 181.339 283.936 180.429 287.536 180.429 292.216 C 180.429 296.429 181.379 299.913 183.279 302.666 C 185.172 305.426 187.732 306.806 190.959 306.806 ZM 267.315 312.186 L 260.925 312.186 L 260.925 308.516 C 257.645 311.589 253.875 313.126 249.615 313.126 C 245.402 313.126 242.035 311.966 239.515 309.646 C 236.988 307.333 235.725 304.019 235.725 299.706 C 235.725 295.393 237.155 292.116 240.015 289.876 C 242.875 287.643 246.412 286.526 250.625 286.526 C 254.472 286.526 257.905 287.383 260.925 289.096 L 260.925 286.286 C 260.925 282.959 260.185 280.633 258.705 279.306 C 257.218 277.979 255.072 277.316 252.265 277.316 C 248.258 277.316 244.385 278.643 240.645 281.296 L 238.695 275.606 C 242.955 272.799 247.765 271.396 253.125 271.396 C 262.585 271.396 267.315 276.179 267.315 285.746 L 267.315 312.186 Z M 250.625 307.116 C 254.525 307.116 257.958 305.373 260.925 301.886 L 260.925 295.026 C 258.065 293.259 254.945 292.376 251.565 292.376 C 248.805 292.376 246.542 292.999 244.775 294.246 C 243.008 295.493 242.125 297.313 242.125 299.706 C 242.125 301.939 242.865 303.733 244.345 305.086 C 245.832 306.439 247.925 307.116 250.625 307.116 ZM 310.453 312.186 L 303.663 312.186 L 303.663 288.086 C 303.663 284.499 302.896 281.859 301.363 280.166 C 299.83 278.479 297.736 277.636 295.083 277.636 C 288.95 277.636 285.883 281.066 285.883 287.926 L 285.883 312.186 L 279.093 312.186 L 279.093 272.326 L 285.883 272.326 L 285.883 276.386 C 288.33 273.059 291.763 271.396 296.183 271.396 C 300.863 271.396 304.41 272.813 306.823 275.646 C 309.243 278.479 310.453 283.016 310.453 289.256 L 310.453 312.186 ZM 351.167 307.546 C 347.994 311.266 343.704 313.126 338.297 313.126 C 332.89 313.126 328.6 311.279 325.427 307.586 C 322.254 303.893 320.667 298.796 320.667 292.296 C 320.667 285.796 322.254 280.686 325.427 276.966 C 328.6 273.253 332.89 271.396 338.297 271.396 C 343.704 271.396 347.994 273.239 351.167 276.926 C 354.34 280.619 355.927 285.716 355.927 292.216 C 355.927 298.716 354.34 303.826 351.167 307.546 Z M 330.387 302.946 C 332.28 305.519 334.917 306.806 338.297 306.806 C 341.677 306.806 344.317 305.519 346.217 302.946 C 348.117 300.373 349.067 296.796 349.067 292.216 C 349.067 287.696 348.117 284.136 346.217 281.536 C 344.317 278.936 341.677 277.636 338.297 277.636 C 334.917 277.636 332.28 278.923 330.387 281.496 C 328.487 284.069 327.537 287.669 327.537 292.296 C 327.537 296.823 328.487 300.373 330.387 302.946 ZM 377.301 313.126 C 371.681 313.126 368.871 309.953 368.871 303.606 L 368.871 278.256 L 362.401 278.256 L 362.401 272.326 L 368.871 272.326 L 368.871 259.146 L 375.661 255.866 L 375.661 272.326 L 385.491 272.326 L 385.491 278.256 L 375.661 278.256 L 375.661 301.346 C 375.661 303.113 375.948 304.463 376.521 305.396 C 377.094 306.336 378.184 306.806 379.791 306.806 C 381.564 306.806 383.541 306.103 385.721 304.696 L 384.941 311.326 C 382.654 312.526 380.108 313.126 377.301 313.126 ZM 402.493 312.186 L 395.703 312.186 L 395.703 258.986 L 402.493 255.866 L 402.493 276.466 C 404.94 273.086 408.373 271.396 412.793 271.396 C 417.473 271.396 421.02 272.813 423.433 275.646 C 425.853 278.479 427.063 283.016 427.063 289.256 L 427.063 312.186 L 420.273 312.186 L 420.273 288.086 C 420.273 284.499 419.506 281.859 417.973 280.166 C 416.44 278.479 414.346 277.636 411.693 277.636 C 405.56 277.636 402.493 281.066 402.493 287.926 L 402.493 312.186 ZM 454.987 313.126 C 449.58 313.126 445.277 311.186 442.077 307.306 C 438.877 303.433 437.277 298.403 437.277 292.216 C 437.277 285.716 438.89 280.619 442.117 276.926 C 445.344 273.239 449.634 271.396 454.987 271.396 C 459.774 271.396 463.714 272.993 466.807 276.186 C 469.9 279.386 471.447 284.106 471.447 290.346 C 471.447 291.799 471.367 293.306 471.207 294.866 L 444.227 294.866 C 444.487 298.506 445.617 301.433 447.617 303.646 C 449.617 305.853 452.127 306.956 455.147 306.956 C 458.474 306.956 461.334 305.763 463.727 303.376 L 467.857 307.976 C 464.424 311.409 460.134 313.126 454.987 313.126 Z M 444.147 289.096 L 464.577 289.096 C 464.53 284.989 463.557 282.013 461.657 280.166 C 459.757 278.319 457.534 277.396 454.987 277.396 C 451.92 277.396 449.397 278.373 447.417 280.326 C 445.444 282.273 444.354 285.196 444.147 289.096 ZM 488.371 312.186 L 481.581 312.186 L 481.581 272.326 L 488.371 272.326 L 488.371 277.556 C 490.244 273.449 493.391 271.396 497.811 271.396 C 500.304 271.396 502.358 272.069 503.971 273.416 L 502.961 279.816 C 501.294 278.669 499.394 278.096 497.261 278.096 C 494.921 278.096 492.854 279.006 491.061 280.826 C 489.268 282.646 488.371 285.613 488.371 289.726 L 488.371 312.186 Z" style="white-space: pre; fill: rgb(45, 57, 88);"/>
</svg>