<?xml version="1.0" encoding="utf-8"?>
<svg viewBox="0 0 590 370" xmlns="http://www.w3.org/2000/svg">
  <g transform="matrix(0.994624, 0, 0, 1.003593, -3.589117, -9.016098)">
    <path style=" stroke:none;fill-rule:nonzero;fill:rgb(30.198669%,29.798889%,29.798889%);fill-opacity:1;" d="M 351.676 152.188 C 351.418 151.93 351.137 151.7 350.836 151.496 C 350.715 151.418 350.586 151.36 350.457 151.289 C 350.274 151.192 350.094 151.078 349.899 150.992 C 349.727 150.926 349.551 150.887 349.371 150.832 C 349.207 150.782 349.051 150.719 348.883 150.688 C 348.535 150.617 348.172 150.578 347.821 150.578 C 347.461 150.578 347.102 150.617 346.75 150.688 C 346.594 150.719 346.45 150.774 346.297 150.821 C 346.106 150.875 345.914 150.918 345.731 150.996 C 345.547 151.071 345.387 151.176 345.215 151.27 C 345.075 151.344 344.93 151.407 344.793 151.496 C 344.489 151.696 344.211 151.93 343.957 152.188 L 328.215 167.969 C 326.086 170.102 326.086 173.559 328.215 175.688 C 329.278 176.754 330.672 177.289 332.067 177.289 C 333.457 177.289 334.852 176.754 335.914 175.688 L 342.368 169.219 L 342.368 195.539 C 342.368 198.555 344.805 201 347.813 201 C 350.821 201 353.258 198.555 353.258 195.539 L 353.258 169.215 L 359.707 175.684 C 360.774 176.75 362.168 177.285 363.559 177.285 C 364.95 177.285 366.34 176.75 367.407 175.684 C 369.535 173.551 369.535 170.098 367.407 167.969 Z M 351.676 152.188"/>
    <path style=" stroke:none;fill-rule:nonzero;fill:rgb(30.198669%,29.798889%,29.798889%);fill-opacity:1;" d="M 379.91 143.039 C 371.336 134.446 359.941 129.715 347.816 129.715 L 347.809 129.715 C 322.785 129.715 302.43 150.129 302.43 175.219 C 302.43 200.309 322.785 220.723 347.812 220.723 C 372.844 220.723 393.203 200.301 393.203 175.211 C 393.203 163.059 388.484 151.633 379.91 143.039 Z M 347.812 209.801 C 328.793 209.801 313.32 194.285 313.32 175.215 C 313.32 156.149 328.793 140.633 347.82 140.633 L 347.824 140.633 C 357.031 140.633 365.695 144.227 372.211 150.762 C 378.727 157.293 382.312 165.977 382.312 175.211 C 382.312 194.285 366.836 209.801 347.812 209.801 Z M 347.812 209.801"/>
    <path style=" stroke:none;fill-rule:nonzero;fill:rgb(30.198669%,29.798889%,29.798889%);fill-opacity:1;" d="M 292.738 187.434 L 245.418 187.434 C 230.352 187.434 218.098 175.145 218.098 160.043 C 218.098 150.34 223.078 141.563 231.43 136.547 C 233.152 135.516 234.168 133.621 234.078 131.614 L 234.039 131.024 C 234.031 130.887 234.016 130.746 234.016 130.606 C 234.016 115.707 246.102 103.59 260.961 103.59 C 262.602 103.59 264.309 103.758 266.031 104.09 C 268.664 104.586 271.258 103.11 272.172 100.59 C 277.246 86.598 290.633 77.199 305.488 77.199 C 324.543 77.199 340.098 92.149 340.887 111.227 C 341.004 114.02 343.203 116.27 345.988 116.45 C 355.109 117.032 363.562 121.067 369.781 127.825 C 371.82 130.039 375.262 130.18 377.473 128.133 C 379.68 126.094 379.82 122.637 377.785 120.422 C 370.727 112.754 361.469 107.766 351.344 106.09 C 348.129 83.418 328.82 66.278 305.488 66.278 C 287.555 66.278 271.254 76.758 263.641 92.77 C 262.738 92.703 261.848 92.668 260.961 92.668 C 240.652 92.668 224.031 108.789 223.16 128.938 C 213.113 136.129 207.203 147.535 207.203 160.039 C 207.203 181.16 224.348 198.348 245.418 198.348 L 292.738 198.348 C 295.746 198.348 298.184 195.907 298.184 192.887 C 298.184 189.875 295.746 187.434 292.738 187.434 Z M 292.738 187.434"/>
  </g>
  <path d="M 94.308 312.186 L 87.918 312.186 L 87.918 308.516 C 84.638 311.589 80.868 313.126 76.608 313.126 C 72.395 313.126 69.028 311.966 66.508 309.646 C 63.981 307.333 62.718 304.019 62.718 299.706 C 62.718 295.393 64.148 292.116 67.008 289.876 C 69.868 287.643 73.405 286.526 77.618 286.526 C 81.465 286.526 84.898 287.383 87.918 289.096 L 87.918 286.286 C 87.918 282.959 87.178 280.633 85.698 279.306 C 84.211 277.979 82.065 277.316 79.258 277.316 C 75.251 277.316 71.378 278.643 67.638 281.296 L 65.688 275.606 C 69.948 272.799 74.758 271.396 80.118 271.396 C 89.578 271.396 94.308 276.179 94.308 285.746 L 94.308 312.186 Z M 77.618 307.116 C 81.518 307.116 84.951 305.373 87.918 301.886 L 87.918 295.026 C 85.058 293.259 81.938 292.376 78.558 292.376 C 75.798 292.376 73.535 292.999 71.768 294.246 C 70.001 295.493 69.118 297.313 69.118 299.706 C 69.118 301.939 69.858 303.733 71.338 305.086 C 72.825 306.439 74.918 307.116 77.618 307.116 ZM 120.206 313.126 C 115.166 313.126 111.163 311.253 108.196 307.506 C 105.229 303.759 103.746 298.663 103.746 292.216 C 103.746 285.716 105.243 280.619 108.236 276.926 C 111.223 273.239 115.213 271.396 120.206 271.396 C 124.106 271.396 127.459 272.643 130.266 275.136 L 130.266 259.066 L 137.056 255.866 L 137.056 312.186 L 130.266 312.186 L 130.266 309.066 C 127.666 311.773 124.313 313.126 120.206 313.126 Z M 121.146 306.806 C 125.099 306.806 128.139 305.013 130.266 301.426 L 130.266 282.706 C 128.139 279.326 125.099 277.636 121.146 277.636 C 117.766 277.636 115.166 278.896 113.346 281.416 C 111.526 283.936 110.616 287.536 110.616 292.216 C 110.616 296.429 111.566 299.913 113.466 302.666 C 115.359 305.426 117.919 306.806 121.146 306.806 ZM 164.042 313.126 C 159.002 313.126 154.999 311.253 152.032 307.506 C 149.065 303.759 147.582 298.663 147.582 292.216 C 147.582 285.716 149.079 280.619 152.072 276.926 C 155.059 273.239 159.049 271.396 164.042 271.396 C 167.942 271.396 171.295 272.643 174.102 275.136 L 174.102 259.066 L 180.892 255.866 L 180.892 312.186 L 174.102 312.186 L 174.102 309.066 C 171.502 311.773 168.149 313.126 164.042 313.126 Z M 164.982 306.806 C 168.935 306.806 171.975 305.013 174.102 301.426 L 174.102 282.706 C 171.975 279.326 168.935 277.636 164.982 277.636 C 161.602 277.636 159.002 278.896 157.182 281.416 C 155.362 283.936 154.452 287.536 154.452 292.216 C 154.452 296.429 155.402 299.913 157.302 302.666 C 159.195 305.426 161.755 306.806 164.982 306.806 ZM 229.098 313.126 C 225.298 313.126 221.891 311.669 218.878 308.756 L 218.878 312.186 L 212.088 312.186 L 212.088 259.066 L 218.878 255.866 L 218.878 275.756 C 221.531 272.849 224.858 271.396 228.858 271.396 C 233.851 271.396 237.858 273.239 240.878 276.926 C 243.891 280.619 245.398 285.716 245.398 292.216 C 245.398 298.923 243.955 304.083 241.068 307.696 C 238.181 311.316 234.191 313.126 229.098 313.126 Z M 228.158 306.806 C 231.538 306.806 234.101 305.519 235.848 302.946 C 237.588 300.373 238.458 296.796 238.458 292.216 C 238.458 287.483 237.588 283.869 235.848 281.376 C 234.101 278.883 231.538 277.636 228.158 277.636 C 226.078 277.636 224.208 278.179 222.548 279.266 C 220.881 280.359 219.658 281.583 218.878 282.936 L 218.878 301.426 C 219.865 303.086 221.191 304.396 222.858 305.356 C 224.518 306.323 226.285 306.806 228.158 306.806 ZM 285.174 312.186 L 278.784 312.186 L 278.784 308.516 C 275.504 311.589 271.734 313.126 267.474 313.126 C 263.261 313.126 259.894 311.966 257.374 309.646 C 254.847 307.333 253.584 304.019 253.584 299.706 C 253.584 295.393 255.014 292.116 257.874 289.876 C 260.734 287.643 264.271 286.526 268.484 286.526 C 272.331 286.526 275.764 287.383 278.784 289.096 L 278.784 286.286 C 278.784 282.959 278.044 280.633 276.564 279.306 C 275.077 277.979 272.931 277.316 270.124 277.316 C 266.117 277.316 262.244 278.643 258.504 281.296 L 256.554 275.606 C 260.814 272.799 265.624 271.396 270.984 271.396 C 280.444 271.396 285.174 276.179 285.174 285.746 L 285.174 312.186 Z M 268.484 307.116 C 272.384 307.116 275.817 305.373 278.784 301.886 L 278.784 295.026 C 275.924 293.259 272.804 292.376 269.424 292.376 C 266.664 292.376 264.401 292.999 262.634 294.246 C 260.867 295.493 259.984 297.313 259.984 299.706 C 259.984 301.939 260.724 303.733 262.204 305.086 C 263.691 306.439 265.784 307.116 268.484 307.116 ZM 311.152 313.126 C 306.059 313.126 302.029 311.293 299.062 307.626 C 296.095 303.959 294.612 298.849 294.612 292.296 C 294.612 285.743 296.109 280.619 299.102 276.926 C 302.089 273.239 306.209 271.396 311.462 271.396 C 318.535 271.396 323.189 274.489 325.422 280.676 L 319.032 283.016 C 317.679 279.476 315.182 277.706 311.542 277.706 C 308.215 277.706 305.719 278.983 304.052 281.536 C 302.392 284.083 301.562 287.669 301.562 292.296 C 301.562 296.869 302.392 300.419 304.052 302.946 C 305.719 305.466 308.139 306.726 311.312 306.726 C 315.472 306.726 318.175 304.749 319.422 300.796 L 325.742 302.906 C 324.749 306.179 322.992 308.699 320.472 310.466 C 317.952 312.239 314.845 313.126 311.152 313.126 ZM 353.352 283.166 L 368.322 312.186 L 360.912 312.186 L 348.592 288.086 L 342.742 294.166 L 342.742 312.186 L 335.952 312.186 L 335.952 259.066 L 342.742 255.866 L 342.742 286.056 L 355.692 272.326 L 363.802 272.326 L 353.352 283.166 ZM 407.48 313.126 C 404.62 313.126 401.903 312.513 399.33 311.286 C 396.757 310.066 394.663 308.443 393.05 306.416 L 397.89 302.276 C 400.85 305.449 404.1 307.036 407.64 307.036 C 409.873 307.036 411.667 306.609 413.02 305.756 C 414.373 304.896 415.05 303.633 415.05 301.966 C 415.05 300.719 414.557 299.589 413.57 298.576 C 412.577 297.563 411.56 296.809 410.52 296.316 C 409.48 295.823 407.947 295.186 405.92 294.406 C 401.867 292.893 398.8 291.203 396.72 289.336 C 394.64 287.463 393.6 284.993 393.6 281.926 C 393.6 278.699 394.86 276.136 397.38 274.236 C 399.9 272.343 403.11 271.396 407.01 271.396 C 412.577 271.396 417.05 273.396 420.43 277.396 L 415.75 281.296 C 413.303 278.749 410.367 277.476 406.94 277.476 C 404.907 277.476 403.293 277.866 402.1 278.646 C 400.907 279.426 400.31 280.519 400.31 281.926 C 400.31 282.706 400.503 283.419 400.89 284.066 C 401.283 284.719 401.987 285.329 403 285.896 C 404.013 286.469 404.817 286.899 405.41 287.186 C 406.01 287.473 407.117 287.929 408.73 288.556 C 412.943 290.063 416.153 291.776 418.36 293.696 C 420.573 295.623 421.68 298.329 421.68 301.816 C 421.68 305.349 420.407 308.116 417.86 310.116 C 415.307 312.123 411.847 313.126 407.48 313.126 ZM 438.762 263.866 C 437.929 264.673 436.915 265.076 435.722 265.076 C 434.522 265.076 433.519 264.659 432.712 263.826 C 431.905 262.993 431.502 262.006 431.502 260.866 C 431.502 259.666 431.919 258.636 432.752 257.776 C 433.585 256.923 434.575 256.496 435.722 256.496 C 436.915 256.496 437.929 256.923 438.762 257.776 C 439.595 258.636 440.012 259.666 440.012 260.866 C 440.012 262.059 439.595 263.059 438.762 263.866 Z M 439.152 312.186 L 432.362 312.186 L 432.362 272.326 L 439.152 272.326 L 439.152 312.186 ZM 466.214 313.126 C 461.174 313.126 457.171 311.253 454.204 307.506 C 451.237 303.759 449.754 298.663 449.754 292.216 C 449.754 285.716 451.251 280.619 454.244 276.926 C 457.231 273.239 461.221 271.396 466.214 271.396 C 470.114 271.396 473.467 272.643 476.274 275.136 L 476.274 259.066 L 483.064 255.866 L 483.064 312.186 L 476.274 312.186 L 476.274 309.066 C 473.674 311.773 470.321 313.126 466.214 313.126 Z M 467.154 306.806 C 471.107 306.806 474.147 305.013 476.274 301.426 L 476.274 282.706 C 474.147 279.326 471.107 277.636 467.154 277.636 C 463.774 277.636 461.174 278.896 459.354 281.416 C 457.534 283.936 456.624 287.536 456.624 292.216 C 456.624 296.429 457.574 299.913 459.474 302.666 C 461.367 305.426 463.927 306.806 467.154 306.806 ZM 511.3 313.126 C 505.893 313.126 501.59 311.186 498.39 307.306 C 495.19 303.433 493.59 298.403 493.59 292.216 C 493.59 285.716 495.203 280.619 498.43 276.926 C 501.657 273.239 505.947 271.396 511.3 271.396 C 516.087 271.396 520.027 272.993 523.12 276.186 C 526.213 279.386 527.76 284.106 527.76 290.346 C 527.76 291.799 527.68 293.306 527.52 294.866 L 500.54 294.866 C 500.8 298.506 501.93 301.433 503.93 303.646 C 505.93 305.853 508.44 306.956 511.46 306.956 C 514.787 306.956 517.647 305.763 520.04 303.376 L 524.17 307.976 C 520.737 311.409 516.447 313.126 511.3 313.126 Z M 500.46 289.096 L 520.89 289.096 C 520.843 284.989 519.87 282.013 517.97 280.166 C 516.07 278.319 513.847 277.396 511.3 277.396 C 508.233 277.396 505.71 278.373 503.73 280.326 C 501.757 282.273 500.667 285.196 500.46 289.096 Z" transform="matrix(1, 0, 0, 1, 0, 0)" style="fill: rgb(77, 76, 76); white-space: pre;"/>
</svg>