<?xml version="1.0" encoding="utf-8"?>
<svg viewBox="0 0 590 370" xmlns="http://www.w3.org/2000/svg">
  <g transform="matrix(0.994624, 0, 0, 1.003593, -3.589117, -9.016098)">
    <path style="stroke: none; fill-rule: nonzero; fill-opacity: 1; fill: rgb(107, 208, 157);" d="M 351.676 152.188 C 351.418 151.93 351.137 151.7 350.836 151.496 C 350.715 151.418 350.586 151.36 350.457 151.289 C 350.274 151.192 350.094 151.078 349.899 150.992 C 349.727 150.926 349.551 150.887 349.371 150.832 C 349.207 150.782 349.051 150.719 348.883 150.688 C 348.535 150.617 348.172 150.578 347.821 150.578 C 347.461 150.578 347.102 150.617 346.75 150.688 C 346.594 150.719 346.45 150.774 346.297 150.821 C 346.106 150.875 345.914 150.918 345.731 150.996 C 345.547 151.071 345.387 151.176 345.215 151.27 C 345.075 151.344 344.93 151.407 344.793 151.496 C 344.489 151.696 344.211 151.93 343.957 152.188 L 328.215 167.969 C 326.086 170.102 326.086 173.559 328.215 175.688 C 329.278 176.754 330.672 177.289 332.067 177.289 C 333.457 177.289 334.852 176.754 335.914 175.688 L 342.368 169.219 L 342.368 195.539 C 342.368 198.555 344.805 201 347.813 201 C 350.821 201 353.258 198.555 353.258 195.539 L 353.258 169.215 L 359.707 175.684 C 360.774 176.75 362.168 177.285 363.559 177.285 C 364.95 177.285 366.34 176.75 367.407 175.684 C 369.535 173.551 369.535 170.098 367.407 167.969 Z M 351.676 152.188"/>
    <path style="stroke: none; fill-rule: nonzero; fill-opacity: 1; fill: rgb(45, 57, 88);" d="M 379.91 143.039 C 371.336 134.446 359.941 129.715 347.816 129.715 L 347.809 129.715 C 322.785 129.715 302.43 150.129 302.43 175.219 C 302.43 200.309 322.785 220.723 347.812 220.723 C 372.844 220.723 393.203 200.301 393.203 175.211 C 393.203 163.059 388.484 151.633 379.91 143.039 Z M 347.812 209.801 C 328.793 209.801 313.32 194.285 313.32 175.215 C 313.32 156.149 328.793 140.633 347.82 140.633 L 347.824 140.633 C 357.031 140.633 365.695 144.227 372.211 150.762 C 378.727 157.293 382.312 165.977 382.312 175.211 C 382.312 194.285 366.836 209.801 347.812 209.801 Z M 347.812 209.801"/>
    <path style="stroke: none; fill-rule: nonzero; fill-opacity: 1; fill: rgb(107, 208, 157);" d="M 292.738 187.434 L 245.418 187.434 C 230.352 187.434 218.098 175.145 218.098 160.043 C 218.098 150.34 223.078 141.563 231.43 136.547 C 233.152 135.516 234.168 133.621 234.078 131.614 L 234.039 131.024 C 234.031 130.887 234.016 130.746 234.016 130.606 C 234.016 115.707 246.102 103.59 260.961 103.59 C 262.602 103.59 264.309 103.758 266.031 104.09 C 268.664 104.586 271.258 103.11 272.172 100.59 C 277.246 86.598 290.633 77.199 305.488 77.199 C 324.543 77.199 340.098 92.149 340.887 111.227 C 341.004 114.02 343.203 116.27 345.988 116.45 C 355.109 117.032 363.562 121.067 369.781 127.825 C 371.82 130.039 375.262 130.18 377.473 128.133 C 379.68 126.094 379.82 122.637 377.785 120.422 C 370.727 112.754 361.469 107.766 351.344 106.09 C 348.129 83.418 328.82 66.278 305.488 66.278 C 287.555 66.278 271.254 76.758 263.641 92.77 C 262.738 92.703 261.848 92.668 260.961 92.668 C 240.652 92.668 224.031 108.789 223.16 128.938 C 213.113 136.129 207.203 147.535 207.203 160.039 C 207.203 181.16 224.348 198.348 245.418 198.348 L 292.738 198.348 C 295.746 198.348 298.184 195.907 298.184 192.887 C 298.184 189.875 295.746 187.434 292.738 187.434 Z M 292.738 187.434"/>
  </g>
  <path d="M 90.488 312.186 L 84.098 312.186 L 84.098 308.516 C 80.818 311.589 77.048 313.126 72.788 313.126 C 68.575 313.126 65.208 311.966 62.688 309.646 C 60.161 307.333 58.898 304.019 58.898 299.706 C 58.898 295.393 60.328 292.116 63.188 289.876 C 66.048 287.643 69.585 286.526 73.798 286.526 C 77.645 286.526 81.078 287.383 84.098 289.096 L 84.098 286.286 C 84.098 282.959 83.358 280.633 81.878 279.306 C 80.391 277.979 78.245 277.316 75.438 277.316 C 71.431 277.316 67.558 278.643 63.818 281.296 L 61.868 275.606 C 66.128 272.799 70.938 271.396 76.298 271.396 C 85.758 271.396 90.488 276.179 90.488 285.746 L 90.488 312.186 Z M 73.798 307.116 C 77.698 307.116 81.131 305.373 84.098 301.886 L 84.098 295.026 C 81.238 293.259 78.118 292.376 74.738 292.376 C 71.978 292.376 69.715 292.999 67.948 294.246 C 66.181 295.493 65.298 297.313 65.298 299.706 C 65.298 301.939 66.038 303.733 67.518 305.086 C 69.005 306.439 71.098 307.116 73.798 307.116 ZM 116.386 313.126 C 111.346 313.126 107.343 311.253 104.376 307.506 C 101.409 303.759 99.926 298.663 99.926 292.216 C 99.926 285.716 101.423 280.619 104.416 276.926 C 107.403 273.239 111.393 271.396 116.386 271.396 C 120.286 271.396 123.639 272.643 126.446 275.136 L 126.446 259.066 L 133.236 255.866 L 133.236 312.186 L 126.446 312.186 L 126.446 309.066 C 123.846 311.773 120.493 313.126 116.386 313.126 Z M 117.326 306.806 C 121.279 306.806 124.319 305.013 126.446 301.426 L 126.446 282.706 C 124.319 279.326 121.279 277.636 117.326 277.636 C 113.946 277.636 111.346 278.896 109.526 281.416 C 107.706 283.936 106.796 287.536 106.796 292.216 C 106.796 296.429 107.746 299.913 109.646 302.666 C 111.539 305.426 114.099 306.806 117.326 306.806 ZM 160.222 313.126 C 155.182 313.126 151.179 311.253 148.212 307.506 C 145.245 303.759 143.762 298.663 143.762 292.216 C 143.762 285.716 145.259 280.619 148.252 276.926 C 151.239 273.239 155.229 271.396 160.222 271.396 C 164.122 271.396 167.475 272.643 170.282 275.136 L 170.282 259.066 L 177.072 255.866 L 177.072 312.186 L 170.282 312.186 L 170.282 309.066 C 167.682 311.773 164.329 313.126 160.222 313.126 Z M 161.162 306.806 C 165.115 306.806 168.155 305.013 170.282 301.426 L 170.282 282.706 C 168.155 279.326 165.115 277.636 161.162 277.636 C 157.782 277.636 155.182 278.896 153.362 281.416 C 151.542 283.936 150.632 287.536 150.632 292.216 C 150.632 296.429 151.582 299.913 153.482 302.666 C 155.375 305.426 157.935 306.806 161.162 306.806 ZM 226.598 278.256 L 217.318 278.256 L 217.318 312.186 L 210.538 312.186 L 210.538 278.256 L 204.368 278.256 L 204.368 272.326 L 210.538 272.326 L 210.538 265.696 C 210.538 262.476 211.368 260.163 213.028 258.756 C 214.695 257.349 216.748 256.646 219.188 256.646 C 221.788 256.646 224.258 257.273 226.598 258.526 L 226.598 264.216 C 224.471 263.229 222.575 262.736 220.908 262.736 C 219.455 262.736 218.491 263.099 218.018 263.826 C 217.551 264.553 217.318 265.566 217.318 266.866 L 217.318 272.326 L 226.598 272.326 L 226.598 278.256 ZM 241.032 312.186 L 234.242 312.186 L 234.242 272.326 L 241.032 272.326 L 241.032 277.556 C 242.905 273.449 246.052 271.396 250.472 271.396 C 252.965 271.396 255.019 272.069 256.632 273.416 L 255.622 279.816 C 253.955 278.669 252.055 278.096 249.922 278.096 C 247.582 278.096 245.515 279.006 243.722 280.826 C 241.929 282.646 241.032 285.613 241.032 289.726 L 241.032 312.186 ZM 292.744 307.546 C 289.571 311.266 285.281 313.126 279.874 313.126 C 274.467 313.126 270.177 311.279 267.004 307.586 C 263.831 303.893 262.244 298.796 262.244 292.296 C 262.244 285.796 263.831 280.686 267.004 276.966 C 270.177 273.253 274.467 271.396 279.874 271.396 C 285.281 271.396 289.571 273.239 292.744 276.926 C 295.917 280.619 297.504 285.716 297.504 292.216 C 297.504 298.716 295.917 303.826 292.744 307.546 Z M 271.964 302.946 C 273.857 305.519 276.494 306.806 279.874 306.806 C 283.254 306.806 285.894 305.519 287.794 302.946 C 289.694 300.373 290.644 296.796 290.644 292.216 C 290.644 287.696 289.694 284.136 287.794 281.536 C 285.894 278.936 283.254 277.636 279.874 277.636 C 276.494 277.636 273.857 278.923 271.964 281.496 C 270.064 284.069 269.114 287.669 269.114 292.296 C 269.114 296.823 270.064 300.373 271.964 302.946 ZM 339.468 312.186 L 332.678 312.186 L 332.678 288.086 C 332.678 284.499 331.911 281.859 330.378 280.166 C 328.845 278.479 326.751 277.636 324.098 277.636 C 317.965 277.636 314.898 281.066 314.898 287.926 L 314.898 312.186 L 308.108 312.186 L 308.108 272.326 L 314.898 272.326 L 314.898 276.386 C 317.345 273.059 320.778 271.396 325.198 271.396 C 329.878 271.396 333.425 272.813 335.838 275.646 C 338.258 278.479 339.468 283.016 339.468 289.256 L 339.468 312.186 ZM 362.792 313.126 C 357.172 313.126 354.362 309.953 354.362 303.606 L 354.362 278.256 L 347.892 278.256 L 347.892 272.326 L 354.362 272.326 L 354.362 259.146 L 361.152 255.866 L 361.152 272.326 L 370.982 272.326 L 370.982 278.256 L 361.152 278.256 L 361.152 301.346 C 361.152 303.113 361.439 304.463 362.012 305.396 C 362.585 306.336 363.675 306.806 365.282 306.806 C 367.055 306.806 369.032 306.103 371.212 304.696 L 370.432 311.326 C 368.145 312.526 365.599 313.126 362.792 313.126 ZM 411.304 313.126 C 408.444 313.126 405.727 312.513 403.154 311.286 C 400.581 310.066 398.487 308.443 396.874 306.416 L 401.714 302.276 C 404.674 305.449 407.924 307.036 411.464 307.036 C 413.697 307.036 415.491 306.609 416.844 305.756 C 418.197 304.896 418.874 303.633 418.874 301.966 C 418.874 300.719 418.381 299.589 417.394 298.576 C 416.401 297.563 415.384 296.809 414.344 296.316 C 413.304 295.823 411.771 295.186 409.744 294.406 C 405.691 292.893 402.624 291.203 400.544 289.336 C 398.464 287.463 397.424 284.993 397.424 281.926 C 397.424 278.699 398.684 276.136 401.204 274.236 C 403.724 272.343 406.934 271.396 410.834 271.396 C 416.401 271.396 420.874 273.396 424.254 277.396 L 419.574 281.296 C 417.127 278.749 414.191 277.476 410.764 277.476 C 408.731 277.476 407.117 277.866 405.924 278.646 C 404.731 279.426 404.134 280.519 404.134 281.926 C 404.134 282.706 404.327 283.419 404.714 284.066 C 405.107 284.719 405.811 285.329 406.824 285.896 C 407.837 286.469 408.641 286.899 409.234 287.186 C 409.834 287.473 410.941 287.929 412.554 288.556 C 416.767 290.063 419.977 291.776 422.184 293.696 C 424.397 295.623 425.504 298.329 425.504 301.816 C 425.504 305.349 424.231 308.116 421.684 310.116 C 419.131 312.123 415.671 313.126 411.304 313.126 ZM 442.586 263.866 C 441.753 264.673 440.739 265.076 439.546 265.076 C 438.346 265.076 437.343 264.659 436.536 263.826 C 435.729 262.993 435.326 262.006 435.326 260.866 C 435.326 259.666 435.743 258.636 436.576 257.776 C 437.409 256.923 438.399 256.496 439.546 256.496 C 440.739 256.496 441.753 256.923 442.586 257.776 C 443.419 258.636 443.836 259.666 443.836 260.866 C 443.836 262.059 443.419 263.059 442.586 263.866 Z M 442.976 312.186 L 436.186 312.186 L 436.186 272.326 L 442.976 272.326 L 442.976 312.186 ZM 470.038 313.126 C 464.998 313.126 460.995 311.253 458.028 307.506 C 455.061 303.759 453.578 298.663 453.578 292.216 C 453.578 285.716 455.075 280.619 458.068 276.926 C 461.055 273.239 465.045 271.396 470.038 271.396 C 473.938 271.396 477.291 272.643 480.098 275.136 L 480.098 259.066 L 486.888 255.866 L 486.888 312.186 L 480.098 312.186 L 480.098 309.066 C 477.498 311.773 474.145 313.126 470.038 313.126 Z M 470.978 306.806 C 474.931 306.806 477.971 305.013 480.098 301.426 L 480.098 282.706 C 477.971 279.326 474.931 277.636 470.978 277.636 C 467.598 277.636 464.998 278.896 463.178 281.416 C 461.358 283.936 460.448 287.536 460.448 292.216 C 460.448 296.429 461.398 299.913 463.298 302.666 C 465.191 305.426 467.751 306.806 470.978 306.806 ZM 515.124 313.126 C 509.717 313.126 505.414 311.186 502.214 307.306 C 499.014 303.433 497.414 298.403 497.414 292.216 C 497.414 285.716 499.027 280.619 502.254 276.926 C 505.481 273.239 509.771 271.396 515.124 271.396 C 519.911 271.396 523.851 272.993 526.944 276.186 C 530.037 279.386 531.584 284.106 531.584 290.346 C 531.584 291.799 531.504 293.306 531.344 294.866 L 504.364 294.866 C 504.624 298.506 505.754 301.433 507.754 303.646 C 509.754 305.853 512.264 306.956 515.284 306.956 C 518.611 306.956 521.471 305.763 523.864 303.376 L 527.994 307.976 C 524.561 311.409 520.271 313.126 515.124 313.126 Z M 504.284 289.096 L 524.714 289.096 C 524.667 284.989 523.694 282.013 521.794 280.166 C 519.894 278.319 517.671 277.396 515.124 277.396 C 512.057 277.396 509.534 278.373 507.554 280.326 C 505.581 282.273 504.491 285.196 504.284 289.096 Z" style="white-space: pre; fill: rgb(45, 57, 88);"/>
</svg>