<?xml version="1.0" encoding="utf-8"?>
<svg id="Capa_1" enable-background="new 0 0 512 512" height="512" viewBox="0 0 512 512" width="512" xmlns="http://www.w3.org/2000/svg">
  <g>
    <g>
      <g>
        <g>
          <path d="m417.04 340.85c0-28.168-10.434-60.226-31.011-95.284-2.097-3.573-6.691-4.767-10.265-2.672-3.572 2.097-4.768 6.692-2.671 10.265 19.207 32.725 28.946 62.229 28.946 87.691 0 23.941-9.071 46.436-24.767 63.434.236-.722.464-1.439.68-2.148 8.105-26.576 4.807-49.326 4.662-50.282-.298-1.968-1.366-3.738-2.969-4.918-1.604-1.18-3.606-1.676-5.578-1.375-3.365.513-6.615 1.117-9.763 1.79.128-2.162.215-4.33.215-6.502 0-17.178-3.924-35.984-11.662-55.896-1.499-3.86-5.845-5.772-9.707-4.274-3.86 1.5-5.774 5.847-4.273 9.708 7.062 18.172 10.643 35.15 10.643 50.462 0 3.565-.213 7.119-.61 10.621-24.169 7.832-40.532 19.945-50.498 29.493-6.89-43.502-35.947-70.624-37.343-71.904-2.869-2.628-7.268-2.628-10.137 0-1.396 1.28-30.453 28.402-37.343 71.904-9.966-9.549-26.329-21.661-50.498-29.493-.397-3.502-.61-7.056-.61-10.621 0-69.777 73.171-150.179 93.523-171.189 12.553 12.938 45.174 48.407 68.271 89.982 2.013 3.621 6.577 4.927 10.199 2.914 3.621-2.012 4.925-6.578 2.913-10.198-13.93-25.075-30.863-47.682-45.232-64.927 6.76-7.71 12.515-13.808 16.375-17.78 8.806 9.068 27.492 29.219 45.757 54.703 1.464 2.043 3.766 3.131 6.102 3.131 1.513 0 3.04-.456 4.363-1.404 3.366-2.413 4.14-7.098 1.727-10.465-25.799-35.999-51.664-60.961-52.753-62.006-2.903-2.787-7.489-2.787-10.391.002-.409.393-8.935 8.614-21.046 22.323-11.809-13.358-20.298-21.561-21.093-22.325-2.902-2.786-7.486-2.786-10.389 0-.604.58-9.128 8.808-21.08 22.341-12.119-13.719-20.651-21.946-21.06-22.339-2.901-2.788-7.487-2.79-10.391-.002-1.089 1.045-26.954 26.008-52.753 62.006-2.413 3.367-1.64 8.052 1.727 10.465 1.323.948 2.85 1.404 4.363 1.404 2.335 0 4.638-1.088 6.102-3.131 18.266-25.486 36.952-45.637 45.758-54.704 3.859 3.97 9.615 10.069 16.392 17.8-6.456 7.752-13.435 16.59-20.446 26.265-34.463 47.558-51.937 90.332-51.937 127.135 0 2.172.087 4.34.215 6.502-3.149-.674-6.398-1.277-9.763-1.79-1.97-.301-3.975.195-5.578 1.375-1.603 1.181-2.671 2.95-2.969 4.918-.145.956-3.443 23.706 4.662 50.282.216.709.445 1.426.68 2.148-15.696-16.998-24.767-39.493-24.767-63.434 0-25.462 9.739-54.966 28.946-87.691 2.097-3.572.901-8.168-2.671-10.265-3.574-2.096-8.168-.9-10.265 2.672-20.577 35.058-31.011 67.116-31.011 95.284 0 39.723 21.524 76.01 56.272 95.118 11.85 15.588 30.031 30.296 57.949 39.281l19.116 6.372v22.878c0 4.142 3.357 7.5 7.5 7.5s7.5-3.358 7.5-7.5v-28.285c0-3.228-2.065-6.094-5.128-7.115l-24.318-8.105c-33.767-10.868-55.734-31.964-65.293-62.703-4.579-14.728-5.125-28.347-4.894-36.467 49.23 10.207 68.768 40.261 69.6 41.577 1.769 2.844 5.212 4.173 8.429 3.252 3.221-.919 5.441-3.863 5.441-7.212 0-36.058 19.423-62.962 28.881-73.923 9.469 10.925 28.852 37.716 28.852 73.923 0 3.338 2.214 6.262 5.421 7.191 3.204.929 6.648-.385 8.434-3.207.847-1.339 20.384-31.395 69.615-41.602.231 8.124-.314 21.741-4.894 36.467-9.559 30.739-31.526 51.835-65.367 62.727l-24.244 8.081c-3.062 1.021-5.128 3.887-5.128 7.115v28.286c0 4.142 3.357 7.5 7.5 7.5s7.5-3.358 7.5-7.5v-22.879l19.042-6.348c27.959-8.998 46.158-23.711 58.016-39.301 34.75-19.106 56.277-55.396 56.277-95.122z" style="fill: rgb(45, 57, 88);"/>
          <path d="m256 116.016c13.604 0 24.673-11.068 24.673-24.673s-11.069-24.672-24.673-24.672-24.673 11.068-24.673 24.672 11.069 24.673 24.673 24.673zm0-34.345c5.334 0 9.673 4.339 9.673 9.672s-4.339 9.673-9.673 9.673-9.673-4.339-9.673-9.673 4.339-9.672 9.673-9.672z" style="fill: rgb(107, 208, 157);"/>
          <path d="m324.691 94.803c13.604 0 24.673-11.068 24.673-24.673s-11.068-24.672-24.673-24.672-24.673 11.068-24.673 24.672 11.069 24.673 24.673 24.673zm0-34.345c5.334 0 9.673 4.339 9.673 9.672s-4.339 9.673-9.673 9.673-9.673-4.339-9.673-9.673 4.339-9.672 9.673-9.672z" style="fill: rgb(107, 208, 157);"/>
          <path d="m336.384 131.75c0 13.604 11.068 24.673 24.673 24.673s24.673-11.068 24.673-24.673-11.068-24.673-24.673-24.673-24.673 11.069-24.673 24.673zm24.673-9.673c5.334 0 9.673 4.339 9.673 9.673s-4.339 9.673-9.673 9.673-9.673-4.339-9.673-9.673 4.339-9.673 9.673-9.673z" style="fill: rgb(107, 208, 157);"/>
          <path d="m187.309 94.803c13.604 0 24.673-11.068 24.673-24.673s-11.068-24.672-24.673-24.672-24.673 11.068-24.673 24.672 11.068 24.673 24.673 24.673zm0-34.345c5.334 0 9.673 4.339 9.673 9.672s-4.339 9.673-9.673 9.673-9.673-4.339-9.673-9.673 4.339-9.672 9.673-9.672z" style="fill: rgb(107, 208, 157);"/>
          <path d="m150.943 156.423c13.604 0 24.673-11.068 24.673-24.673s-11.068-24.673-24.673-24.673-24.673 11.068-24.673 24.673 11.069 24.673 24.673 24.673zm0-34.346c5.334 0 9.673 4.339 9.673 9.673s-4.339 9.673-9.673 9.673-9.673-4.339-9.673-9.673 4.339-9.673 9.673-9.673z" style="fill: rgb(107, 208, 157);"/>
          <path d="m256 49.346c13.604 0 24.673-11.068 24.673-24.673s-11.069-24.673-24.673-24.673-24.673 11.068-24.673 24.673 11.069 24.673 24.673 24.673zm0-34.346c5.334 0 9.673 4.339 9.673 9.673s-4.339 9.673-9.673 9.673-9.673-4.339-9.673-9.673 4.339-9.673 9.673-9.673z" style="fill: rgb(107, 208, 157);"/>
        </g>
      </g>
    </g>
  </g>
</svg>