<?xml version="1.0" encoding="utf-8"?>
<svg id="_x31__px" height="512" viewBox="0 0 24 24" width="512" xmlns="http://www.w3.org/2000/svg">
  <g>
    <path d="m3.5 14.06c-1.378 0-2.5-1.121-2.5-2.5s1.122-2.5 2.5-2.5v1c-.827 0-1.5.673-1.5 1.5 0 .842.701 1.504 1.545 1.5.045 0 .09-.001.135-.006l.121.992c-.1.013-.201.014-.301.014z" style="fill: rgb(45, 57, 88);"/>
  </g>
  <g>
    <path d="m20.5 14.06c-.1 0-.201-.001-.301-.014l.121-.992c.06.007.119.006.18.006.827 0 1.5-.673 1.5-1.5s-.673-1.5-1.5-1.5v-1c1.378 0 2.5 1.121 2.5 2.5s-1.122 2.5-2.5 2.5z" style="fill: rgb(45, 57, 88);"/>
  </g>
  <g>
    <path d="m12 21c-.41 0-.814-.032-1.202-.097-.272-.045-.457-.303-.412-.575.045-.271.299-.459.575-.411.334.055.684.083 1.039.083 4.287 0 7.051-3.383 7.804-6.526.13-.575.196-1.184.196-1.804v-4.66c0-4.129-4.147-6.01-8-6.01s-8 1.881-8 6.01v4.66c0 .62.066 1.229.198 1.81.284 1.185.831 2.334 1.58 3.317.167.22.125.533-.095.7-.22.169-.534.126-.701-.095-.832-1.093-1.44-2.37-1.758-3.696-.149-.658-.224-1.342-.224-2.036v-4.66c0-4.817 4.666-7.01 9-7.01s9 2.193 9 7.01v4.66c0 .694-.075 1.378-.222 2.03-.843 3.519-3.949 7.3-8.778 7.3z" style="fill: rgb(45, 57, 88);"/>
  </g>
  <g>
    <path d="m20.429 9.995-2.8-.4c-2.62-.374-5.104-1.551-7.058-3.335-1.357 1.782-3.292 2.994-5.508 3.437l-1.465.293-.196-.98 1.464-.293c2.149-.431 4.002-1.671 5.218-3.494.083-.125.218-.205.367-.221.153-.008.297.038.403.145 1.859 1.859 4.316 3.087 6.917 3.458l2.8.4z" style="fill: rgb(45, 57, 88);"/>
  </g>
  <g>
    <path d="m7.5 13c-.184 0-.36-.102-.448-.276-.124-.247-.023-.547.224-.671l1.106-.553-1.105-.553c-.247-.124-.347-.424-.224-.671.124-.246.424-.348.671-.224l2 1c.169.086.276.259.276.448s-.107.362-.276.447l-2 1c-.072.036-.148.053-.224.053z" style="fill: rgb(107, 208, 157);"/>
  </g>
  <g>
    <path d="m16.5 13c-.075 0-.151-.017-.223-.053l-2-1c-.17-.085-.277-.258-.277-.447s.107-.362.276-.447l2-1c.247-.124.547-.022.671.224.124.247.023.547-.224.671l-1.105.552 1.105.553c.247.124.347.424.224.671-.088.174-.264.276-.447.276z" style="fill: rgb(107, 208, 157);"/>
  </g>
  <g>
    <path d="m8.165 24c-.021 0-.042-.001-.063-.004-.164-.021-.308-.122-.382-.27-.951-1.865-2.834-2.783-5.162-2.51-.176.019-.347-.053-.454-.192-.107-.14-.133-.325-.068-.489 1.143-2.885 3.984-5.043 8.445-6.412.971-.301 2.015-.048 2.728.649 1 .982 1.057 2.573.131 3.623l-4.8 5.436c-.096.108-.232.169-.375.169zm-4.838-3.829c2.082 0 3.845.889 4.919 2.482l4.343-4.92c.574-.65.538-1.638-.082-2.247-.45-.441-1.116-.596-1.733-.408-3.755 1.153-6.262 2.864-7.467 5.093z" style="fill: rgb(107, 208, 157);"/>
  </g>
</svg>