<?xml version="1.0" encoding="utf-8"?>
<svg id="Icons" height="512" viewBox="0 0 74 74" width="512" xmlns="http://www.w3.org/2000/svg">
  <path d="m64.291 71.5h-27.184a2.389 2.389 0 0 1 -2.388-2.271l-.294-5.235-1.725-.344a11.9 11.9 0 0 1 -9.368-6.1l-1.177-2.26a1 1 0 0 1 .575-1.412l2.6-.85a1.315 1.315 0 0 0 -.026-2.506l-4.334-1.322a1 1 0 0 1 -.665-1.245l1.4-4.665a27.808 27.808 0 0 1 -8.626-2.138 1 1 0 0 1 -.241-1.671c4.207-3.608 6-8.047 5.594-10.567a20.747 20.747 0 0 1 .082-7.029c2.011-11.011 13.154-19.345 25.922-19.385h.092a28.076 28.076 0 0 1 19.787 7.848 21.591 21.591 0 0 1 6.573 15.3 25.141 25.141 0 0 1 -2.3 9.429 63.84 63.84 0 0 0 -2.49 7.889l-.373 1.385c-1.595 5.872-1.508 15.329 1.745 22.044a3.542 3.542 0 0 1 -3.181 5.1zm-39.818-16.088.632 1.213a10.1 10.1 0 0 0 7.9 5.05l2.571.508a1 1 0 0 1 .8.925l.337 6.011v.008a.391.391 0 0 0 .391.373h27.187a1.509 1.509 0 0 0 1.3-.718 1.535 1.535 0 0 0 .078-1.51c-3.467-7.158-3.568-17.21-1.875-23.44l.37-1.378a66.638 66.638 0 0 1 2.567-8.12 23.081 23.081 0 0 0 2.154-8.681 19.606 19.606 0 0 0 -5.985-13.889 26.049 26.049 0 0 0 -18.459-7.264c-11.818.037-22.118 7.665-23.957 17.744a18.755 18.755 0 0 0 -.076 6.353c.438 2.721-1 7.263-5.06 11.291a23.35 23.35 0 0 0 7.68 1.436 1.035 1.035 0 0 1 .812.4 1 1 0 0 1 .159.89l-1.493 4.966 3.38 1.031a3.315 3.315 0 0 1 .064 6.32z" style="fill: rgb(45, 57, 88);"/>
  <path d="m60.129 42.5a1 1 0 0 1 -.969-1.248 73.193 73.193 0 0 1 2.631-8.607 20.1 20.1 0 0 0 1.724-6.8c0-5.778-3.628-11.122-9.469-13.947a1 1 0 1 1 .871-1.8c6.537 3.162 10.6 9.2 10.6 15.747a21.616 21.616 0 0 1 -1.857 7.514 71.332 71.332 0 0 0 -2.56 8.387 1 1 0 0 1 -.971.754z" style="fill: rgb(107, 208, 157);"/>
  <path d="m5.423 57.14a1 1 0 0 1 -.2-1.979l9.469-1.961a1 1 0 1 1 .407 1.958l-9.472 1.961a1.017 1.017 0 0 1 -.204.021z" style="fill: rgb(107, 208, 157);"/>
  <path d="m7.364 64.925a1 1 0 0 1 -.42-1.907l8.56-3.956a1 1 0 1 1 .839 1.815l-8.56 3.956a.991.991 0 0 1 -.419.092z" style="fill: rgb(107, 208, 157);"/>
  <path d="m13.476 49.622c-.03 0-.06 0-.09 0l-9.364-.84a1 1 0 0 1 .178-1.996l9.363.84a1 1 0 0 1 -.088 2z" style="fill: rgb(107, 208, 157);"/>
</svg>