<?xml version="1.0" encoding="utf-8"?>
<svg id="_x31__px" height="512" viewBox="0 0 24 24" width="512" xmlns="http://www.w3.org/2000/svg">
  <g>
    <path d="m3.5 14.06c-1.378 0-2.5-1.121-2.5-2.5s1.122-2.5 2.5-2.5v1c-.827 0-1.5.673-1.5 1.5 0 .842.719 1.504 1.545 1.5.045 0 .09-.001.135-.006l.121.992c-.1.013-.201.014-.301.014z" style="fill: rgb(45, 57, 88);"/>
  </g>
  <g>
    <path d="m20.5 14.06c-.1 0-.201-.001-.301-.014l.121-.992c.06.007.12.006.18.006.827 0 1.5-.673 1.5-1.5s-.673-1.5-1.5-1.5v-1c1.378 0 2.5 1.121 2.5 2.5s-1.122 2.5-2.5 2.5z" style="fill: rgb(45, 57, 88);"/>
  </g>
  <g>
    <path d="m16.61 19.56c-.158 0-.313-.074-.41-.213-.159-.226-.104-.538.122-.696 1.684-1.182 2.985-3.117 3.481-5.178.131-.574.197-1.183.197-1.803v-4.66c0-4.129-4.147-6.01-8-6.01s-8 1.881-8 6.01v4.66c0 .62.066 1.229.198 1.81.496 2.082 1.768 3.965 3.487 5.16.227.157.283.469.125.695-.158.227-.471.282-.696.125-1.919-1.333-3.337-3.431-3.891-5.754-.148-.658-.223-1.342-.223-2.036v-4.66c0-4.817 4.666-7.01 9-7.01s9 2.193 9 7.01v4.66c0 .694-.075 1.378-.222 2.03-.553 2.297-2.003 4.451-3.881 5.769-.087.061-.188.091-.287.091z" style="fill: rgb(45, 57, 88);"/>
  </g>
  <g>
    <path d="m20.429 9.995-2.8-.4c-2.62-.374-5.104-1.551-7.058-3.335-1.357 1.782-3.292 2.994-5.508 3.437l-1.465.293-.196-.98 1.464-.293c2.149-.431 4.002-1.671 5.218-3.494.083-.125.218-.205.367-.221.156-.008.297.038.403.145 1.859 1.859 4.316 3.087 6.917 3.458l2.8.4z" style="fill: rgb(45, 57, 88);"/>
  </g>
  <g>
    <path d="m7.5 13c-.184 0-.36-.102-.448-.276-.124-.247-.023-.547.224-.671l1.106-.553-1.105-.553c-.247-.124-.347-.424-.224-.671.124-.246.424-.348.671-.224l2 1c.169.086.276.259.276.448s-.107.362-.276.447l-2 1c-.072.036-.148.053-.224.053z" style="fill: rgb(107, 208, 157);"/>
  </g>
  <g>
    <path d="m16.5 13c-.075 0-.151-.017-.223-.053l-2-1c-.17-.085-.277-.258-.277-.447s.107-.362.276-.447l2-1c.248-.124.547-.022.671.224.124.247.023.547-.224.671l-1.105.552 1.105.553c.247.124.347.424.224.671-.088.174-.264.276-.447.276z" style="fill: rgb(107, 208, 157);"/>
  </g>
  <g>
    <path d="m14.16 18h-.53c-.276 0-.5-.224-.5-.5s.224-.5.5-.5h.53c.171 0 .259-.112.289-.161.03-.047.09-.174.014-.325-.467-.934-1.411-1.514-2.463-1.514s-1.996.58-2.463 1.514c-.023.047-.037.1-.037.146 0 .164.137.34.34.34h.53c.276 0 .5.224.5.5s-.224.5-.5.5h-.53c-.739 0-1.34-.601-1.34-1.34 0-.202.049-.407.143-.594.638-1.274 1.924-2.066 3.357-2.066s2.719.792 3.357 2.066c.208.417.187.902-.058 1.299-.245.398-.671.635-1.139.635z" style="fill: rgb(45, 57, 88);"/>
  </g>
  <g>
    <path d="m17.5 24c-1.683 0-3.16-1.194-3.513-2.84l-.662-3.089c-.133-.62-.69-1.071-1.325-1.071s-1.192.451-1.326 1.071l-.662 3.089c-.352 1.646-1.829 2.84-3.512 2.84-.276 0-.5-.224-.5-.5s.224-.5.5-.5c1.214 0 2.28-.861 2.535-2.049l.662-3.089c.231-1.079 1.2-1.862 2.303-1.862s2.072.783 2.303 1.862l.662 3.089c.255 1.188 1.321 2.049 2.535 2.049.276 0 .5.224.5.5s-.224.5-.5.5z" style="fill: rgb(107, 208, 157);"/>
  </g>
</svg>