<?xml version="1.0" encoding="utf-8"?>
<svg id="_x31__px" enable-background="new 0 0 24 24" height="512" viewBox="0 0 24 24" width="512" xmlns="http://www.w3.org/2000/svg">
  <path d="m9.5 8c-.076 0-.152-.017-.224-.053l-1.789-.894c-1.534-.767-2.487-2.309-2.487-4.025v-2.528c0-.276.224-.5.5-.5s.5.224.5.5v2.528c0 1.334.741 2.534 1.935 3.13l1.789.895c.247.124.347.424.224.671-.089.175-.265.276-.448.276z" style="fill: rgb(45, 57, 88);"/>
  <path d="m.5 24c-.276 0-.5-.224-.5-.5v-.156c0-2.567 1.101-4.934 3.02-6.493 5.014-4.074 3.999-10.203 3.988-10.264-.049-.272.133-.531.405-.579.27-.052.532.133.579.405.049.274 1.124 6.773-4.342 11.214-1.684 1.369-2.65 3.452-2.65 5.717v.156c0 .276-.224.5-.5.5z" style="fill: rgb(45, 57, 88);"/>
  <path d="m18.74 10.09c-.197 0-.384-.117-.463-.311-.197-.482-.457-.967-.773-1.441-.974-1.465-2.353-2.605-3.989-3.297l-2.158-.899c-1.395-.457-2.357-1.789-2.357-3.302v-.34c0-.276.224-.5.5-.5s.5.224.5.5v.34c0 1.08.686 2.03 1.706 2.365l2.197.914c1.82.769 3.352 2.036 4.434 3.665.353.529.645 1.074.867 1.618.104.256-.019.548-.274.652-.063.024-.127.036-.19.036z" style="fill: rgb(45, 57, 88);"/>
  <path d="m4.5 24c-.032 0-.065-.003-.099-.01-.271-.054-.446-.317-.392-.588l.34-1.7c.177-.877.785-1.577 1.628-1.873.838-.292 1.744-.129 2.423.438l.179.15c.621.521 1.329.88 2.107 1.068.269.064.434.334.369.603s-.333.437-.603.369c-.93-.224-1.775-.653-2.515-1.273l-.177-.15c-.406-.34-.948-.437-1.451-.261-.506.178-.873.599-.979 1.126l-.34 1.7c-.047.237-.256.401-.49.401z" style="fill: rgb(45, 57, 88);"/>
  <path d="m16.5 18c-.174 0-.343-.091-.435-.253-.137-.24-.053-.545.188-.682l.168-.096c.523-.297.715-.792.478-1.232-.131-.243-.041-.546.203-.677.242-.133.546-.04.677.203.5.925.136 2.009-.864 2.577l-.168.095c-.078.044-.163.065-.247.065z" style="fill: rgb(107, 208, 157);"/>
  <path d="m17.5 21c-.045 0-.09-.006-.135-.019-.266-.075-.421-.351-.347-.616.139-.495.45-.897.876-1.133.455-.251 1.009-.3 1.56-.138l.187.055c.265.079.416.357.337.622-.078.265-.356.417-.622.337l-.186-.055c-.294-.087-.574-.067-.792.054-.193.107-.331.29-.398.528-.061.221-.261.365-.48.365z" style="fill: rgb(107, 208, 157);"/>
  <path d="m16.447 24c-.102 0-.205-.015-.309-.05-.493-.168-.705-.657-.892-1.088-.083-.192-.198-.457-.285-.522-.085-.065-.358-.098-.557-.122-.43-.052-.965-.116-1.266-.548-.291-.417-.191-.932-.104-1.386.043-.226.098-.507.06-.63-.033-.105-.233-.297-.38-.437-.318-.305-.714-.684-.714-1.217s.396-.912.715-1.217c.146-.14.347-.332.38-.438.038-.123-.016-.404-.06-.63-.087-.454-.186-.967.104-1.385.301-.433.835-.497 1.265-.548.199-.024.471-.057.557-.122.087-.066.202-.33.286-.523.187-.431.399-.92.892-1.087.486-.164.95.108 1.323.328.179.106.425.25.538.25s.359-.145.539-.25c.373-.22.836-.492 1.323-.328.493.168.705.657.892 1.088.083.192.198.457.285.522.085.065.358.098.557.122.43.052.965.116 1.266.548.291.417.191.932.104 1.386-.043.226-.098.507-.06.63.033.105.233.297.38.437.318.305.714.684.714 1.217s-.396.912-.715 1.217c-.146.14-.347.332-.38.438-.038.123.016.404.06.63.087.454.186.967-.104 1.385-.301.433-.835.497-1.265.548-.199.024-.471.057-.557.122-.087.066-.202.33-.286.523-.187.431-.399.92-.892 1.087-.488.165-.951-.108-1.323-.328-.179-.106-.425-.25-.538-.25s-.359.145-.539.25c-.293.172-.642.378-1.014.378zm.006-11c-.001 0-.003 0-.004 0-.07.043-.21.364-.285.536-.148.342-.302.696-.596.92-.302.23-.696.277-1.044.319-.176.021-.505.061-.563.126-.047.083.021.436.057.625.068.353.145.753.033 1.116-.11.353-.381.612-.644.863-.153.146-.407.39-.407.495s.254.349.407.494c.262.251.534.511.644.863.112.362.035.762-.033 1.115-.037.189-.104.541-.057.626.058.064.387.104.563.125.348.042.741.089 1.043.318.294.225.448.578.597.92.075.172.214.494.3.541.075 0 .334-.153.489-.244.31-.183.66-.389 1.046-.389s.737.207 1.046.389c.155.091.424.252.505.24.07-.043.21-.364.285-.536.148-.342.302-.696.596-.92.302-.23.696-.277 1.044-.319.176-.021.505-.061.563-.126.047-.083-.021-.436-.057-.625-.068-.353-.145-.753-.033-1.116.11-.353.381-.612.644-.863.154-.144.408-.388.408-.493s-.254-.349-.407-.494c-.262-.251-.534-.511-.644-.863-.112-.362-.035-.762.033-1.115.037-.189.104-.541.057-.626-.058-.064-.387-.104-.563-.125-.348-.042-.741-.089-1.043-.318-.294-.225-.448-.578-.597-.92-.075-.172-.214-.494-.3-.541-.075 0-.334.153-.489.244-.31.183-.66.389-1.046.389s-.737-.207-1.046-.389c-.154-.092-.408-.242-.502-.242z" style="fill: rgb(107, 208, 157);"/>
</svg>