<svg id="_x31__px" height="512" viewBox="0 0 24 24" width="512" xmlns="http://www.w3.org/2000/svg"><g><path d="m2.5 17.06c-1.379 0-2.5-1.121-2.5-2.5s1.121-2.5 2.5-2.5v1c-.827 0-1.5.673-1.5 1.5 0 .842.686 1.508 1.545 1.5.045 0 .09-.001.135-.006l.121.992c-.101.013-.2.014-.301.014z"/></g><g><path d="m19.5 17.06c-.101 0-.2-.001-.301-.014l.121-.992c.06.006.119.006.18.006.827 0 1.5-.673 1.5-1.5s-.673-1.5-1.5-1.5v-1c1.379 0 2.5 1.121 2.5 2.5s-1.121 2.5-2.5 2.5z"/></g><g><path d="m11 24c-4.832 0-7.937-3.781-8.776-7.294-.149-.661-.224-1.344-.224-2.036v-4.66c0-4.817 4.665-7.01 9-7.01.315 0 .642.011.977.042.275.026.477.271.451.545-.026.275-.284.467-.545.451-.304-.029-.599-.038-.883-.038-3.854 0-8 1.881-8 6.01v4.66c0 .618.066 1.228.197 1.811.75 3.136 3.513 6.519 7.803 6.519 4.287 0 7.051-3.383 7.804-6.526.13-.577.196-1.186.196-1.804v-4.66c0-.669-.104-1.299-.311-1.871-.094-.26.042-.546.302-.64.257-.091.546.041.64.302.245.68.369 1.424.369 2.209v4.66c0 .692-.075 1.375-.223 2.029-.842 3.52-3.948 7.301-8.777 7.301z"/></g><g><path d="m19.43 12.995-2.8-.4c-2.62-.374-5.104-1.551-7.058-3.335-1.357 1.781-3.293 2.994-5.51 3.438l-1.464.292-.195-.98 1.465-.293c2.149-.431 4.002-1.671 5.217-3.494.083-.125.218-.205.367-.221.137-.008.296.038.402.144 1.859 1.859 4.315 3.087 6.917 3.458l2.8.4z"/></g><g><path d="m8.5 16c-.128 0-.256-.049-.354-.146l-2-2c-.195-.195-.195-.512 0-.707s.512-.195.707 0l2 2c.195.195.195.512 0 .707-.097.097-.225.146-.353.146z"/></g><g><path d="m6.5 16c-.128 0-.256-.049-.354-.146-.195-.195-.195-.512 0-.707l2-2c.195-.195.512-.195.707 0s.195.512 0 .707l-2 2c-.097.097-.225.146-.353.146z"/></g><g><path d="m15.5 16c-.128 0-.256-.049-.354-.146l-2-2c-.195-.195-.195-.512 0-.707s.512-.195.707 0l2 2c.195.195.195.512 0 .707-.097.097-.225.146-.353.146z"/></g><g><path d="m13.5 16c-.128 0-.256-.049-.354-.146-.195-.195-.195-.512 0-.707l2-2c.195-.195.512-.195.707 0s.195.512 0 .707l-2 2c-.097.097-.225.146-.353.146z"/></g><g><path d="m14.5 20c-.136 0-.271-.055-.369-.163l-.5-.547c-.342-.375-.92-.375-1.262 0-.727.795-2.012.795-2.738 0-.342-.375-.92-.375-1.262 0l-.5.547c-.187.206-.503.219-.706.032-.204-.187-.219-.503-.032-.706l.5-.547c.727-.795 2.012-.795 2.738 0 .342.375.92.375 1.262 0 .727-.795 2.012-.795 2.738 0l.5.547c.187.203.172.52-.032.706-.096.088-.216.131-.337.131z"/></g><g><path d="m18.75 6c-.15 0-.299-.067-.397-.196-.168-.22-.126-.533.094-.701l.207-.158c.243-.186.371-.481.343-.791-.028-.312-.201-.569-.473-.708-.576-.293-.956-.856-1.016-1.508-.06-.654.214-1.281.731-1.677l.207-.158c.22-.167.532-.126.701.094.168.22.126.533-.094.701l-.207.158c-.243.186-.371.481-.343.791.028.312.201.569.473.708.576.293.956.856 1.016 1.508.06.654-.214 1.281-.731 1.677l-.207.158c-.091.069-.198.102-.304.102z"/></g><g><path d="m14.75 6c-.15 0-.299-.067-.397-.196-.168-.22-.126-.533.094-.701l.207-.158c.243-.186.371-.481.343-.791-.028-.312-.201-.569-.473-.708-.576-.293-.956-.856-1.016-1.508-.06-.654.214-1.281.731-1.677l.207-.158c.219-.167.533-.126.701.094s.126.533-.094.701l-.207.158c-.243.186-.371.481-.343.791.028.312.201.569.473.708.576.293.956.856 1.016 1.508.06.654-.214 1.281-.731 1.677l-.207.158c-.091.069-.198.102-.304.102z"/></g><g><path d="m22.75 6c-.15 0-.299-.067-.397-.196-.168-.22-.126-.533.094-.701l.207-.158c.243-.186.371-.481.343-.791-.028-.312-.201-.569-.473-.708-.576-.293-.956-.856-1.016-1.508-.06-.654.214-1.281.731-1.677l.207-.158c.22-.167.532-.126.701.094.168.22.126.533-.094.701l-.207.158c-.243.186-.371.481-.343.791.028.312.201.569.473.708.576.293.956.856 1.016 1.508.06.654-.214 1.281-.731 1.677l-.207.158c-.091.069-.198.102-.304.102z"/></g></svg>