<?xml version="1.0" encoding="utf-8"?>
<svg version="1.1" id="Capa_1" x="0px" y="0px" viewBox="0 0 496 496" style="enable-background:new 0 0 496 496;" xmlns="http://www.w3.org/2000/svg">
  <g style="" transform="matrix(0.901743, 0, 0, 0.901743, 36.042343, 48.734547)">
    <g>
      <path d="M 474.432 384.128 C 472.88 382.76 472 380.688 472 378.44 L 472 40 C 472 17.944 454.056 0 432 0 C 409.944 0 392 17.944 392 40 L 392 378.448 C 392 380.688 391.072 382.8 389.456 384.24 C 372.568 399.28 364.96 421.688 369.128 444.176 C 373.84 469.528 393.968 489.856 419.248 494.768 C 423.464 495.592 427.696 495.992 431.896 495.992 C 446.752 495.992 461.136 490.936 472.696 481.416 C 487.504 469.192 496 451.184 496 432 C 496 413.728 488.144 396.28 474.432 384.128 Z M 408 40 C 408 26.768 418.768 16 432 16 C 445.232 16 456 26.768 456 40 L 456 48 L 456 64 L 456 80 L 456 96 L 456 112 L 408 112 L 408 40 Z M 462.504 469.056 C 451.392 478.208 436.736 481.856 422.288 479.056 C 403.424 475.392 388.376 460.2 384.856 441.248 C 381.72 424.312 387.416 407.472 400.088 396.184 C 405.12 391.712 408 385.248 408 378.448 L 408 128 L 456 128 L 456 144 L 456 160 L 456 176 L 456 192 L 456 208 L 456 224 L 456 240 L 456 256 L 456 272 L 456 288 L 456 304 L 456 320 L 456 336 L 456 352 L 456 378.44 C 456 385.272 458.848 391.704 463.824 396.104 C 474.104 405.216 480 418.304 480 432 C 480 446.384 473.624 459.896 462.504 469.056 Z" style="fill: rgb(45, 57, 88);"/>
    </g>
  </g>
  <g>
    <g>
      <path d="M224,44.688L219.312,40c-2.144-2.136-3.312-4.976-3.312-8s1.168-5.864,3.312-8l10.344-10.344L218.344,2.344L208,12.68 c-5.16,5.16-8,12.016-8,19.32s2.84,14.16,8,19.312L212.688,56c2.144,2.136,3.312,4.976,3.312,8s-1.168,5.864-3.312,8 l-10.344,10.344l11.312,11.312L224,83.32c5.16-5.16,8-12.016,8-19.32S229.16,49.84,224,44.688z" style="fill: rgb(107, 208, 157);"/>
    </g>
  </g>
  <g>
    <g>
      <path d="M168,44.688L163.312,40c-2.144-2.136-3.312-4.976-3.312-8s1.168-5.864,3.312-8l10.344-10.344L162.344,2.344L152,12.68 c-5.16,5.16-8,12.016-8,19.32s2.84,14.16,8,19.312L156.688,56c2.144,2.136,3.312,4.976,3.312,8s-1.168,5.864-3.312,8 l-10.344,10.344l11.312,11.312L168,83.32c5.16-5.16,8-12.016,8-19.32S173.16,49.84,168,44.688z" style="fill: rgb(107, 208, 157);"/>
    </g>
  </g>
  <g>
    <g>
      <path d="M280,44.688L275.312,40c-2.144-2.136-3.312-4.976-3.312-8s1.168-5.864,3.312-8l10.344-10.344L274.344,2.344L264,12.68 c-5.16,5.16-8,12.016-8,19.32s2.84,14.16,8,19.312L268.688,56c2.144,2.136,3.312,4.976,3.312,8s-1.168,5.864-3.312,8 l-10.344,10.344l11.312,11.312L280,83.32c5.16-5.16,8-12.016,8-19.32S285.16,49.84,280,44.688z" style="fill: rgb(107, 208, 157);"/>
    </g>
  </g>
  <g>
    <g/>
  </g>
  <g>
    <g>
      <path d="M197.208,112c-68.88,0-128.464,44.336-148.256,110.312l-3.616,12.048c-8.128,27.096-22.992,51.992-42.992,71.992 C0.84,307.84,0,309.88,0,312s0.84,4.16,2.344,5.656l3.744,3.744C27.952,343.264,40,372.344,40,403.28 C40,432.344,63.656,456,92.728,456c8.704,0,17.344-2.176,24.992-6.304l18.28-9.848V496h152v-8v-8v-51.184 c0-11.904,3.704-23.296,10.712-32.944l23.68-32.56C341.76,336.68,352,305.2,352,272.264v-5.48C352,181.44,282.56,112,197.208,112z M336,272.264c0,29.528-9.176,57.76-26.544,81.632l-23.68,32.568C276.768,398.856,272,413.504,272,428.816V480H152v-48.76 l59.792-32.192l-7.576-14.088l-94.08,50.656C104.808,438.48,98.792,440,92.728,440C72.48,440,56,423.528,56,403.28 c0-34.36-13.056-66.712-36.824-91.384c19.088-20.808,33.368-45.864,41.488-72.944l3.616-12.048 C82.024,167.752,135.448,128,197.208,128C273.744,128,336,190.256,336,266.784V272.264z" style="fill: rgb(45, 57, 88);"/>
    </g>
  </g>
  <g/>
  <g/>
  <g/>
  <g/>
  <g/>
  <g/>
  <g/>
  <g/>
  <g/>
  <g/>
  <g/>
  <g/>
  <g/>
  <g/>
  <g/>
</svg>