<?xml version="1.0" encoding="utf-8"?>
<svg version="1.1" id="Layer_1" x="0px" y="0px" viewBox="0 0 512 512" style="enable-background:new 0 0 512 512;" xmlns="http://www.w3.org/2000/svg">
  <g>
    <g>
      <path d="M501.328,387.355h-53.312c-5.891,0-10.688,4.781-10.688,10.672s4.781,10.672,10.672,10.672h53.328 c5.891,0,10.672-4.781,10.672-10.672S507.219,387.355,501.328,387.355z" style="fill: rgb(107, 208, 157);"/>
    </g>
  </g>
  <g>
    <g>
      <path d="M476.078,311.293c-4.172-4.156-10.922-4.156-15.094,0l-37.703,37.719c-4.172,4.156-4.172,10.906,0,15.078 c4.157,4.172,10.907,4.172,15.078,0l37.688-37.703C480.219,322.231,480.235,315.449,476.078,311.293z" style="fill: rgb(107, 208, 157);"/>
    </g>
  </g>
  <g>
    <g>
      <path d="M476.079,469.684l-37.688-37.672c-4.172-4.172-10.953-4.219-15.109-0.031c-4.172,4.156-4.172,10.906,0,15.078 l37.688,37.703c4.172,4.156,10.938,4.172,15.109,0C480.235,480.606,480.235,473.856,476.079,469.684z" style="fill: rgb(107, 208, 157);"/>
    </g>
  </g>
  <g>
    <g>
      <path d="M267.156,312.699l-68.5-255.617l-16.984,4.555l-5.812-21.703c-2.547-9.531-11.172-15.82-20.594-15.82 c-1.828,0-3.688,0.234-5.531,0.734L26.094,57.973c-11.375,3.055-18.141,14.75-15.078,26.133l5.812,21.703L0,110.316 l99.969,373.039h212.953h23.688H384V312.699H267.156z M36.766,77.199c1.531,5.695,7.375,9.07,13.062,7.547 c5.688-1.531,9.078-7.375,7.547-13.062v-0.008l10.297-2.758c1.531,5.688,7.375,9.07,13.062,7.547 c5.703-1.531,9.078-7.375,7.547-13.07l10.312-2.758c1.516,5.688,7.359,9.062,13.062,7.539c5.688-1.523,9.062-7.367,7.531-13.062 l10.312-2.758c1.516,5.688,7.375,9.062,13.062,7.539s9.062-7.367,7.547-13.062l5.141-1.383l5.828,21.711L37.438,100.285 L31.61,78.582L36.766,77.199z M312.922,462.027H116.328L26.125,125.402l157.453-42.188l63.5,236.984l-31.938,31.938 c-4.172,4.156-4.172,10.906,0,15.078s10.922,4.172,15.078,0l33.188-33.188h49.516V462.027z M362.672,462.027H336.61v-128h26.062 V462.027z" style="fill: rgb(45, 57, 88);"/>
    </g>
  </g>
  <g/>
  <g/>
  <g/>
  <g/>
  <g/>
  <g/>
  <g/>
  <g/>
  <g/>
  <g/>
  <g/>
  <g/>
  <g/>
  <g/>
  <g/>
</svg>