<?xml version="1.0" encoding="utf-8"?>
<svg version="1.1" id="Capa_1" x="0px" y="0px" viewBox="0 0 400.681 400.681" style="enable-background:new 0 0 400.681 400.681;" xmlns="http://www.w3.org/2000/svg">
  <g>
    <g/>
  </g>
  <g>
    <g/>
  </g>
  <g>
    <g>
      <path d="M341.963,36.292c-3.07-3.178-8.134-3.266-11.312-0.196c-0.067,0.064-0.132,0.13-0.196,0.196L285.198,81.54 c-3.178,3.069-3.266,8.134-0.196,11.312c3.07,3.178,8.134,3.266,11.312,0.196c0.067-0.064,0.132-0.13,0.196-0.196l45.256-45.248 C344.944,44.535,345.032,39.47,341.963,36.292z" style="fill: rgb(107, 208, 157);"/>
    </g>
  </g>
  <g>
    <g/>
  </g>
  <g>
    <g>
      <path d="M115.494,307.828c-3.122-3.126-8.188-3.129-11.314-0.006c-0.002,0.002-0.004,0.004-0.006,0.006l-45.256,45.248 c-3.178,3.069-3.266,8.134-0.196,11.312c3.069,3.178,8.134,3.266,11.312,0.196c0.067-0.064,0.132-0.13,0.196-0.196l45.264-45.248 C118.617,316.016,118.617,310.952,115.494,307.828z" style="fill: rgb(107, 208, 157);"/>
    </g>
  </g>
  <g>
    <g/>
  </g>
  <g>
    <g>
      <path d="M398.334,58.916L341.766,2.348c-3.124-3.123-8.188-3.123-11.312,0l-44.4,44.4C201.291-0.655,94.148,29.632,46.745,114.396 c-29.825,53.332-29.826,118.324-0.003,171.656l-44.4,44.4c-3.123,3.124-3.123,8.188,0,11.312l56.568,56.568 c3.124,3.123,8.188,3.123,11.312,0l44.376-44.392c84.793,47.386,191.946,17.062,239.333-67.731 c29.794-53.313,29.798-118.264,0.011-171.581l44.4-44.4C401.463,67.102,401.46,62.038,398.334,58.916z M64.574,381.364 l-45.248-45.256l73.536-73.544c1.5-1.5,2.344-3.534,2.344-5.656V225.46c0.001-2.223,0.17-4.442,0.504-6.64 c3.643-21.789,24.26-36.499,46.049-32.855c8.219,1.374,15.804,5.281,21.695,11.175c6.024,5.961,9.953,13.714,11.2,22.096 c0.513,3.492,3.253,6.235,6.744,6.752c8.384,1.242,16.138,5.172,22.096,11.2c7.516,7.518,11.74,17.713,11.744,28.344 c0.001,2.414-0.214,4.824-0.64,7.2c-0.286,1.3-0.639,2.584-1.056,3.848c-0.28,0.968-0.448,1.984-0.8,2.92 c-4.981,13.378-16.723,23.08-30.8,25.448c-2.223,0.353-4.469,0.532-6.72,0.536h-31.448c-2.122,0-4.156,0.844-5.656,2.344 L64.574,381.364z M313.478,313.484L313.478,313.484c-49.339,49.606-125.246,61.268-187.2,28.76l20.8-20.76h28.144 c3.086-0.005,6.167-0.246,9.216-0.72h0.096c4.976-0.836,9.819-2.332,14.4-4.448c19.759-9.152,32.39-28.961,32.352-50.736 c0-0.144,0-0.28,0-0.424c-0.179-25.337-17.347-47.397-41.864-53.792c-6.447-24.679-28.741-41.893-54.248-41.888 c-27.386-0.022-50.755,19.801-55.2,46.824c-0.471,3.047-0.709,6.125-0.712,9.208v28.136l-20.8,20.8 C17.556,196.072,47.929,99.378,126.301,58.472c46.383-24.21,101.671-24.223,148.066-0.036l-20.8,20.76h-28.104 c-3.118,0.006-6.231,0.252-9.312,0.736c-4.976,0.836-9.819,2.332-14.4,4.448c-19.759,9.152-32.39,28.961-32.352,50.736 c0,0.144,0,0.28,0,0.424c0.179,25.337,17.347,47.397,41.864,53.792c6.389,24.494,28.415,41.657,53.728,41.864h0.48 c27.386,0.022,50.755-19.801,55.2-46.824c0.471-3.047,0.709-6.125,0.712-9.208v-28.08l20.8-20.8 C374.707,188.226,363.068,264.133,313.478,313.484z M307.822,138.116c-1.5,1.5-2.344,3.534-2.344,5.656v31.448 c-0.001,2.223-0.17,4.442-0.504,6.64c-1.118,6.497-3.825,12.617-7.88,17.816c-0.304,0.4-0.544,0.864-0.872,1.248 c-0.89,0.996-1.83,1.947-2.816,2.848c-0.688,0.672-1.296,1.424-2.024,2.04c-0.728,0.616-1.6,1.096-2.344,1.664 c-1.08,0.8-2.112,1.6-3.272,2.312c-0.688,0.408-1.456,0.672-2.168,1.032c-1.322,0.722-2.684,1.369-4.08,1.936 c-0.592,0.216-1.232,0.312-1.832,0.504c-1.618,0.553-3.269,1.005-4.944,1.352c-0.8,0.144-1.688,0.128-2.528,0.224 c-1.537,0.232-3.086,0.371-4.64,0.416c-10.627,0.01-20.823-4.203-28.344-11.712c-6.024-5.961-9.953-13.714-11.2-22.096 c-0.513-3.492-3.253-6.235-6.744-6.752c-8.384-1.242-16.138-5.172-22.096-11.2c-15.643-15.599-15.678-40.926-0.079-56.568 c5.872-5.888,13.433-9.8,21.631-11.192c2.231-0.353,4.486-0.532,6.744-0.536h31.448c2.122,0,4.156-0.844,5.656-2.344 l73.544-73.536l45.248,45.256L307.822,138.116z" style="fill: rgb(45, 57, 88);"/>
    </g>
  </g>
  <g/>
  <g/>
  <g/>
  <g/>
  <g/>
  <g/>
  <g/>
  <g/>
  <g/>
  <g/>
  <g/>
  <g/>
  <g/>
  <g/>
  <g/>
</svg>