<?xml version="1.0" encoding="utf-8"?>
<svg id="Capa_1" enable-background="new 0 0 511.999 511.999" height="512" viewBox="0 0 511.999 511.999" width="512" xmlns="http://www.w3.org/2000/svg">
  <g>
    <path d="m277.311 262.28c-18.555 0-36.12 7.751-48.621 21.114-8.594-9.182-19.577-15.713-31.626-18.902 13.726-10.048 23.046-24.938 26.14-41.547 17.738 4.539 36.718 1.626 52.35-8.351 14.999-9.565 25.374-24.399 29.213-41.77 3.839-17.369.685-35.192-8.882-50.187-8.999-14.106-22.854-24.239-39.016-28.532-13.815-3.67-28.284-2.816-41.418 2.345l-34.236-53.672c-2.228-3.493-6.866-4.516-10.356-2.29-3.492 2.228-4.518 6.864-2.29 10.356l37.73 59.15c2.088 3.273 6.326 4.413 9.773 2.626 11.382-5.896 24.503-7.323 36.946-4.018 12.517 3.325 23.249 11.174 30.22 22.103 7.412 11.618 9.855 25.426 6.882 38.883-2.975 13.458-11.012 24.95-22.634 32.361-14.263 9.104-32.13 10.613-47.79 4.037-2.27-.953-4.864-.731-6.94.594-2.075 1.325-3.368 3.584-3.459 6.045-.625 16.957-9.522 32.521-23.798 41.632-23.985 15.297-55.946 8.231-71.244-15.75-6.972-10.929-9.567-23.97-7.309-36.721 2.245-12.676 9.068-23.973 19.211-31.811 3.071-2.373 3.825-6.696 1.737-9.968l-58.776-92.137 78.406-50.015 4.916 7.701c2.229 3.492 6.868 4.514 10.357 2.286 3.491-2.229 4.515-6.866 2.286-10.357l-8.95-14.02c-2.227-3.49-6.863-4.514-10.355-2.288l-91.05 58.08c-1.677 1.07-2.861 2.762-3.29 4.704s-.069 3.976 1 5.653l59.316 92.983c-10.215 9.737-17.087 22.498-19.58 36.572-2.916 16.462.434 33.298 9.434 47.404 9.363 14.677 23.56 24.437 39.202 28.547-16.565 12.127-27.349 31.703-27.349 53.759 0 16.729 6.232 32.722 17.548 45.033 9.674 10.524 22.331 17.587 36.182 20.303v110.284c0 4.142 3.358 7.5 7.5 7.5h108c4.143 0 7.5-3.358 7.5-7.5v-110.289c8.774-1.729 17.165-5.223 24.58-10.27 3.424-2.331 4.31-6.996 1.979-10.42-2.332-3.424-6.997-4.31-10.421-1.98-7.215 4.911-15.623 7.923-24.315 8.711-3.864.35-6.823 3.589-6.823 7.469v109.28h-93v-109.28c0-3.881-2.96-7.121-6.825-7.47-12.769-1.153-24.6-7.009-33.313-16.488-8.765-9.536-13.592-21.923-13.592-34.882 0-28.452 23.147-51.6 51.6-51.6 16.927 0 32.801 8.335 42.462 22.298 1.401 2.025 3.707 3.233 6.169 3.232 2.462 0 4.768-1.209 6.168-3.235 9.651-13.961 25.52-22.295 42.45-22.295 28.453 0 51.6 23.148 51.6 51.6 0 8.204-1.87 16.049-5.558 23.315-1.875 3.694-.4 8.208 3.293 10.083 3.695 1.876 8.208.4 10.082-3.294 4.699-9.258 7.183-19.667 7.183-30.104.001-36.724-29.876-66.6-66.599-66.6z" style="fill: rgb(45, 57, 88);"/>
    <path d="m364.341 154.863 1.211 2.258c4.42 8.24 12.974 13.011 21.829 13.011 3.391 0 6.827-.7 10.092-2.173l25.349-11.438c6.214-2.804 11.035-8.115 13.228-14.571 2.191-6.457 1.601-13.605-1.622-19.614l-3.011-5.614c-3.224-6.008-8.853-10.455-15.443-12.2-6.592-1.746-13.683-.666-19.457 2.961l-23.549 14.792c-10.952 6.879-14.741 21.193-8.627 32.588-.001 0-.001 0 0 0zm16.604-19.886 23.549-14.791c2.301-1.445 5.012-1.858 7.64-1.163 2.626.695 4.779 2.396 6.063 4.79l3.011 5.613c1.284 2.394 1.511 5.129.637 7.702-.873 2.572-2.718 4.604-5.193 5.721l-25.349 11.438c-4.625 2.089-10.132.22-12.533-4.256l-1.211-2.258c-2.401-4.475-.913-10.095 3.386-12.796z" style="fill: rgb(107, 208, 157);"/>
    <path d="m453.454 203.322c-4.837-4.808-11.54-7.421-18.332-7.165l-27.789 1.036c-12.922.481-23.36 10.983-23.766 23.908l-.08 2.562c-.404 12.925 9.359 24.058 22.226 25.345l27.671 2.769c.813.081 1.626.121 2.437.121 5.96 0 11.794-2.17 16.307-6.127 5.126-4.496 8.188-10.982 8.4-17.796l.199-6.367c.213-6.814-2.438-13.479-7.273-18.286zm-7.919 24.184c-.085 2.715-1.256 5.196-3.299 6.987s-4.662 2.632-7.358 2.358l-27.672-2.769c-5.052-.505-8.885-4.876-8.727-9.951l.08-2.562c.159-5.075 4.259-9.199 9.332-9.388l27.789-1.036c2.719-.093 5.271.898 7.198 2.813 1.926 1.915 2.94 4.465 2.855 7.18z" style="fill: rgb(107, 208, 157);"/>
    <path d="m417.834 290.543-24.584-12.998c-11.43-6.044-25.724-2.169-32.536 8.822l-1.351 2.179c-6.812 10.992-3.924 25.515 6.576 33.063l22.579 16.234c4.224 3.036 9.304 4.64 14.445 4.64 1.598 0 3.203-.155 4.789-.471 6.687-1.33 12.582-5.417 16.174-11.211l3.355-5.414c3.592-5.795 4.629-12.894 2.845-19.475-1.785-6.581-6.265-12.182-12.292-15.369zm-3.302 26.941-3.355 5.414c-1.431 2.309-3.686 3.872-6.35 4.402-2.668.528-5.347-.052-7.553-1.637l-22.579-16.234c-4.123-2.964-5.257-8.666-2.582-12.981l1.351-2.179c1.821-2.939 5.004-4.582 8.267-4.582 1.529 0 3.076.361 4.508 1.118l24.585 12.998c2.401 1.27 4.115 3.413 4.826 6.034s.314 5.338-1.118 7.647z" style="fill: rgb(107, 208, 157);"/>
    <path d="m259.317 242.673c.539 2.844 2.667 5.123 5.467 5.857l62.15 16.289c.627.165 1.266.245 1.901.245 1.512 0 3.006-.458 4.273-1.336 1.8-1.248 2.965-3.221 3.188-5.4 1.73-16.908.583-32.004-3.412-44.871-3.103-9.994-6.895-15.003-7.318-15.541-2.496-3.181-7.062-3.811-10.326-1.425l-52.98 38.729c-2.337 1.708-3.483 4.609-2.943 7.453zm57.744-28.933c2.544 6.424 5.514 17.649 4.925 34.276l-38.139-9.996z" style="fill: rgb(45, 57, 88);"/>
  </g>
</svg>