<?xml version="1.0" encoding="utf-8"?>
<svg id="_x31__px" height="512" viewBox="0 0 24 24" width="512" xmlns="http://www.w3.org/2000/svg">
  <g>
    <path d="m2.5 16.06c-1.378 0-2.5-1.121-2.5-2.5s1.122-2.5 2.5-2.5v1c-.827 0-1.5.673-1.5 1.5 0 .843.705 1.515 1.545 1.5.045 0 .09-.001.135-.006l.121.992c-.1.013-.201.014-.301.014z" style="fill: rgb(45, 57, 88);"/>
  </g>
  <g>
    <path d="m21.5 16.06c-.1 0-.201-.001-.301-.014l.121-.992c.06.007.12.006.18.006.827 0 1.5-.673 1.5-1.5s-.673-1.5-1.5-1.5v-1c1.378 0 2.5 1.121 2.5 2.5s-1.122 2.5-2.5 2.5z" style="fill: rgb(45, 57, 88);"/>
  </g>
  <g>
    <path d="m14 19.5c-.075 0-.151-.017-.223-.053-1.195-.598-2.357-.598-3.553 0-.247.125-.547.023-.671-.224s-.023-.547.224-.671c1.476-.738 2.972-.738 4.447 0 .247.124.347.424.224.671-.089.175-.265.277-.448.277z" style="fill: rgb(107, 208, 157);"/>
  </g>
  <g>
    <path d="m12 24c-5.375 0-8.82-4.322-9.747-8.338-.168-.745-.253-1.525-.253-2.322v-5.35c0-5.49 5.184-7.99 10-7.99s10 2.5 10 7.99v5.35c0 .797-.085 1.577-.252 2.32-.928 4.018-4.373 8.34-9.748 8.34zm0-23c-4.334 0-9 2.188-9 6.99v5.35c0 .723.077 1.43.228 2.1.84 3.64 3.943 7.56 8.772 7.56s7.932-3.92 8.772-7.563c.151-.667.228-1.374.228-2.097v-5.35c0-4.802-4.666-6.99-9-6.99z" style="fill: rgb(45, 57, 88);"/>
  </g>
  <g>
    <path d="m21.696 9.997-5.032-.544c-2.637-.285-5.134-1.413-7.092-3.193-1.357 1.781-3.293 2.994-5.51 3.438l-1.464.292-.196-.98 1.464-.293c2.149-.431 4.002-1.671 5.218-3.494.083-.125.218-.205.367-.221.155-.008.297.038.403.144 1.854 1.854 4.312 3.031 6.918 3.313l5.032.544z" style="fill: rgb(45, 57, 88);"/>
  </g>
  <g>
    <path d="m8.5 14c-.128 0-.256-.049-.354-.146l-2-2c-.195-.195-.195-.512 0-.707s.512-.195.707 0l2 2c.195.195.195.512 0 .707-.097.097-.225.146-.353.146z" style="fill: rgb(107, 208, 157);"/>
  </g>
  <g>
    <path d="m6.5 14c-.128 0-.256-.049-.354-.146-.195-.195-.195-.512 0-.707l2-2c.195-.195.512-.195.707 0s.195.512 0 .707l-2 2c-.097.097-.225.146-.353.146z" style="fill: rgb(107, 208, 157);"/>
  </g>
  <g>
    <path d="m17.5 14c-.128 0-.256-.049-.354-.146l-2-2c-.195-.195-.195-.512 0-.707s.512-.195.707 0l2 2c.195.195.195.512 0 .707-.097.097-.225.146-.353.146z" style="fill: rgb(107, 208, 157);"/>
  </g>
  <g>
    <path d="m15.5 14c-.128 0-.256-.049-.354-.146-.195-.195-.195-.512 0-.707l2-2c.195-.195.512-.195.707 0s.195.512 0 .707l-2 2c-.097.097-.225.146-.353.146z" style="fill: rgb(107, 208, 157);"/>
  </g>
  <g>
    <path d="m15 21c-.104 0-.209-.032-.299-.1-.796-.598-1.2-1.237-1.2-1.9s.404-1.303 1.2-1.9c.22-.166.534-.12.7.101s.121.534-.1.7c-.365.273-.8.687-.8 1.1s.435.826.8 1.1c.221.166.266.479.1.7-.099.13-.249.199-.401.199z" style="fill: rgb(107, 208, 157);"/>
  </g>
  <g>
    <path d="m9 21c-.152 0-.302-.069-.4-.2-.166-.221-.121-.534.1-.7.365-.273.8-.687.8-1.1s-.435-.826-.8-1.1c-.221-.166-.266-.479-.1-.7.166-.22.479-.266.7-.101.796.598 1.2 1.237 1.2 1.9s-.404 1.303-1.2 1.9c-.09.069-.195.101-.3.101z" style="fill: rgb(107, 208, 157);"/>
  </g>
</svg>