<svg id="Layer_1" enable-background="new 0 0 511.889 511.889" height="512" viewBox="0 0 511.889 511.889" width="512" xmlns="http://www.w3.org/2000/svg"><g><path d="m484.34 305.341c36.771-80.86-44.386-165.531-126.724-132.239-32.527-49.504-109.649-26.92-110.103 32.615 0 29.052 21.083 53.561 48.749 58.825.08 38.226 22.511 72.953 56.685 89.003-1.14 7.344-1.247 14.921-.323 22.296h-342.624c-5.522 0-10 4.477-10 10v50c0 5.523 4.478 10 10 10h422.002c73.712-.009 107.958-92.507 52.338-140.5zm-129.439 90.501v30h-214.9v-30zm-334.901 0h100.001v30h-100.001zm380 29.999h-25.099v-30h25.099zm32.002 0h-12.002v-40c0-5.523-4.478-10-10-10h-37.169c-1.431-8.501-1.005-17.413 1.254-25.723 1.357-5.012-1.348-10.228-6.226-12.007-33.374-12.02-54.888-46.245-51.214-81.551.273-2.785-.632-5.557-2.498-7.644-1.865-2.086-4.52-3.295-7.317-3.333-21.68-.296-39.317-18.181-39.317-39.867.611-43.284 59.094-55.197 76.567-15.637 1.1 2.575 3.228 4.572 5.868 5.504 2.641.931 5.551.715 8.023-.6 69.504-36.162 143.241 39.888 105.011 108.22-2.577 4.512-1.269 10.246 3.01 13.194 48.171 33.315 24.597 109.254-33.99 109.444z"/><path d="m384.824 145.841c22.056 0 40-17.944 40-40-2.197-53.066-77.812-53.049-80.001 0 0 22.056 17.945 40 40.001 40zm0-60c11.028 0 20 8.972 20 20-1.098 26.534-38.906 26.525-40.001 0 0-11.028 8.973-20 20.001-20z"/></g></svg>