<?xml version="1.0" encoding="utf-8"?>
<svg version="1.1" id="Capa_1" x="0px" y="0px" viewBox="0 0 512 512" style="enable-background:new 0 0 512 512;" xmlns="http://www.w3.org/2000/svg">
  <g>
    <g>
      <g>
        <path d="M256,0C114.844,0,0,114.844,0,256s114.844,256,256,256s256-114.844,256-256S397.156,0,256,0z M256,490.667 C126.604,490.667,21.333,385.396,21.333,256S126.604,21.333,256,21.333S490.667,126.604,490.667,256S385.396,490.667,256,490.667 z" style="fill: rgb(45, 57, 88);"/>
        <path d="M394.667,277.333H117.333c-5.896,0-10.667,4.771-10.667,10.667v42.667c0,5.896,4.771,10.667,10.667,10.667h277.333 c5.896,0,10.667-4.771,10.667-10.667V288C405.333,282.104,400.563,277.333,394.667,277.333z M341.333,320H128v-21.333h213.333 V320z M384,320h-21.333v-21.333H384V320z" style="fill: rgb(45, 57, 88);"/>
        <path d="M362.667,170.667c-11.76,0-21.333-9.573-21.333-21.333c0-23.531-19.135-42.667-42.667-42.667h-32 c-5.896,0-10.667,4.771-10.667,10.667c0,5.896,4.771,10.667,10.667,10.667h32c11.76,0,21.333,9.573,21.333,21.333 C320,172.865,339.135,192,362.667,192c11.76,0,21.333,9.573,21.333,21.333v32c0,5.896,4.771,10.667,10.667,10.667 s10.667-4.771,10.667-10.667v-32C405.333,189.802,386.198,170.667,362.667,170.667z" style="fill: rgb(107, 208, 157);"/>
        <path d="M288,213.333c5.885,0,10.667,4.781,10.667,10.667c0,17.646,14.354,32,32,32H352c5.896,0,10.667-4.771,10.667-10.667 c0-5.896-4.771-10.667-10.667-10.667h-21.333c-5.885,0-10.667-4.781-10.667-10.667c0-17.646-14.354-32-32-32 c-5.885,0-10.667-4.781-10.667-10.667V160c0-5.896-4.771-10.667-10.667-10.667c-5.896,0-10.667,4.771-10.667,10.667v21.333 C256,198.979,270.354,213.333,288,213.333z" style="fill: rgb(107, 208, 157);"/>
      </g>
    </g>
  </g>
  <g/>
  <g/>
  <g/>
  <g/>
  <g/>
  <g/>
  <g/>
  <g/>
  <g/>
  <g/>
  <g/>
  <g/>
  <g/>
  <g/>
  <g/>
</svg>