<?xml version="1.0" encoding="utf-8"?>
<svg viewBox="0 0 500 500" xmlns="http://www.w3.org/2000/svg">
  <path xmlns="http://www.w3.org/2000/svg" d="M 102.327 243.719 L 275.47 243.719 C 281.638 243.719 286.641 238.954 286.641 233.08 C 286.641 227.206 281.638 222.441 275.47 222.441 L 102.327 222.441 C 96.155 222.441 91.156 227.206 91.156 233.08 C 91.156 238.954 96.155 243.719 102.327 243.719 Z M 102.327 243.719" data-original="#000000" style="fill: rgb(45, 57, 88);" class=""/>
  <path xmlns="http://www.w3.org/2000/svg" d="M 205.985 291.589 L 102.327 291.589 C 96.155 291.589 91.156 296.352 91.156 302.228 C 91.156 308.102 96.155 312.867 102.327 312.867 L 205.985 312.867 C 212.154 312.867 217.157 308.102 217.157 302.228 C 217.157 296.352 212.154 291.589 205.985 291.589 Z M 205.985 291.589" data-original="#000000" style="fill: rgb(45, 57, 88);" class=""/>
  <path xmlns="http://www.w3.org/2000/svg" d="M 399.908 267.97 L 399.908 84.148 C 399.9 54.772 374.896 30.967 344.054 30.956 L 298.254 30.956 L 298.254 10.638 C 298.254 4.761 293.254 0 287.084 0 C 280.917 0 275.914 4.761 275.914 10.638 L 275.914 30.956 L 123.993 30.956 L 123.993 10.638 C 123.993 4.761 118.994 0 112.823 0 C 106.655 0 101.652 4.761 101.652 10.638 L 101.652 30.956 L 55.853 30.956 C 25.012 30.967 0.015 54.772 0 84.148 L 0 372.333 C 0.015 401.704 25.012 425.508 55.853 425.522 L 262.624 425.522 C 284.117 477.949 341.756 508.38 399.834 497.969 C 457.91 487.561 499.989 439.253 500 382.969 C 500.107 325.844 456.877 278.186 399.908 267.97 Z M 55.969 52.233 L 101.767 52.233 L 101.767 72.552 C 101.767 78.425 106.766 83.19 112.938 83.19 C 119.106 83.19 124.109 78.425 124.109 72.552 L 124.109 52.233 L 276.029 52.233 L 276.029 72.552 C 276.029 78.425 281.028 83.19 287.198 83.19 C 293.367 83.19 298.37 78.425 298.37 72.552 L 298.37 52.233 L 344.169 52.233 C 362.652 52.283 377.625 66.542 377.681 84.148 L 377.681 109.892 L 22.456 109.892 L 22.456 84.148 C 22.47 66.525 37.467 52.248 55.969 52.233 Z M 55.969 404.246 C 37.481 404.197 22.508 389.936 22.456 372.333 L 22.456 131.061 L 377.566 131.061 L 377.566 265.951 L 377.23 265.951 C 340.747 266.005 306.171 281.466 282.833 308.174 C 259.489 334.88 249.798 370.073 256.364 404.246 Z M 377.23 478.713 C 321.709 478.713 276.695 435.847 276.695 382.969 C 276.695 330.092 321.709 287.228 377.23 287.228 C 432.755 287.228 477.765 330.092 477.765 382.969 C 477.682 435.814 432.72 478.634 377.23 478.713 Z M 377.23 478.713" data-original="#000000" style="fill: rgb(45, 57, 88);" class=""/>
  <path xmlns="http://www.w3.org/2000/svg" d="M 428.951 344.78 L 362.6 405.098 L 328.303 372.333 C 323.957 368.191 316.906 368.191 312.557 372.333 C 308.203 376.474 308.203 383.19 312.557 387.331 L 354.665 427.436 C 356.76 429.446 359.623 430.559 362.6 430.523 C 365.483 430.546 368.255 429.476 370.304 427.541 L 444.479 359.99 C 446.615 358.045 447.848 355.374 447.917 352.559 C 447.976 349.743 446.862 347.021 444.812 344.992 C 440.464 340.836 433.422 340.74 428.951 344.78 Z M 428.951 344.78" data-original="#000000" style="fill: rgb(45, 57, 88);" class=""/>
</svg>
