<?xml version="1.0" encoding="utf-8"?>
<svg viewBox="0 0 512.001 341.334" xmlns="http://www.w3.org/2000/svg">
  <path d="M 501.333 64 L 10.667 64 C 4.779 64 0 68.779 0 74.667 L 0 138.667 C 0 144.555 4.779 149.334 10.667 149.334 L 501.334 149.334 C 507.222 149.334 512.001 144.555 512.001 138.667 L 512.001 74.667 C 512 68.779 507.221 64 501.333 64 Z M 490.667 128 L 21.333 128 L 21.333 85.333 L 490.666 85.333 L 490.666 128 Z" data-original="#000000" style="fill: rgb(45, 57, 88);" class=""/>
  <path d="M 202.667 213.334 L 74.667 213.334 C 68.779 213.334 64 218.113 64 224.001 C 64 229.889 68.779 234.667 74.667 234.667 L 202.667 234.667 C 208.555 234.667 213.334 229.888 213.334 224 C 213.334 218.112 208.555 213.334 202.667 213.334 Z" data-original="#000000" style="fill: rgb(107, 208, 157);" class=""/>
  <path d="M 202.667 256 L 74.667 256 C 68.779 256 64 260.779 64 266.667 C 64 272.555 68.779 277.334 74.667 277.334 L 202.667 277.334 C 208.555 277.334 213.334 272.555 213.334 266.667 C 213.333 260.779 208.555 256 202.667 256 Z" data-original="#000000" style="fill: rgb(107, 208, 157);" class=""/>
  <path d="M 416 192 L 394.667 192 C 377.024 192 362.667 206.357 362.667 224 L 362.667 245.333 C 362.667 262.976 377.024 277.333 394.667 277.333 L 416 277.333 C 433.643 277.333 448 262.976 448 245.333 L 448 224 C 448 206.358 433.643 192 416 192 Z M 426.667 245.334 C 426.667 251.222 421.888 256.001 416 256.001 L 394.667 256.001 C 388.779 256.001 384 251.222 384 245.334 L 384 224.001 C 384 218.113 388.779 213.334 394.667 213.334 L 416 213.334 C 421.888 213.334 426.667 218.113 426.667 224.001 L 426.667 245.334 Z" data-original="#000000" style="fill: rgb(107, 208, 157);" class=""/>
  <path d="M 458.667 0 L 53.333 0 C 23.936 0 0 23.936 0 53.334 L 0 288.001 C 0 317.398 23.936 341.334 53.333 341.334 L 458.666 341.334 C 488.063 341.334 511.999 317.398 511.999 288.001 L 511.999 53.334 C 512 23.936 488.064 0 458.667 0 Z M 490.667 288 C 490.667 305.643 476.31 320 458.667 320 L 53.333 320 C 35.69 320 21.333 305.643 21.333 288 L 21.333 53.334 C 21.333 35.691 35.69 21.334 53.333 21.334 L 458.666 21.334 C 476.309 21.334 490.666 35.691 490.666 53.334 L 490.666 288 Z" data-original="#000000" style="fill: rgb(45, 57, 88);" class=""/>
</svg>