<?xml version="1.0" encoding="utf-8"?>
<svg viewBox="0 0 24 24" style="enable-background:new 0 0 512 512" xmlns="http://www.w3.org/2000/svg">
  <g>
    <g xmlns="http://www.w3.org/2000/svg" clip-rule="evenodd" fill="rgb(0,0,0)" fill-rule="evenodd">
      <path d="m12 4.5c-4.14214 0-7.5 3.35786-7.5 7.5 0 4.1421 3.35786 7.5 7.5 7.5 4.1421 0 7.5-3.3579 7.5-7.5 0-4.14214-3.3579-7.5-7.5-7.5zm-8.5 7.5c0-4.69442 3.80558-8.5 8.5-8.5 4.6944 0 8.5 3.80558 8.5 8.5 0 4.6944-3.8056 8.5-8.5 8.5-4.69442 0-8.5-3.8056-8.5-8.5z" data-original="#000000" style="fill: rgb(45, 57, 88);" class=""/>
      <path d="m12 .5c.2761 0 .5.223858.5.5v3c0 .27614-.2239.5-.5.5s-.5-.22386-.5-.5v-3c0-.276142.2239-.5.5-.5z" data-original="#000000" style="fill: rgb(45, 57, 88);" class=""/>
      <path d="m19.1318 2.8682c.1952.19526.1952.51185 0 .70711l-2.1214 2.12132c-.1952.19526-.5118.19526-.7071 0-.1952-.19526-.1952-.51185 0-.70711l2.1213-2.12132c.1953-.19526.5119-.19526.7072 0z" data-original="#000000" style="fill: rgb(45, 57, 88);" class=""/>
      <path d="m23.5 12c0 .2761-.2239.5-.5.5h-3c-.2761 0-.5-.2239-.5-.5s.2239-.5.5-.5h3c.2761 0 .5.2239.5.5z" data-original="#000000" style="fill: rgb(45, 57, 88);" class=""/>
      <path d="m12 23.5c.2761 0 .5-.2239.5-.5v-3c0-.2761-.2239-.5-.5-.5s-.5.2239-.5.5v3c0 .2761.2239.5.5.5z" data-original="#000000" style="fill: rgb(45, 57, 88);" class=""/>
      <path d="m3.8682 20.6318c.19526.1952.51185.1952.70711 0l2.12132-2.1214c.19526-.1952.19526-.5118 0-.7071-.19526-.1952-.51185-.1952-.70711 0l-2.12132 2.1213c-.19526.1953-.19526.5119 0 .7072z" data-original="#000000" style="fill: rgb(45, 57, 88);" class=""/>
      <path d="m20.1318 20.1318c-.1953.1952-.5118.1952-.7071 0l-2.1213-2.1214c-.1953-.1952-.1953-.5118 0-.7071.1952-.1952.5118-.1952.7071 0l2.1213 2.1213c.1953.1953.1953.5119 0 .7072z" data-original="#000000" style="fill: rgb(45, 57, 88);" class=""/>
      <path d="m4.86825 2.8682c-.19526.19526-.19526.51185 0 .70711l2.12132 2.12132c.19526.19526.51184.19526.70711 0 .19526-.19526.19526-.51185 0-.70711l-2.12132-2.12132c-.19527-.19526-.51185-.19526-.70711 0z" data-original="#000000" style="fill: rgb(45, 57, 88);" class=""/>
      <path d="m.5 12c0 .2761.223858.5.5.5h3c.27614 0 .5-.2239.5-.5s-.22386-.5-.5-.5h-3c-.276142 0-.5.2239-.5.5z" data-original="#000000" style="fill: rgb(45, 57, 88);" class=""/>
      <path d="m7.5 14c0-.5523.44772-1 1-1s1 .4477 1 1-.44772 1-1 1-1-.4477-1-1z" data-original="#000000" style="fill: rgb(45, 57, 88);" class=""/>
      <path d="m11.5212 8.38562c-.2761 0-.5.22386-.5.5s.2239.5.5.5c.2762 0 .5-.22386.5-.5s-.2238-.5-.5-.5zm-1.5.5c0-.82843.6716-1.5 1.5-1.5.8285 0 1.5.67157 1.5 1.5s-.6715 1.49998-1.5 1.49998c-.8284 0-1.5-.67155-1.5-1.49998z" data-original="#000000" style="fill: rgb(45, 57, 88);" class=""/>
      <path d="m14.5 12.5c-.5523 0-1 .4477-1 1s.4477 1 1 1 1-.4477 1-1-.4477-1-1-1zm-2 1c0-1.1046.8954-2 2-2s2 .8954 2 2-.8954 2-2 2-2-.8954-2-2z" data-original="#000000" style="fill: rgb(45, 57, 88);" class=""/>
    </g>
  </g>
</svg>