<?xml version="1.0" encoding="utf-8"?>
<svg viewBox="0 0 24 24" style="enable-background:new 0 0 512 512" xmlns="http://www.w3.org/2000/svg">
  <g>
    <g xmlns="http://www.w3.org/2000/svg">
      <path d="m11 24c-1.103 0-2-.897-2-2s.897-2 2-2 2 .897 2 2-.897 2-2 2zm0-3c-.552 0-1 .449-1 1s.448 1 1 1 1-.449 1-1-.448-1-1-1z" data-original="#000000" style="" class="" fill="#2d3958"/>
    </g>
    <g xmlns="http://www.w3.org/2000/svg">
      <path d="m18 24c-1.103 0-2-.897-2-2s.897-2 2-2 2 .897 2 2-.897 2-2 2zm0-3c-.552 0-1 .449-1 1s.448 1 1 1 1-.449 1-1-.448-1-1-1z" data-original="#000000" style="" class="" fill="#2d3958"/>
    </g>
    <g xmlns="http://www.w3.org/2000/svg">
      <path d="m19.07 19h-9.06c-1.115 0-2.103-.747-2.401-1.816l-3.179-11.096c-.18-.642-.771-1.088-1.44-1.088h-2.49c-.276 0-.5-.224-.5-.5s.224-.5.5-.5h2.49c1.115 0 2.103.747 2.401 1.816l3.179 11.096c.18.642.771 1.088 1.44 1.088h9.061c.634 0 1.216-.418 1.415-1.018l2.491-7.324c.013-.044.023-.105.023-.158 0-.276.224-.5.5-.5s.5.224.5.5c0 .153-.024.309-.071.465l-2.495 7.336c-.338 1.015-1.288 1.699-2.364 1.699z" data-original="#000000" style="" class="" fill="#2d3958"/>
    </g>
    <g xmlns="http://www.w3.org/2000/svg">
      <path d="m8.5 9h-2.75c-.276 0-.5-.224-.5-.5s.224-.5.5-.5h2.75c.276 0 .5.224.5.5s-.224.5-.5.5z" data-original="#000000" style="" class="" fill="#2d3958"/>
    </g>
    <g xmlns="http://www.w3.org/2000/svg">
      <path d="m14.5 13c-1.93 0-3.5-1.57-3.5-3.5 0-.935.364-1.814 1.025-2.475l6-6c.662-.661 1.54-1.025 2.475-1.025 1.93 0 3.5 1.57 3.5 3.5 0 .935-.364 1.814-1.025 2.475l-6 6c-.662.661-1.54 1.025-2.475 1.025zm6-12c-.667 0-1.295.26-1.768.732l-6 6c-.472.473-.732 1.1-.732 1.768 0 1.378 1.121 2.5 2.5 2.5.667 0 1.295-.26 1.768-.732l6-6c.472-.473.732-1.1.732-1.768 0-1.378-1.121-2.5-2.5-2.5z" data-original="#000000" style="fill: rgb(45, 57, 88);" class=""/>
    </g>
    <g xmlns="http://www.w3.org/2000/svg">
      <path d="m17 3.5h1v5.999h-1z" transform="matrix(.707 -.707 .707 .707 .529 14.278)" data-original="#000000" style="fill: rgb(45, 57, 88);" class=""/>
    </g>
  </g>
</svg>