<?xml version="1.0" encoding="utf-8"?>
<svg id="_x31_" height="512" viewBox="0 0 24 24" width="512" xmlns="http://www.w3.org/2000/svg">
  <g>
    <path d="m19.987 22c-2.198 0-3.987-1.794-3.987-4 0-1.602 1.088-2.278 2.048-2.875 1.18-.734 2.199-1.368 1.955-3.569-.023-.213.091-.417.285-.508.194-.09.423-.048.572.106 3.622 3.766 3.128 6.807 3.105 6.935.009 2.117-1.78 3.911-3.978 3.911zm1.011-9.177c-.234 1.79-1.427 2.532-2.422 3.151-1.007.626-1.576 1.028-1.576 2.026 0 1.654 1.34 3 2.987 3s2.987-1.346 2.987-3c.01-.1.331-2.282-1.976-5.177z" style="fill: rgb(45, 57, 88);"/>
  </g>
  <g>
    <path d="m15.5 24c-.176 0-.346-.093-.438-.257-.134-.241-.047-.545.194-.68 1.337-.743 3.439-2.592 3.748-4.638.041-.273.297-.457.569-.42.273.042.461.296.42.569-.34 2.25-2.442 4.357-4.252 5.362-.075.044-.158.064-.241.064z" style="fill: rgb(45, 57, 88);"/>
  </g>
  <g>
    <path d="m13.5 5c-.276 0-.5-.224-.5-.5v-2c0-.827-.673-1.5-1.5-1.5h-6c-.827 0-1.5.673-1.5 1.5v2c0 .276-.224.5-.5.5s-.5-.224-.5-.5v-2c0-1.378 1.122-2.5 2.5-2.5h6c1.378 0 2.5 1.122 2.5 2.5v2c0 .276-.224.5-.5.5z" style="fill: rgb(45, 57, 88);"/>
  </g>
  <g>
    <path d="m11.5 22h-9c-1.378 0-2.5-1.122-2.5-2.5v-13c0-1.378 1.122-2.5 2.5-2.5h12c1.378 0 2.5 1.122 2.5 2.5v3c0 .276-.224.5-.5.5s-.5-.224-.5-.5v-3c0-.827-.673-1.5-1.5-1.5h-12c-.827 0-1.5.673-1.5 1.5v13c0 .827.673 1.5 1.5 1.5h9c.276 0 .5.224.5.5s-.224.5-.5.5z" style="fill: rgb(45, 57, 88);"/>
  </g>
  <g>
    <path d="m7.5 17h-7c-.276 0-.5-.224-.5-.5s.224-.5.5-.5h7c.827 0 1.5-.673 1.5-1.5v-3c0-.827-.673-1.5-1.5-1.5h-7c-.276 0-.5-.224-.5-.5s.224-.5.5-.5h7c1.378 0 2.5 1.122 2.5 2.5v3c0 1.378-1.122 2.5-2.5 2.5z" style="fill: rgb(45, 57, 88);"/>
  </g>
</svg>