<?xml version="1.0" encoding="utf-8"?>
<svg viewBox="0 0 124 112" xmlns="http://www.w3.org/2000/svg">
  <path d="M 112 0 L 12 0 C 5.4 0 0 5.4 0 12 C 0 18.6 5.4 24 12 24 L 112 24 C 118.6 24 124 18.6 124 12 C 124 5.4 118.6 0 112 0 Z" data-original="#000000" style="fill: rgb(9, 72, 134);"/>
  <path d="M 112 44 L 12 44 C 5.4 44 0 49.4 0 56 C 0 62.6 5.4 68 12 68 L 112 68 C 118.6 68 124 62.6 124 56 C 124 49.4 118.6 44 112 44 Z" data-original="#000000" style="fill: rgb(9, 72, 134);"/>
  <path d="M 112 88 L 12 88 C 5.4 88 0 93.4 0 100 C 0 106.6 5.4 112 12 112 L 112 112 C 118.6 112 124 106.6 124 100 C 124 93.4 118.6 88 112 88 Z" data-original="#000000" style="fill: rgb(9, 72, 134);"/>
</svg>