<?xml version="1.0" encoding="utf-8"?>
<svg width="100%" height="100%" viewBox="0 0 1366 1366" version="1.1" style="fill-rule:evenodd;clip-rule:evenodd;stroke-linejoin:round;stroke-miterlimit:1.41421;" xmlns="http://www.w3.org/2000/svg">
  <g>
    <path id="account-circle" d="M 682.667 0 C 307.2 0 0 307.2 0 682.667 C 0 1058.133 307.2 1365.333 682.667 1365.333 C 1058.133 1365.333 1365.333 1058.133 1365.333 682.667 C 1365.333 307.2 1058.133 0 682.667 0 Z M 682.667 204.8 C 798.72 204.8 887.467 293.547 887.467 409.6 C 887.467 525.653 798.72 614.4 682.667 614.4 C 566.613 614.4 477.867 525.653 477.867 409.6 C 477.867 293.547 566.613 204.8 682.667 204.8 Z M 681.961 1214.088 C 485.707 1212.351 307.168 1087.772 306.395 964.809 C 305.473 818.138 559.678 734.097 686.044 731.306 C 812.41 728.515 1053.513 798.213 1074.65 955.526 C 1092.655 1089.524 862.702 1215.688 681.961 1214.088 Z" style="fill:#4d4c4c;fill-rule:nonzero;"/>
  </g>
</svg>