<?xml version="1.0" encoding="utf-8"?>
<svg viewBox="0 0 1000 1000" xmlns="http://www.w3.org/2000/svg">
  <path id="account-circle" d="M 500 0 C 225 0 0 225 0 500 C 0 775 225 1000 500 1000 C 775 1000 1000 775 1000 500 C 1000 225 775 0 500 0 Z M 500 150 C 585 150 650.001 215 650.001 300 C 650.001 385 585 450 500 450 C 415 450 350 385 350 300 C 350 215 415 150 500 150 Z M 499.483 889.225 C 355.743 887.953 224.977 796.708 224.41 706.648 C 223.735 599.222 409.921 537.669 502.474 535.625 C 595.027 533.581 771.616 584.629 787.097 699.848 C 800.285 797.992 631.862 890.397 499.483 889.225 Z" style="fill:#2D3958;fill-rule:nonzero;"/>
</svg>