<?xml version="1.0"?>
<svg xmlns="http://www.w3.org/2000/svg" xmlns:xlink="http://www.w3.org/1999/xlink" xmlns:svgjs="http://svgjs.com/svgjs" version="1.1" width="512" height="512" x="0" y="0" viewBox="0 0 512 512" style="enable-background:new 0 0 512 512" xml:space="preserve" class=""><g><g xmlns="http://www.w3.org/2000/svg"><path d="m496.474 482h-14.997v-322.853c18.281-10.976 30.523-30.868 30.523-53.541 0-10.441-2.653-20.782-7.674-29.906l-33.82-67.406c-2.54-5.083-7.734-8.294-13.415-8.294h-400.083c-5.546 0-10.639 3.06-13.242 7.958l-36.932 69.654c-4.366 8.639-6.671 18.283-6.671 27.995 0 22.383 11.938 42.047 29.832 53.107v323.286h-14.998c-8.282 0-14.997 6.716-14.997 15s6.715 15 14.997 15h481.477c8.283 0 14.997-6.716 14.997-15s-6.714-15-14.997-15zm-430.454-452h381.8l31.076 61.826c2.061 4.308 3.109 8.934 3.109 13.78 0 17.957-14.887 32.566-33.186 32.566s-33.187-14.609-33.187-32.566c0-8.284-6.715-15-14.997-15s-14.997 6.716-14.997 15c0 17.957-14.888 32.566-33.187 32.566s-33.187-14.609-33.187-32.566c0-8.284-6.715-15-14.997-15-8.283 0-14.997 6.716-14.997 15 0 17.957-14.887 32.566-33.186 32.566s-33.187-14.609-33.187-32.566c0-8.284-6.715-15-14.997-15-8.283 0-14.997 6.716-14.997 15 0 17.957-14.888 32.566-33.187 32.566s-33.186-14.609-33.186-32.566c0-8.284-6.715-15-14.997-15s-14.997 6.716-14.997 15c0 17.957-14.888 32.566-33.187 32.566s-33.187-14.609-33.187-32.566c0-5.356 1.277-10.452 3.796-15.146.221-.412.415-.832.594-1.255zm-6.03 138.083c1.111.058 2.229.09 3.354.09 19.288 0 36.586-8.604 48.184-22.139 11.599 13.535 28.896 22.139 48.184 22.139s36.586-8.604 48.184-22.139c11.599 13.535 28.896 22.139 48.184 22.139s36.585-8.604 48.184-22.139c11.599 13.535 28.896 22.139 48.184 22.139s36.586-8.604 48.184-22.139c11.599 13.535 28.896 22.139 48.184 22.139.893 0 1.779-.03 2.663-.067v313.894h-391.489z" fill="#2d3958" data-original="#000000" style="" class=""/><path d="m256.094 194.323c-38.455 0-69.741 31.291-69.741 69.752v121.938c0 38.462 31.286 69.753 69.741 69.753s69.741-31.291 69.741-69.753v-121.938c0-38.461-31.286-69.752-69.741-69.752zm0 30c21.916 0 39.746 17.833 39.746 39.752v45.969h-79.492v-45.969c0-21.919 17.83-39.752 39.746-39.752zm0 201.443c-21.916 0-39.746-17.833-39.746-39.753v-45.969h79.492v45.969c0 21.92-17.83 39.753-39.746 39.753z" fill="#2d3958" data-original="#000000" style="" class=""/></g></g></svg>
