<?xml version="1.0" encoding="utf-8"?>
<svg viewBox="0 0 512 512" xmlns="http://www.w3.org/2000/svg">
  <path d="M 505.831 72.155 L 473.822 8.271 C 471.282 3.201 466.103 0 460.44 0 L 54.455 0 C 48.917 0 43.833 3.061 41.234 7.959 L 7 72.467 C 7 72.467 1.084 87.703 1.084 96.237 C 1.084 124.14 23.958 146.76 52.176 146.76 C 80.392 146.76 103.267 124.14 103.267 96.237 C 103.267 124.14 126.141 146.76 154.359 146.76 C 182.575 146.76 205.45 124.14 205.45 96.237 C 205.45 124.14 228.325 146.76 256.542 146.76 C 284.76 146.76 307.634 124.14 307.634 96.237 C 307.634 124.14 330.509 146.76 358.725 146.76 C 386.942 146.76 409.817 124.14 409.817 96.237 C 409.817 124.14 432.691 146.76 460.908 146.76 C 489.125 146.76 512 124.14 512 96.237 C 511.998 87.517 509.764 79.313 505.831 72.155 Z" data-original="#000000" style="fill: rgb(45, 57, 88);" class=""/>
  <path d="M 255.543 236.3 C 233.662 236.3 215.861 254.134 215.861 276.055 L 215.861 322.028 L 295.225 322.028 L 295.225 276.055 C 295.225 254.133 277.424 236.3 255.543 236.3 Z" data-original="#000000" style="fill: rgb(45, 57, 88);" class=""/>
  <path d="M 215.861 398.003 C 215.861 419.925 233.662 437.759 255.543 437.759 C 277.424 437.759 295.225 419.924 295.225 398.003 L 295.225 352.03 L 215.861 352.03 Z" data-original="#000000" style="fill: rgb(45, 57, 88);" class=""/>
  <path d="M 497.268 483.156 L 480.859 483.156 L 480.859 174.018 C 474.172 175.798 467.152 176.762 459.907 176.762 C 440.557 176.762 422.766 169.985 408.816 158.699 C 394.866 169.985 377.074 176.762 357.724 176.762 C 338.374 176.762 320.582 169.985 306.632 158.699 C 292.682 169.985 274.891 176.762 255.541 176.762 C 236.19 176.762 218.399 169.985 204.449 158.699 C 190.499 169.985 172.708 176.762 153.358 176.762 C 134.007 176.762 116.216 169.985 102.266 158.699 C 88.316 169.985 70.525 176.762 51.174 176.762 C 43.93 176.762 36.91 175.798 30.223 174.018 L 30.223 483.155 L 13.816 483.155 C 6.186 483.156 0 489.353 0 496.999 C 0 505.284 6.704 512 14.973 512 L 496.112 512 C 504.382 512 511.086 505.284 511.086 496.999 C 511.086 489.353 504.9 483.156 497.268 483.156 Z M 325.171 398.003 C 325.171 436.468 293.936 467.762 255.543 467.762 C 217.15 467.762 185.914 436.468 185.914 398.003 L 185.914 276.054 C 185.914 237.59 217.15 206.296 255.543 206.296 C 293.936 206.296 325.171 237.59 325.171 276.054 Z" data-original="#000000" style="fill: rgb(45, 57, 88);" class=""/>
</svg>