<?xml version="1.0" encoding="utf-8"?>
<svg viewBox="0 0 24 24" xmlns="http://www.w3.org/2000/svg">
  <path d="M 0.77 15 C 0.541 15 0.334 14.842 0.282 14.609 C 0.095 13.778 0 12.899 0 12 C 0 5.383 5.383 0 12 0 C 15.8 0 19.408 1.83 21.653 4.895 C 21.816 5.118 21.768 5.431 21.546 5.594 C 21.321 5.757 21.009 5.709 20.847 5.486 C 18.789 2.677 15.482 1 12 1 C 5.935 1 1 5.935 1 12 C 1 12.826 1.087 13.63 1.258 14.391 C 1.319 14.66 1.149 14.928 0.879 14.988 C 0.842 14.996 0.806 15 0.77 15 Z" data-original="#000000" style="fill: rgb(45, 57, 88);" class=""/>
  <path d="M 21.5 6 L 18.5 6 C 18.224 6 18 5.776 18 5.5 C 18 5.224 18.224 5 18.5 5 L 21 5 L 21 2.5 C 21 2.224 21.224 2 21.5 2 C 21.776 2 22 2.224 22 2.5 L 22 5.5 C 22 5.776 21.776 6 21.5 6 Z" data-original="#000000" style="fill: rgb(45, 57, 88);" class=""/>
  <path d="M 12 24 C 8.2 24 4.592 22.17 2.347 19.105 C 2.184 18.882 2.232 18.569 2.454 18.406 C 2.678 18.242 2.989 18.29 3.153 18.514 C 5.211 21.323 8.518 23 12 23 C 18.065 23 23 18.065 23 12 C 23 11.161 22.91 10.359 22.733 9.616 C 22.669 9.347 22.835 9.078 23.103 9.014 C 23.373 8.948 23.642 9.116 23.706 9.385 C 23.901 10.203 24 11.083 24 12 C 24 18.617 18.617 24 12 24 Z" data-original="#000000" style="fill: rgb(45, 57, 88);" class=""/>
  <path d="M 2.55 22 C 2.278 22 2.055 21.782 2.05 21.508 L 2 18.508 C 1.998 18.374 2.05 18.245 2.144 18.149 C 2.238 18.053 2.366 18 2.5 18 L 5.5 18 C 5.776 18 6 18.224 6 18.5 C 6 18.776 5.776 19 5.5 19 L 3.009 19 L 3.05 21.492 C 3.055 21.768 2.834 21.995 2.558 22 C 2.556 22 2.553 22 2.55 22 Z" data-original="#000000" style="fill: rgb(45, 57, 88);" class=""/>
  <path d="M 14.5 18 C 13.565 18 12.687 17.636 12.025 16.975 L 7.025 11.975 C 6.364 11.314 6 10.435 6 9.5 C 6 7.57 7.57 6 9.5 6 C 10.435 6 11.313 6.364 11.975 7.025 L 16.975 12.025 C 17.636 12.686 18 13.565 18 14.5 C 18 16.43 16.43 18 14.5 18 Z M 9.5 7 C 8.121 7 7 8.122 7 9.5 C 7 10.168 7.26 10.795 7.732 11.268 L 12.732 16.268 C 13.205 16.74 13.833 17 14.5 17 C 15.879 17 17 15.878 17 14.5 C 17 13.832 16.74 13.205 16.268 12.732 L 11.268 7.732 C 10.795 7.26 10.167 7 9.5 7 Z" data-original="#000000" style="fill: rgb(45, 57, 88);" class=""/>
  <path d="M 8.998 11.5 L 14.996 11.5 L 14.996 12.5 L 8.998 12.5 Z" data-original="#000000" style="fill: rgb(45, 57, 88);" class="" transform="matrix(0.707107, -0.707107, 0.707107, 0.707107, -4.971441, 11.997879)"/>
</svg>