<?xml version="1.0" encoding="utf-8"?>
<svg viewBox="0 0 24 24" xmlns="http://www.w3.org/2000/svg">
  <g>
    <g xmlns="http://www.w3.org/2000/svg">
      <path d="m.77 15c-.229 0-.436-.158-.488-.391-.187-.831-.282-1.71-.282-2.609 0-6.617 5.383-12 12-12 3.8 0 7.408 1.83 9.653 4.895.163.223.115.536-.107.699-.225.163-.537.115-.699-.108-2.058-2.809-5.365-4.486-8.847-4.486-6.065 0-11 4.935-11 11 0 .826.087 1.63.258 2.391.061.269-.109.537-.379.597-.037.008-.073.012-.109.012z" fill="#4d4c4c" data-original="#000000" style="" class=""/>
    </g>
    <g xmlns="http://www.w3.org/2000/svg">
      <path d="m12 24c-3.8 0-7.408-1.83-9.653-4.895-.163-.223-.115-.536.107-.699.224-.164.535-.116.699.108 2.058 2.809 5.365 4.486 8.847 4.486 6.065 0 11-4.935 11-11 0-.839-.09-1.641-.267-2.384-.064-.269.102-.538.37-.602.27-.066.539.102.603.371.195.818.294 1.698.294 2.615 0 6.617-5.383 12-12 12z" fill="#4d4c4c" data-original="#000000" style="" class=""/>
    </g>
    <g xmlns="http://www.w3.org/2000/svg">
      <path d="m2.55 22c-.272 0-.495-.218-.5-.492l-.05-3c-.002-.134.05-.263.144-.359s.222-.149.356-.149h3c.276 0 .5.224.5.5s-.224.5-.5.5h-2.491l.041 2.492c.005.276-.216.503-.492.508-.002 0-.005 0-.008 0z" fill="#4d4c4c" data-original="#000000" style="" class=""/>
    </g>
    <g xmlns="http://www.w3.org/2000/svg">
      <path d="m21.5 6h-3c-.276 0-.5-.224-.5-.5s.224-.5.5-.5h2.5v-2.5c0-.276.224-.5.5-.5s.5.224.5.5v3c0 .276-.224.5-.5.5z" fill="#4d4c4c" data-original="#000000" style="" class=""/>
    </g>
    <g xmlns="http://www.w3.org/2000/svg">
      <path d="m14.5 18c-.935 0-1.813-.364-2.475-1.025l-5-5c-.661-.661-1.025-1.54-1.025-2.475 0-1.93 1.57-3.5 3.5-3.5.935 0 1.813.364 2.475 1.025l5 5c.661.661 1.025 1.54 1.025 2.475 0 1.93-1.57 3.5-3.5 3.5zm-5-11c-1.379 0-2.5 1.122-2.5 2.5 0 .668.26 1.295.732 1.768l5 5c.473.472 1.101.732 1.768.732 1.379 0 2.5-1.122 2.5-2.5 0-.668-.26-1.295-.732-1.768l-5-5c-.473-.472-1.101-.732-1.768-.732z" fill="#4d4c4c" data-original="#000000" style="" class=""/>
    </g>
    <g xmlns="http://www.w3.org/2000/svg">
      <path d="m9 11.5h5.999v1h-5.999z" transform="matrix(.707 -.707 .707 .707 -4.971 12)" fill="#4d4c4c" data-original="#000000" style="" class=""/>
    </g>
  </g>
</svg>
