<?xml version="1.0" encoding="utf-8"?>
<svg viewBox="2 0 20 24" xmlns="http://www.w3.org/2000/svg">
  <g>
    <g xmlns="http://www.w3.org/2000/svg">
      <path d="m7.5 13c-3.033 0-5.5-2.467-5.5-5.5v-5c0-.827.673-1.5 1.5-1.5h1c.276 0 .5.224.5.5s-.224.5-.5.5h-1c-.276 0-.5.224-.5.5v5c0 2.481 2.019 4.5 4.5 4.5s4.5-2.019 4.5-4.5v-5c0-.276-.224-.5-.5-.5h-1c-.276 0-.5-.224-.5-.5s.224-.5.5-.5h1c.827 0 1.5.673 1.5 1.5v5c0 3.033-2.467 5.5-5.5 5.5z" fill="#4d4c4c" data-original="#000000" style=""/>
    </g>
    <g xmlns="http://www.w3.org/2000/svg">
      <path d="m4.5 3c-.276 0-.5-.224-.5-.5v-2c0-.276.224-.5.5-.5s.5.224.5.5v2c0 .276-.224.5-.5.5z" fill="#4d4c4c" data-original="#000000" style=""/>
    </g>
    <g xmlns="http://www.w3.org/2000/svg">
      <path d="m10.5 3c-.276 0-.5-.224-.5-.5v-2c0-.276.224-.5.5-.5s.5.224.5.5v2c0 .276-.224.5-.5.5z" fill="#4d4c4c" data-original="#000000" style=""/>
    </g>
    <g xmlns="http://www.w3.org/2000/svg">
      <path d="m13.5 24c-3.584 0-6.5-2.916-6.5-6.5v-5c0-.276.224-.5.5-.5s.5.224.5.5v5c0 3.033 2.467 5.5 5.5 5.5s5.5-2.467 5.5-5.5v-2c0-.276.224-.5.5-.5s.5.224.5.5v2c0 3.584-2.916 6.5-6.5 6.5z" fill="#4d4c4c" data-original="#000000" style=""/>
    </g>
    <g xmlns="http://www.w3.org/2000/svg">
      <path d="m19.5 16c-1.378 0-2.5-1.122-2.5-2.5s1.122-2.5 2.5-2.5 2.5 1.122 2.5 2.5-1.122 2.5-2.5 2.5zm0-4c-.827 0-1.5.673-1.5 1.5s.673 1.5 1.5 1.5 1.5-.673 1.5-1.5-.673-1.5-1.5-1.5z" fill="#4d4c4c" data-original="#000000" style=""/>
    </g>
  </g>
</svg>