<?xml version="1.0" encoding="utf-8"?>
<svg viewBox="0 0 20 24" xmlns="http://www.w3.org/2000/svg">
  <path d="M 11.5 24 C 7.916 24 5 21.084 5 17.5 L 5 12.5 C 5 12.224 5.224 12 5.5 12 C 5.776 12 6 12.224 6 12.5 L 6 17.5 C 6 20.533 8.467 23 11.5 23 C 14.533 23 17 20.533 17 17.5 L 17 15.5 C 17 15.224 17.224 15 17.5 15 C 17.776 15 18 15.224 18 15.5 L 18 17.5 C 18 21.084 15.084 24 11.5 24 Z" data-original="#000000" style="fill: rgb(45, 57, 88);"/>
  <path d="M 17.5 16 C 16.122 16 15 14.878 15 13.5 C 15 12.122 16.122 11 17.5 11 C 18.878 11 20 12.122 20 13.5 C 20 14.878 18.878 16 17.5 16 Z M 17.5 12 C 16.673 12 16 12.673 16 13.5 C 16 14.327 16.673 15 17.5 15 C 18.327 15 19 14.327 19 13.5 C 19 12.673 18.327 12 17.5 12 Z" data-original="#000000" style="fill: rgb(45, 57, 88);"/>
  <path d="M 5.5 13 C 2.467 13 0 10.533 0 7.5 L 0 2.5 C 0 1.673 0.673 1 1.5 1 L 2.5 1 C 2.776 1 3 1.224 3 1.5 C 3 1.776 2.776 2 2.5 2 L 1.5 2 C 1.224 2 1 2.224 1 2.5 L 1 7.5 C 1 9.981 3.019 12 5.5 12 C 7.981 12 10 9.981 10 7.5 L 10 2.5 C 10 2.224 9.776 2 9.5 2 L 8.5 2 C 8.224 2 8 1.776 8 1.5 C 8 1.224 8.224 1 8.5 1 L 9.5 1 C 10.327 1 11 1.673 11 2.5 L 11 7.5 C 11 10.533 8.533 13 5.5 13 Z" data-original="#000000" style="fill: rgb(45, 57, 88);"/>
  <path d="M 2.5 3 C 2.224 3 2 2.776 2 2.5 L 2 0.5 C 2 0.224 2.224 0 2.5 0 C 2.776 0 3 0.224 3 0.5 L 3 2.5 C 3 2.776 2.776 3 2.5 3 Z" data-original="#000000" style="fill: rgb(45, 57, 88);"/>
  <path d="M 8.5 3 C 8.224 3 8 2.776 8 2.5 L 8 0.5 C 8 0.224 8.224 0 8.5 0 C 8.776 0 9 0.224 9 0.5 L 9 2.5 C 9 2.776 8.776 3 8.5 3 Z" data-original="#000000" style="fill: rgb(45, 57, 88);"/>
</svg>