<?xml version="1.0" encoding="utf-8"?>
<svg version="1.1" id="Capa_1" x="0px" y="0px" viewBox="0 0 512 512" style="enable-background:new 0 0 512 512;" xmlns="http://www.w3.org/2000/svg">
  <g>
    <g>
      <path d="M 512 83.99 C 512 67.448 498.542 53.99 482 53.99 L 398.5 53.99 C 392.977 53.99 392.977 73.99 398.5 73.99 L 482 73.99 C 487.514 73.99 492 78.476 492 83.99 L 492 144.053 L 20 144.053 L 20 83.99 C 20 78.476 24.486 73.99 30 73.99 L 154.584 73.99 C 160.107 73.99 164.584 69.513 164.584 63.99 C 164.584 58.467 160.107 53.99 154.584 53.99 L 30 53.99 C 13.458 53.99 0 67.448 0 83.99 L 0 154.053 C 0 154.185 0.015 154.312 0.02 154.443 C 0.015 154.573 -0.065 154.72 0 154.833 C 4.166 162.047 22.258 165.493 22.258 166.2 L 22 491.992 L 10 491.992 C 4.477 491.992 0 496.469 0 501.992 C 0 507.515 4.477 511.992 10 511.992 L 502 511.992 C 507.523 511.992 512 507.515 512 501.992 C 512 496.469 507.523 491.992 502 491.992 L 490 491.992 L 492.346 164.333 C 492.346 163.626 511.956 161.326 511.983 153.916 C 512.078 128.131 512 83.99 512 83.99 Z M 347.999 164.052 L 410 164.052 L 347.999 164.052 Z M 265.999 164.052 L 328 164.052 L 265.999 164.052 Z M 183.999 164.052 L 246 164.052 L 183.999 164.052 Z M 101.999 164.052 L 164 164.052 L 101.999 164.052 Z M 232 491.99 L 96 491.99 L 96 295.99 L 232 295.99 L 232 491.99 Z M 470 419.99 L 312 419.99 L 312 295.99 L 470 295.99 L 470 419.99 Z M 470.006 275.99 L 470 275.99 L 302 275.99 C 296.477 275.99 292 280.467 292 285.99 L 292 429.99 C 292 435.513 296.477 439.99 302 439.99 L 470 439.99 L 470 491.99 L 252 491.99 L 252 285.99 C 252 280.467 247.523 275.99 242 275.99 L 86 275.99 C 80.477 275.99 76 280.467 76 285.99 L 76 491.99 L 42 491.99 L 43.241 166.445 C 45.366 166.731 468.951 163.803 471.076 163.517 L 470.006 275.99 Z M 491.999 164.052 L 429.999 164.052 L 491.999 164.052 Z" style="fill: rgb(45, 57, 88);"/>
    </g>
  </g>
  <g>
    <g>
      <path d="M 326.425 11.565 C 311.016 -3.843 285.944 -3.844 270.535 11.565 L 225.576 56.524 C 218.111 63.988 214 73.913 214 84.469 C 214 95.025 218.111 104.95 225.575 112.414 C 233.28 120.119 243.4 123.971 253.521 123.971 C 263.641 123.971 273.761 120.118 281.466 112.414 L 303.938 89.941 C 303.94 89.939 303.943 89.937 303.946 89.934 C 303.949 89.931 303.95 89.929 303.953 89.926 L 326.425 67.454 C 333.889 59.991 338 50.066 338 39.51 C 338 28.954 333.889 19.03 326.425 11.565 Z M 267.323 98.272 C 259.713 105.884 247.329 105.883 239.718 98.272 C 236.03 94.586 234 89.683 234 84.469 C 234 79.255 236.03 74.354 239.718 70.667 L 255.126 55.259 L 282.731 82.864 L 267.323 98.272 Z M 312.282 53.313 L 296.874 68.721 L 269.269 41.116 L 284.677 25.707 C 288.482 21.901 293.481 19.999 298.48 19.999 C 303.479 19.999 308.477 21.902 312.282 25.707 C 315.97 29.394 318 34.296 318 39.51 C 318 44.724 315.97 49.626 312.282 53.313 Z" style="fill: rgb(107, 208, 157);"/>
    </g>
  </g>
  <g/>
  <g/>
  <g/>
  <g/>
  <g/>
  <g/>
  <g/>
  <g/>
  <g/>
  <g/>
  <g/>
  <g/>
  <g/>
  <g/>
  <g/>
  <g transform="matrix(1, 0, 0, 1, 355.538183, -111.067503)">
    <g>
      <path d="M -226 433.323 C -231.523 433.323 -236 437.8 -236 443.323 L -236 526.656 C -236 532.179 -231.523 536.656 -226 536.656 C -220.477 536.656 -216 532.179 -216 526.656 L -216 443.323 C -216 437.8 -220.477 433.323 -226 433.323 Z" style="fill: rgb(107, 208, 157);"/>
      <g transform="matrix(1, 0, 0, 1, -74.799725, -107.101935)">
        <g>
          <path d="M -143.93 657.58 C -145.79 655.72 -148.37 654.66 -151 654.66 C -153.63 654.66 -156.21 655.72 -158.07 657.58 C -159.93 659.45 -161 662.02 -161 664.66 C -161 667.29 -159.93 669.87 -158.07 671.73 C -156.21 673.59 -153.63 674.66 -151 674.66 C -148.37 674.66 -145.79 673.59 -143.93 671.73 C -142.07 669.86 -141 667.29 -141 664.66 C -141 662.02 -142.07 659.45 -143.93 657.58 Z" style="fill: rgb(107, 208, 157);"/>
        </g>
      </g>
    </g>
  </g>
  <g transform="matrix(1, 0, 0, 1, 0.385719, -2.193326)">
    <g>
      <path d="M 426.467 347.915 L 399.893 347.915 L 399.893 321.341 C 399.893 315.818 395.416 311.341 389.893 311.341 C 384.37 311.341 379.893 315.818 379.893 321.341 L 379.893 347.915 L 353.319 347.915 C 347.796 347.915 343.319 352.392 343.319 357.915 C 343.319 363.438 347.796 367.915 353.319 367.915 L 379.893 367.915 L 379.893 394.489 C 379.893 400.012 384.37 404.489 389.893 404.489 C 395.416 404.489 399.893 400.012 399.893 394.489 L 399.893 367.915 L 426.467 367.915 C 431.99 367.915 436.467 363.438 436.467 357.915 C 436.467 352.392 431.99 347.915 426.467 347.915 Z" style="fill: rgb(107, 208, 157);"/>
    </g>
  </g>
</svg>