<?xml version="1.0" encoding="utf-8"?>
<svg viewBox="0 0 512 512" style="enable-background:new 0 0 512 512" xmlns="http://www.w3.org/2000/svg">
  <path d="M 511.52 172.128 L 479.52 44.128 C 477.76 36.992 471.328 32 464 32 L 48 32 C 40.672 32 34.24 36.992 32.48 44.128 L 0.48 172.128 C 0.16 173.376 0 174.688 0 176 C 0 202.816 12.704 226.464 32 240.992 L 32 464 C 32 472.832 39.168 480 48 480 L 208 480 C 216.832 480 224 472.832 224 464 L 224 352 L 288 352 L 288 464 C 288 472.832 295.168 480 304 480 L 464 480 C 472.832 480 480 472.832 480 464 L 480 240.992 C 499.296 226.464 512 202.816 512 176 C 512 174.688 511.84 173.376 511.52 172.128 Z M 448 448 L 320 448 L 320 336 C 320 327.168 312.832 320 304 320 L 208 320 C 199.168 320 192 327.168 192 336 L 192 448 L 64 448 L 64 254.72 C 67.936 255.392 71.904 256 76 256 C 100.384 256 122.08 243.872 136 225.056 C 149.92 243.872 171.616 256 196 256 C 220.384 256 242.08 243.872 256 225.056 C 269.92 243.872 291.616 256 316 256 C 340.384 256 362.08 243.872 376 225.056 C 389.92 243.872 411.616 256 436 256 C 440.096 256 444.064 255.392 448 254.72 L 448 448 Z M 436 224 C 411.744 224 392 202.464 392 176 C 392 167.168 384.832 160 376 160 C 367.168 160 360 167.168 360 176 C 360 202.464 340.256 224 316 224 C 291.744 224 272 202.464 272 176 C 272 167.168 264.832 160 256 160 C 247.168 160 240 167.168 240 176 C 240 202.464 220.256 224 196 224 C 171.744 224 152 202.464 152 176 C 152 167.168 144.832 160 136 160 C 127.168 160 120 167.168 120 176 C 120 202.464 100.256 224 76 224 C 52.32 224 32.928 203.456 32.032 177.856 L 60.512 64 L 451.52 64 L 480 177.856 C 479.072 203.456 459.68 224 436 224 Z" fill="#2d3958" data-original="#000000" style="" class=""/>
</svg>