<?xml version="1.0" encoding="utf-8"?>
<svg viewBox="0 0 512 512" xmlns="http://www.w3.org/2000/svg">
  <path d="M 511.52 140.128 L 479.52 12.128 C 477.76 4.992 471.328 0 464 0 L 48 0 C 40.672 0 34.24 4.992 32.48 12.128 L 0.4800000000000003 140.128 C 0.16 141.376 0 142.688 0 144 C 0 170.816 12.704 194.464 32 208.992 L 32 496 C 32 504.8 39.2 512 48 512 L 180 512 C 188.8 512 196 504.8 196 496 L 196 348 L 316 348 L 316 496 C 316 504.8 323.2 512 332 512 L 464 512 C 472.8 512 480 504.8 480 496 L 480 208.992 C 499.296 194.464 512 170.816 512 144 C 512 142.688 511.84 141.376 511.52 140.128 Z M 448 480 L 348 480 L 348 332 C 348 323.2 340.8 316 332 316 L 180 316 C 171.2 316 164 323.2 164 332 L 164 480 L 64 480 L 64 222.72 C 67.936 223.392 71.904 224 76 224 C 100.384 224 122.08 211.872 136 193.056 C 149.92 211.872 171.616 224 196 224 C 220.384 224 242.08 211.872 256 193.056 C 269.92 211.872 291.616 224 316 224 C 340.384 224 362.08 211.872 376 193.056 C 389.92 211.872 411.616 224 436 224 C 440.096 224 444.064 223.392 448 222.72 L 448 480 Z M 436 192 C 411.744 192 392 170.464 392 144 C 392 135.168 384.832 128 376 128 C 367.168 128 360 135.168 360 144 C 360 170.464 340.256 192 316 192 C 291.744 192 272 170.464 272 144 C 272 135.168 264.832 128 256 128 C 247.168 128 240 135.168 240 144 C 240 170.464 220.256 192 196 192 C 171.744 192 152 170.464 152 144 C 152 135.168 144.832 128 136 128 C 127.168 128 120 135.168 120 144 C 120 170.464 100.256 192 76 192 C 52.32 192 32.928 171.456 32.032 145.856 L 60.512 32 L 451.52 32 L 480 145.856 C 479.072 171.456 459.68 192 436 192 Z" fill="#2d3958" data-original="#000000" style="" class=""/>
</svg>