<?xml version="1.0" encoding="utf-8"?>
<svg viewBox="0 0 140 140.012" xmlns="http://www.w3.org/2000/svg">
  <path d="M 114.209 1.506 C 112.201 -0.502 108.946 -0.502 106.939 1.506 C 104.931 3.512 104.931 6.769 106.939 8.776 L 112.323 14.095 L 107.096 19.319 L 97.014 9.238 C 94.975 7.295 91.775 7.295 89.744 9.238 C 87.736 11.245 87.736 14.497 89.736 16.505 C 89.736 16.505 89.744 16.505 89.744 16.509 L 93.232 20.002 L 83.938 29.363 L 74.087 39.204 L 44.546 68.744 L 34.746 78.616 L 24.087 89.279 C 23.332 90.034 23.332 91.245 24.087 92.002 L 29.314 97.229 L 22.726 103.817 C 21.971 104.568 21.971 105.788 22.726 106.542 L 26.768 110.586 L 0.428 136.878 C -0.242 137.704 -0.11 138.917 0.717 139.587 C 1.372 140.115 2.295 140.153 2.998 139.687 L 3.085 139.6 L 29.43 113.32 L 33.465 117.37 C 34.216 118.117 35.428 118.117 36.183 117.37 L 42.772 110.783 L 48 116.005 C 48.753 116.757 49.97 116.757 50.725 116.005 L 119.922 46.804 L 123.431 50.312 C 125.438 52.319 128.694 52.319 130.701 50.312 C 132.71 48.305 132.71 45.049 130.701 43.042 L 120.617 32.96 L 125.845 27.733 L 131.228 33.114 C 133.234 35.122 136.487 35.122 138.494 33.114 C 140.502 31.106 140.502 27.855 138.494 25.846 Z M 34.834 113.244 L 26.744 105.15 L 31.972 99.926 L 40.062 108.017 Z M 49.376 111.87 L 44.16 106.732 L 33.332 95.866 L 28.118 90.657 L 36.031 82.703 L 42.351 89.019 C 43.177 89.693 44.393 89.56 45.06 88.734 C 45.586 88.074 45.63 87.152 45.16 86.457 L 45.019 86.3 L 38.728 79.981 L 45.859 72.851 L 52.173 79.17 C 53.001 79.842 54.217 79.713 54.884 78.885 C 55.418 78.226 55.458 77.304 54.988 76.601 L 54.901 76.509 L 48.577 70.194 L 55.708 63.063 L 62.066 69.317 C 62.656 70.201 63.849 70.442 64.74 69.853 C 65.622 69.258 65.856 68.066 65.269 67.179 C 65.161 67.017 65.029 66.872 64.88 66.752 L 64.789 66.659 L 58.465 60.329 L 65.571 53.163 L 71.891 59.483 C 72.745 60.112 73.95 59.928 74.583 59.073 C 75.09 58.382 75.082 57.439 74.56 56.76 L 68.264 50.436 L 75.395 43.315 L 81.713 49.63 C 82.305 50.513 83.506 50.755 84.387 50.165 C 85.27 49.569 85.513 48.377 84.921 47.486 C 84.809 47.325 84.682 47.181 84.529 47.06 L 78.121 40.653 L 85.236 33.539 L 91.602 39.782 C 92.197 40.664 93.393 40.906 94.276 40.312 C 95.158 39.721 95.4 38.52 94.81 37.639 C 94.706 37.477 94.57 37.332 94.417 37.212 L 94.328 37.119 L 88.009 30.789 L 95.951 22.851 L 117.221 44.122 Z M 127.992 45.752 C 128.49 46.254 128.49 47.06 127.992 47.561 C 127.489 48.061 126.683 48.061 126.182 47.561 L 121.323 42.705 L 97.32 18.716 L 92.466 13.858 C 91.96 13.357 91.96 12.538 92.466 12.036 C 92.968 11.535 93.786 11.535 94.289 12.036 L 116.546 34.298 Z M 117.907 30.223 L 109.817 22.133 L 115.04 16.906 L 123.134 25 Z M 135.785 30.376 C 135.286 30.874 134.476 30.874 133.974 30.376 L 109.661 6.066 C 109.159 5.56 109.159 4.746 109.661 4.24 C 110.163 3.737 110.981 3.737 111.483 4.24 L 135.785 28.557 C 136.287 29.055 136.287 29.866 135.785 30.368 Z M 135.785 30.376" style="fill: #2D3958;" data-original="#000000" class=""/>
</svg>