<?xml version="1.0" encoding="utf-8"?>
<svg viewBox="0 -0.003 24 24" xmlns="http://www.w3.org/2000/svg">
  <path d="M 18.5 7.997 C 18.78 7.997 19 8.227 19 8.497 C 19 8.777 18.78 8.997 18.5 8.997 L 6.71 8.997 L 6.21 8.497 L 6.71 7.997 Z" data-original="#000000" style="fill: rgb(107, 208, 157);" class=""/>
  <path d="M 17.29 15.997 L 17.79 15.497 L 17.29 14.997 L 18.25 14.997 C 18.53 14.997 18.75 15.227 18.75 15.497 C 18.75 15.777 18.53 15.997 18.25 15.997 Z" data-original="#000000" style="fill: rgb(107, 208, 157);" class=""/>
  <path d="M 17.79 15.497 L 17.29 15.997 L 5.5 15.997 C 5.22 15.997 5 15.777 5 15.497 C 5 15.227 5.22 14.997 5.5 14.997 L 17.29 14.997 Z" data-original="#000000" style="fill: rgb(107, 208, 157);" class=""/>
  <path d="M 18.85 15.147 C 19.05 15.347 19.05 15.657 18.85 15.857 L 15.85 18.857 C 15.76 18.947 15.63 18.997 15.5 18.997 C 15.37 18.997 15.24 18.947 15.15 18.857 C 14.95 18.657 14.95 18.347 15.15 18.147 L 17.29 15.997 L 18.25 15.997 C 18.53 15.997 18.75 15.777 18.75 15.497 C 18.75 15.227 18.53 14.997 18.25 14.997 L 17.29 14.997 L 15.15 12.857 C 14.95 12.657 14.95 12.347 15.15 12.147 C 15.34 11.957 15.66 11.957 15.85 12.147 Z" data-original="#000000" style="fill: rgb(107, 208, 157);" class=""/>
  <path d="M 6.71 7.997 L 6.21 8.497 L 6.71 8.997 L 5.75 8.997 C 5.47 8.997 5.25 8.777 5.25 8.497 C 5.25 8.227 5.47 7.997 5.75 7.997 Z" data-original="#000000" style="fill: rgb(107, 208, 157);" class=""/>
  <path d="M 5.15 8.147 L 8.15 5.147 C 8.34 4.957 8.66 4.957 8.85 5.147 C 9.05 5.347 9.05 5.657 8.85 5.857 L 6.71 7.997 L 5.75 7.997 C 5.47 7.997 5.25 8.227 5.25 8.497 C 5.25 8.777 5.47 8.997 5.75 8.997 L 6.71 8.997 L 8.85 11.147 C 9.05 11.337 9.05 11.657 8.85 11.857 C 8.76 11.947 8.63 11.997 8.5 11.997 C 8.37 11.997 8.24 11.947 8.15 11.857 L 5.15 8.857 C 4.95 8.657 4.95 8.347 5.15 8.147 Z" data-original="#000000" style="fill: rgb(107, 208, 157);" class=""/>
  <path d="M 21.5 0.997 L 2.5 0.997 C 1.67 0.997 1 1.677 1 2.497 L 1 21.497 C 1 22.327 1.67 22.997 2.5 22.997 L 21.5 22.997 C 22.33 22.997 23 22.327 23 21.497 L 23 2.497 C 23 1.677 22.33 0.997 21.5 0.997 Z M 21.5 23.997 L 2.5 23.997 C 1.12 23.997 0 22.877 0 21.497 L 0 2.497 C 0 1.127 1.12 -0.003 2.5 -0.003 L 21.5 -0.003 C 22.88 -0.003 24 1.127 24 2.497 L 24 21.497 C 24 22.877 22.88 23.997 21.5 23.997 Z" data-original="#000000" style="fill: rgb(45, 57, 88);" class=""/>
</svg>