<?xml version="1.0" encoding="utf-8"?>
<svg viewBox="0 -0.003 24 24" xmlns="http://www.w3.org/2000/svg">
  <g>
    <g xmlns="http://www.w3.org/2000/svg" id="XMLID_1_">
      <path d="m18.5 7.997c.28 0 .5.23.5.5 0 .28-.22.5-.5.5h-11.79l-.5-.5.5-.5z" fill="#4d4c4c" data-original="#000000" style="" class=""/>
      <path d="m17.29 15.997.5-.5-.5-.5h.96c.28 0 .5.23.5.5 0 .28-.22.5-.5.5z" fill="#4d4c4c" data-original="#000000" style="" class=""/>
      <path d="m17.79 15.497-.5.5h-11.79c-.28 0-.5-.22-.5-.5 0-.27.22-.5.5-.5h11.79z" fill="#4d4c4c" data-original="#000000" style="" class=""/>
      <path d="m18.85 15.147c.2.2.2.51 0 .71l-3 3c-.09.09-.22.14-.35.14s-.26-.05-.35-.14c-.2-.2-.2-.51 0-.71l2.14-2.15h.96c.28 0 .5-.22.5-.5 0-.27-.22-.5-.5-.5h-.96l-2.14-2.14c-.2-.2-.2-.51 0-.71.19-.19.51-.19.7 0z" fill="#4d4c4c" data-original="#000000" style="" class=""/>
      <path d="m6.71 7.997-.5.5.5.5h-.96c-.28 0-.5-.22-.5-.5 0-.27.22-.5.5-.5z" fill="#4d4c4c" data-original="#000000" style="" class=""/>
      <path d="m5.15 8.147 3-3c.19-.19.51-.19.7 0 .2.2.2.51 0 .71l-2.14 2.14h-.96c-.28 0-.5.23-.5.5 0 .28.22.5.5.5h.96l2.14 2.15c.2.19.2.51 0 .71-.09.09-.22.14-.35.14s-.26-.05-.35-.14l-3-3c-.2-.2-.2-.51 0-.71z" fill="#4d4c4c" data-original="#000000" style="" class=""/>
      <path d="m21.5.997h-19c-.83 0-1.5.68-1.5 1.5v19c0 .83.67 1.5 1.5 1.5h19c.83 0 1.5-.67 1.5-1.5v-19c0-.82-.67-1.5-1.5-1.5zm0 23h-19c-1.38 0-2.5-1.12-2.5-2.5v-19c0-1.37 1.12-2.5 2.5-2.5h19c1.38 0 2.5 1.13 2.5 2.5v19c0 1.38-1.12 2.5-2.5 2.5z" fill="#4d4c4c" data-original="#000000" style="" class=""/>
    </g>
  </g>
</svg>
