<?xml version="1.0" encoding="utf-8"?>
<svg viewBox="0 0 512.001 412" xmlns="http://www.w3.org/2000/svg">
  <path d="M 405.967 141.239 C 404.898 63.178 341.065 0 262.754 0 C 227.919 0 194.358 12.672 168.256 35.682 C 144.96 56.217 129.024 83.659 122.713 113.788 C 122.252 113.783 121.795 113.779 121.339 113.779 C 54.434 113.779 0 168.212 0 235.118 C 0 302.024 54.434 356.457 121.34 356.457 L 206.083 356.457 C 212.112 356.457 217.002 351.569 217.002 345.538 C 217.002 339.507 212.112 334.619 206.083 334.619 L 121.34 334.619 C 66.474 334.619 21.838 289.983 21.838 235.118 C 21.838 180.253 66.474 135.617 121.34 135.617 C 124.263 135.617 127.353 135.774 130.788 136.097 C 136.61 136.642 141.837 132.501 142.63 126.701 C 146.562 97.881 160.791 71.374 182.697 52.063 C 204.808 32.571 233.239 21.837 262.753 21.837 C 329.688 21.837 384.142 76.292 384.142 143.226 C 384.142 145.636 383.963 148.12 383.774 150.75 L 383.693 151.868 C 383.466 155.08 384.668 158.229 386.98 160.472 C 389.289 162.715 392.468 163.823 395.677 163.502 C 398.581 163.209 401.511 163.062 404.385 163.062 C 451.682 163.062 490.163 201.542 490.163 248.84 C 490.163 296.137 451.683 334.617 404.385 334.617 L 315.274 334.617 C 309.245 334.617 304.355 339.505 304.355 345.536 C 304.355 351.567 309.245 356.455 315.274 356.455 L 404.385 356.455 C 463.724 356.455 512.001 308.18 512.001 248.84 C 512 190.033 464.58 142.088 405.967 141.239 Z" data-original="#000000" style="fill: rgb(45, 57, 88);"/>
  <path d="M 262.755 51.319 C 217.097 51.319 178.013 85.44 171.841 130.686 C 171.026 136.661 175.21 142.166 181.184 142.981 C 181.685 143.049 182.182 143.083 182.673 143.083 C 188.048 143.083 192.732 139.113 193.477 133.639 C 198.18 99.159 227.963 73.157 262.754 73.157 C 268.785 73.157 273.673 68.269 273.673 62.238 C 273.674 56.208 268.785 51.319 262.755 51.319 Z" data-original="#000000" style="fill: rgb(107, 208, 157);"/>
  <path d="M 312.41 273.924 L 272.692 238.444 C 265.845 232.324 255.515 232.325 248.665 238.443 L 208.947 273.925 C 204.449 277.942 204.061 284.845 208.078 289.343 C 212.095 293.839 218.997 294.23 223.496 290.212 L 249.76 266.75 L 249.76 401.081 C 249.76 407.112 254.648 412 260.679 412 C 266.709 412 271.598 407.112 271.598 401.081 L 271.598 266.748 L 297.863 290.211 C 299.945 292.072 302.544 292.987 305.133 292.987 C 308.135 292.987 311.123 291.758 313.281 289.342 C 317.296 284.844 316.907 277.942 312.41 273.924 Z" data-original="#000000" style="fill: rgb(107, 208, 157);"/>
</svg>