<?xml version="1.0" encoding="utf-8"?>
<svg viewBox="0 0 512 512.002" xmlns="http://www.w3.org/2000/svg">
  <path d="M 252.77 246.633 C 286.652 246.633 315.992 234.48 339.965 210.504 C 363.937 186.531 376.09 157.199 376.09 123.313 C 376.09 89.438 363.937 60.102 339.961 36.121 C 315.984 12.152 286.648 0 252.77 0 C 218.883 0 189.551 12.152 165.578 36.125 C 141.605 60.098 129.449 89.434 129.449 123.313 C 129.449 157.199 141.605 186.535 165.582 210.508 C 189.559 234.477 218.895 246.633 252.77 246.633 Z M 252.77 246.633" style="fill: rgb(45, 57, 88);"/>
  <path d="M 468.547 393.703 C 467.855 383.727 466.457 372.844 464.398 361.352 C 462.32 349.773 459.645 338.828 456.441 328.824 C 453.133 318.484 448.633 308.273 443.07 298.488 C 437.297 288.332 430.516 279.488 422.906 272.211 C 414.949 264.598 405.207 258.477 393.941 254.012 C 382.715 249.57 370.273 247.32 356.965 247.32 C 351.738 247.32 346.684 249.465 336.922 255.82 C 330.914 259.738 323.887 264.27 316.043 269.281 C 309.336 273.555 300.25 277.559 289.027 281.184 C 278.078 284.727 266.961 286.523 255.988 286.523 C 245.016 286.523 233.902 284.727 222.941 281.184 C 211.73 277.562 202.645 273.559 195.945 269.285 C 188.176 264.32 181.145 259.789 175.047 255.816 C 165.297 249.461 160.238 247.316 155.012 247.316 C 141.699 247.316 129.262 249.57 118.039 254.016 C 106.781 258.473 97.035 264.594 89.07 272.215 C 81.465 279.496 74.68 288.336 68.914 298.488 C 63.355 308.273 58.855 318.48 55.543 328.828 C 52.344 338.832 49.668 349.773 47.59 361.352 C 45.531 372.828 44.133 383.715 43.441 393.715 C 42.762 403.512 42.418 413.68 42.418 423.949 C 42.418 450.676 50.914 472.313 67.668 488.27 C 84.215 504.016 106.109 512.004 132.734 512.004 L 379.266 512.004 C 405.891 512.004 427.777 504.02 444.328 488.27 C 461.086 472.324 469.582 450.684 469.582 423.945 C 469.578 413.629 469.23 403.453 468.547 393.703 Z M 468.547 393.703" style="fill: rgb(45, 57, 88);"/>
</svg>